<svg width="50" height="68" xmlns="http://www.w3.org/2000/svg">

 <metadata id="metadata5">image/svg+xml</metadata>
 <g>
  <title>background</title>
  <rect fill="none" id="canvas_background" height="70" width="52" y="-1" x="-1"/>
 </g>
 <g>
  <title>Layer 1</title>
  <g id="layer1">
   <path fill="#ffffff" stroke-width="6.344643" stroke-linecap="round" stroke-miterlimit="4" stroke-dashoffset="0" d="m38.213581,66.561836c-2.161583,-0.411331 -3.485802,-1.118225 -5.291656,-2.824802c-6.26927,-5.924553 -32.033491,-30.512085 -32.033491,-30.570457c0,-0.042168 6.856041,-6.298763 15.235638,-13.903534c8.379589,-7.604757 15.789112,-14.330206 16.465578,-14.945436c1.417938,-1.289562 2.020363,-1.72506 3.100403,-2.241352c1.288589,-0.615967 2.061882,-0.778458 3.704712,-0.778458c1.64283,0 2.416115,0.162491 3.704704,0.778458c1.902931,0.909653 3.250931,2.214691 4.18383,4.050511c1.09594,2.15667 1.233719,4.685963 0.382355,7.01878c-0.74868,2.051441 -0.603241,1.901253 -10.822235,11.17499c-4.989279,4.527771 -9.294538,8.445644 -9.567228,8.706364l-0.495796,0.474037l9.614477,9.150574c5.287964,5.032806 9.763298,9.338226 9.945198,9.567581c1.194061,1.505554 1.836876,3.185104 1.94976,5.094345c0.070602,1.193802 -0.070396,2.196106 -0.474976,3.377899c-0.767532,2.241737 -2.477516,4.13628 -4.63163,5.13155c-1.143204,0.528183 -2.022621,0.719902 -3.457733,0.753777c-0.701622,0.016602 -1.381981,0.010002 -1.511909,-0.014793l0,-0.000031z" id="path886"/>
   <path fill="none" stroke="#ff862a" stroke-width="10.765" stroke-linecap="round" stroke-miterlimit="4" d="m39.345524,9.777506l-25.607882,23.245539l25.702379,24.473961l0,0l0,0" id="path852-7"/>
  </g>
 </g>
</svg>