<?xml version="1.0" encoding="utf-8"?>
<!-- Generator: Adobe Illustrator 21.0.0, SVG Export Plug-In . SVG Version: 6.00 Build 0)  -->
<svg version="1.1" id="Layer_2" xmlns="http://www.w3.org/2000/svg" xmlns:xlink="http://www.w3.org/1999/xlink" x="0px" y="0px"
	 viewBox="0 0 960 476" style="enable-background:new 0 0 960 476;" xml:space="preserve">
<style type="text/css">
	.st0{fill:#FFFFFF;}
	.st1{fill:#FF862A;}
</style>
<path class="st0" d="M557.6,469c16.3,0.1,20.3-26.5,24.8-38.1c1-2.7,36.5-0.2,39.9-0.2c20.6,0,41.2,0.1,61.8,0.1
	c6.7,0,8.6,0.4,15.1,3.1c19.7,8.1,40.9,7.8,61.7,7.7c38.8-0.1,77.9-5.6,111.7-26c47.7-28.8,71.3-80.5,78.1-134.1
	c6.7-52.8,3.3-111.8-21.3-159.9c-32.2-64.3-100.4-87.2-168.4-87.4c-19.3-0.1-38.9-0.4-57.3,6.1c-8.3,2.9-11.2,4.7-19.5,4.7
	c-20.6,0-41.2,0.1-61.8,0.1c-3.4,0-38.8,2.5-39.9-0.2c-4.5-11.6-8.4-38.2-24.8-38.1c-5.5,0-8.8,2.6-8.8,2.6s5.4,27.2,7.5,35.8
	c-34.9,0.1-69.9,0.2-104.8,0.2c-62.5,0.1-124.5-5-186.8-8.2c-70.5-3.6-137.2,4.2-205.2,23c-8.7,2.4-17.4,4.9-26.2,7.3
	C25.1,70,21.8,82.2,19.8,89.2c-7.3,25.1-8.3,51.5-10.7,77.3c-4.2,65.4-5,133.8,6,198.7c2.1,12.2,4.2,26.2,11,36.9
	c4.5,7,12.9,7.5,20.3,9.6c28.9,8.1,57.9,15.4,87.4,20.7c78.8,14,158,3.7,237.2-0.4c44.2-2.3,88.3-1.7,132.6-1.6
	c17.6,0,35.1,0.1,52.7,0.1c-1.9,7.8-7.9,34.4-7.9,34.4S551.1,469,557.6,469z"/>
<path class="st1" d="M935.5,118.6c-29.3-58.6-91.3-91-174.7-91.3l-2.1,0c-2,0-4,0-6,0c-16.7,0-34.4,0.5-51.5,6.5
	c-1.7,0.6-3.1,1.1-4.4,1.6c-5,1.9-7.3,2.7-12.7,2.7l-61.8,0.1c-0.8,0-2.4,0.1-5.6,0.2c-5.9,0.3-15.9,0.8-23.3,0.8
	c-2.5,0-4.3-0.1-5.5-0.1c-0.4-1.4-0.9-2.9-1.4-4.5C582.2,20.9,575.9,0,557.7,0h-0.1c-7.5,0-12.2,3.4-13,4l-3.5,2.7l0.9,4.3
	c0.2,0.8,3.3,16.3,5.6,27.4l-96.1,0.2l-2.5,0c-44.6,0-89.8-2.7-133.6-5.3c-16.5-1-33.6-2-50.4-2.9c-11.2-0.6-22.5-0.9-33.6-0.9
	c-58.2,0-115,7.9-173.8,24.1c-4.1,1.1-8.2,2.3-12.2,3.4c-4.6,1.3-9.3,2.6-13.9,3.9c-11.8,3.2-15.8,17.2-18.2,25.6L13,87.3
	c-6.2,21.4-8,43.6-9.8,65c-0.4,4.5-0.7,9.1-1.2,13.6l0,0.2c-5.3,82.8-3.4,144.6,6,200.4l0.2,1.4c2.1,12.5,4.5,26.6,11.8,38.1
	c5.2,8,13.5,10,20.2,11.5c1.5,0.3,2.8,0.7,4.1,1c33.9,9.5,61.9,16.2,88.1,20.8c27.3,4.9,56.9,7.2,90.5,7.2c33.2,0,67-2.3,99.6-4.5
	c16-1.1,32.5-2.2,48.8-3c29.4-1.5,58.3-1.7,82.7-1.7c10,0,20,0,30,0.1c6.5,0,13,0.1,19.5,0.1l43.9,0.1c-2.4,10.5-5.7,25.1-5.9,25.9
	l-0.7,3l1.7,2.5c0.5,0.7,5.1,6.9,14.9,7h0.1c18.2,0,24.5-20.9,28.7-34.7c0.5-1.6,0.9-3.1,1.4-4.5c1.2-0.1,3-0.1,5.5-0.1
	c7.5,0,17.4,0.5,23.3,0.8c3.2,0.2,4.8,0.2,5.6,0.2l61.8,0.1c5.8,0,6.7,0.2,12.4,2.5c18.7,7.6,38.5,8.3,57.3,8.3c2,0,3.9,0,5.9,0
	l1.3,0c48.4-0.2,85-8.7,115.3-27c44.5-26.8,73.4-76.3,81.4-139.2C963.2,238.2,963.9,173.9,935.5,118.6z M950.6,281.6
	c-6.8,53.6-30.3,105.3-78.1,134.1c-33.8,20.4-72.9,25.8-111.7,26c-20.9,0.1-42.1,0.3-61.7-7.7c-6.5-2.6-8.3-3-15.1-3.1
	c-20.6,0-41.2-0.1-61.8-0.1c-3.4,0-38.8-2.5-39.9,0.2c-4.5,11.6-8.4,38.2-24.8,38.1c-6.5,0-9.2-4-9.2-4s6-26.7,7.9-34.4
	c-17.6,0-35.1-0.1-52.7-0.1c-44.2-0.1-88.4-0.7-132.6,1.6c-79.3,4.1-158.4,14.4-237.2,0.4c-29.5-5.3-58.5-12.5-87.4-20.7
	c-7.5-2.1-15.8-2.6-20.3-9.6c-6.8-10.7-9-24.6-11-36.9c-11-64.9-10.1-133.3-6-198.7c2.4-25.9,3.4-52.2,10.7-77.3
	c2-7,5.3-19.2,13.6-21.4c8.7-2.4,17.5-4.9,26.2-7.3c68-18.8,134.7-26.6,205.2-23c62.3,3.2,124.4,8.3,186.8,8.2
	c34.9-0.1,69.9-0.2,104.8-0.2c-2.1-8.6-7.5-35.8-7.5-35.8s3.3-2.6,8.8-2.6c16.3-0.1,20.3,26.5,24.8,38.1c1,2.7,36.5,0.2,39.9,0.2
	c20.6,0,41.2-0.1,61.8-0.1c8.3,0,11.1-1.8,19.5-4.7c18.5-6.5,38.1-6.1,57.3-6.1c68,0.2,136.3,23.1,168.4,87.4
	C953.9,169.8,957.3,228.8,950.6,281.6z"/>
</svg>
