<svg xmlns="http://www.w3.org/2000/svg" width="211" height="211" viewBox="0 0 211 211">
  <g fill="none" fill-rule="evenodd" transform="translate(-6.5 -6.458)">
    <rect width="223" height="223" x=".5" y=".458" fill="#E4E4E4"/>
    <path fill="#F7F7F7" fill-rule="nonzero" stroke="#737373" stroke-width="5" d="M177.688414,127.496337 C178.844207,122.364079 187.449381,117.939424 187.449381,112.457627 C187.449381,106.97583 178.844207,102.54265 177.688414,97.4189174 C176.498875,92.1246778 182.320022,84.3666133 180.042182,79.5924197 C177.72216,74.7329727 168.070866,74.5198391 164.772216,70.3424197 C161.456693,66.1479497 163.380202,56.5910373 159.237908,53.2491018 C155.112486,49.9156916 146.32171,53.9311294 141.512936,51.5866594 C136.788526,49.2848161 134.426322,39.8131571 129.187289,38.6110833 C124.108549,37.443111 117.933071,44.9113138 112.508436,44.9113138 C107.083802,44.9113138 100.908324,37.443111 95.8295838,38.6110833 C90.5905512,39.8131571 88.2283465,49.2848161 83.503937,51.5866594 C78.6951631,53.9311294 69.904387,49.924217 65.7789651,53.2491018 C61.628234,56.5995626 63.5517435,66.156475 60.2446569,70.3424197 C56.9460067,74.5113138 47.2947132,74.7329727 44.9746907,79.5924197 C42.6968504,84.3666133 48.5179978,92.1246778 47.3284589,97.4189174 C46.1726659,102.551176 37.5674916,106.97583 37.5674916,112.457627 C37.5674916,117.939424 46.1726659,122.372604 47.3284589,127.496337 C48.5179978,132.790576 42.6968504,140.548641 44.9746907,145.322834 C47.2947132,150.182281 56.9460067,150.395415 60.2446569,154.572834 C63.56018,158.767305 61.6366704,168.324217 65.7789651,171.666152 C69.904387,174.999563 78.6951631,170.984125 83.503937,173.328595 C88.2283465,175.630438 90.5905512,185.102097 95.8295838,186.304171 C100.908324,187.472143 107.083802,180.00394 112.508436,180.00394 C117.933071,180.00394 124.108549,187.472143 129.187289,186.304171 C134.426322,185.102097 136.788526,175.630438 141.512936,173.328595 C146.32171,170.984125 155.112486,174.991037 159.237908,171.666152 C163.388639,168.315692 161.465129,158.758779 164.772216,154.572834 C168.070866,150.40394 177.72216,150.182281 180.042182,145.322834 C182.320022,140.548641 176.490439,132.790576 177.688414,127.496337 Z"/>
    <path stroke="#737373" stroke-width="5" d="M152.836694,72.9301442 C147.595286,67.7748123 141.507157,63.7352403 134.716376,60.907404 C127.686999,57.9800531 120.224091,56.5 112.5,56.5 C104.792415,56.5 97.3271838,57.9826504 90.28358,60.9074224 C83.4838789,63.7389732 77.3893736,67.7814459 72.1625538,72.9308842 C66.9289406,78.0785221 62.8251476,84.0662103 59.9659451,90.728352 C57.0027966,97.626407 55.5,104.94815 55.5,112.5 C55.5,120.048674 57.0015463,127.362194 59.9652192,134.26996 C62.8387274,140.9458 66.9388528,146.931227 72.1625892,152.069151 C77.4041588,157.224819 83.4925335,161.264631 90.2836242,164.092596 C97.313001,167.019947 104.775909,168.5 112.5,168.5 C120.207585,168.5 127.672816,167.01735 134.71642,164.092578 C141.516121,161.261027 147.610626,157.218554 152.837446,152.069116 C158.071059,146.921478 162.174852,140.93379 165.034055,134.271648 C167.997203,127.373593 169.5,120.05185 169.5,112.5 C169.5,104.951326 167.998454,97.6378064 165.034184,90.7286535 C162.175218,84.0755375 158.071045,78.0871805 152.836694,72.9301442 Z M152.836694,72.9301442 C152.836455,72.929909 152.836216,72.9296738 152.835978,72.9294385 L152.837411,72.9308493 C152.837172,72.9306143 152.836933,72.9303793 152.836694,72.9301442 Z"/>
    <path stroke="#737373" stroke-linecap="round" stroke-width="6" d="M120.3125 95.458709C122.625173 86.6486391 127.469412 82.2904348 134.845216 82.384096 142.22102 82.4777572 146.925392 86.8359615 148.958333 95.458709M73.4375 95.458709C75.7501733 86.6486391 80.5944119 82.2904348 87.9702158 82.384096 95.3460198 82.4777572 100.050392 86.8359615 102.083333 95.458709"/>
    <path stroke="#737373" stroke-linecap="round" stroke-width="6" d="M86.4583333,129.456545 C88.7710066,120.646475 93.6152453,116.288271 100.991049,116.381932 C108.366853,116.475593 113.071226,120.833798 115.104167,129.456545" transform="matrix(1 0 0 -1 0 245.837)"/>
  </g>
</svg>
