<svg width="2020" height="2020" xmlns="http://www.w3.org/2000/svg">
 <style type="text/css">.st0{fill:#C9C9C9;}</style>

 <g>
  <title>background</title>
  <rect fill="none" id="canvas_background" height="2022" width="2022" y="-1" x="-1"/>
 </g>
 <g>
  <title>Layer 1</title>
  <path d="m336.5,2022.5l1374,0c0,0 -140,-654 -684,-654s-690,654 -690,654z" class="st0" id="Corps_1_"/>
  <path id="svg_1" d="m1023.5,92.5c-277.8,0 -503,225.2 -503,503c0,277.8 225.2,503 503,503s503,-225.2 503,-503c0,-277.8 -225.2,-503 -503,-503zm-287.8,397.3l-41.3,0c6.1,-70.5 65.1,-125.9 137,-125.9c71.9,0 130.9,55.3 137,125.9l-40.1,0c-6.3,-47.7 -47,-84.6 -96.3,-84.6c-49.4,0 -90.1,36.9 -96.3,84.6zm189.2,281.8c-71.9,0 -130.9,-55.3 -137,-125.9l40.1,0c6.3,47.7 47,84.6 96.3,84.6c49.3,0 90,-36.9 96.3,-84.6l41.3,0c-6.1,70.6 -65.1,125.9 -137,125.9zm370.9,-281.8c-6.3,-47.7 -47,-84.6 -96.3,-84.6s-90,36.9 -96.3,84.6l-41.3,0c6.1,-70.5 65.1,-125.9 137,-125.9c71.9,0 130.9,55.3 137,125.9l-40.1,0z" class="st0"/>
 </g>
</svg>