<svg xmlns="http://www.w3.org/2000/svg" width="44" height="44" viewBox="0 0 44 44">
  <path fill="#FE872B" fill-rule="evenodd" d="M666,25 L682,25 C683.656854,25 685,26.3431458 685,28 C685,29.6568542 683.656854,31 682,31 L666,31 L666,47 C666,48.6568542 664.656854,50 663,50 C661.343146,50 660,48.6568542 660,47 L660,31 L644,31 C642.343146,31 641,29.6568542 641,28 C641,26.3431458 642.343146,25 644,25 L660,25 L660,9 C660,7.34314575 661.343146,6 663,6 C664.656854,6 666,7.34314575 666,9 L666,25 Z" style="mix-blend-mode:multiply" transform="translate(-641 -6)"/>
</svg>
