<?xml version="1.0" encoding="utf-8"?>
<!-- Generator: Adobe Illustrator 16.0.0, SVG Export Plug-In . SVG Version: 6.00 Build 0)  -->
<!DOCTYPE svg PUBLIC "-//W3C//DTD SVG 1.1//EN" "http://www.w3.org/Graphics/SVG/1.1/DTD/svg11.dtd">
<svg version="1.1" id="Calque_1" xmlns="http://www.w3.org/2000/svg" xmlns:xlink="http://www.w3.org/1999/xlink" x="0px" y="0px"
	 width="2048px" height="2048px" viewBox="0 0 2048 2048" enable-background="new 0 0 2048 2048" xml:space="preserve">
<g>
	<g>
		<path fill="#5ABA49" d="M1026.604,1534.109c-101.804,0-200.597-19.95-293.636-59.308
			c-89.833-37.992-170.496-92.376-239.75-161.626c-69.254-69.258-123.635-149.92-161.629-239.75
			c-39.353-93.042-59.306-191.834-59.306-293.637c0-101.804,19.953-200.596,59.306-293.637
			c37.994-89.831,92.375-170.493,161.629-239.75c69.254-69.251,149.917-123.634,239.75-161.627
			c93.039-39.353,191.832-59.307,293.636-59.307c101.805,0,200.596,19.955,293.638,59.307
			c89.83,37.993,170.492,92.376,239.75,161.627c69.25,69.256,123.634,149.919,161.626,239.75
			c39.353,93.041,59.308,191.833,59.308,293.637c0,101.803-19.955,200.596-59.308,293.637
			c-37.992,89.83-92.376,170.492-161.626,239.75c-69.258,69.25-149.92,123.634-239.75,161.626
			C1227.199,1514.159,1128.408,1534.109,1026.604,1534.109z M1026.604,158.41c-342.629,0-621.378,278.751-621.378,621.378
			c0,342.628,278.749,621.378,621.378,621.378c342.628,0,621.379-278.75,621.379-621.378
			C1647.982,437.161,1369.231,158.41,1026.604,158.41z"/>
		<circle fill="#CBE3B5" cx="1026.604" cy="779.788" r="687.849"/>
	</g>
	<path fill="#5ABA49" d="M540.949,618.152h60.838c9.237-70.301,69.176-124.605,141.805-124.605
		c72.632,0,132.568,54.304,141.807,124.605h59.037c-8.939-103.874-95.84-185.367-201.745-185.367
		C636.786,432.786,549.886,514.279,540.949,618.152L540.949,618.152z"/>
	<path fill="#5ABA49" d="M1092.249,618.152h60.84c9.238-70.301,69.175-124.605,141.805-124.605
		c72.632,0,132.567,54.304,141.805,124.605h59.034c-8.937-103.874-95.837-185.367-201.739-185.367
		C1188.087,432.786,1101.186,514.279,1092.249,618.152L1092.249,618.152z"/>
	<path fill="#5ABA49" d="M882.019,1038.39c105.603,0,192.279-81.27,201.216-184.846h-60.688
		c-9.164,70.078-68.95,124.233-141.429,124.233c-72.48,0-132.192-54.156-141.431-124.233h-58.886
		C689.74,957.12,776.414,1038.39,882.019,1038.39z"/>
</g>
</svg>
