<?xml version="1.0" encoding="utf-8"?>
<!-- Generator: Adobe Illustrator 19.0.0, SVG Export Plug-In . SVG Version: 6.00 Build 0)  -->
<svg version="1.1" xmlns="http://www.w3.org/2000/svg" xmlns:xlink="http://www.w3.org/1999/xlink" x="0px" y="0px"
	 viewBox="726 -604.1 2048 2048" style="enable-background:new 726 -604.1 2048 2048;" xml:space="preserve">
<style type="text/css">
	.st0{fill:#5ABA49;}
	.st1{fill:#CBE3B5;}
	.st2{fill:#231F20;}
	.st3{fill:none;stroke:#F89837;stroke-width:177;stroke-miterlimit:10;}
	.st4{fill:#FEE0C1;}
	.st5{fill:#F89837;}
</style>
<g id="Calque_2">
	<g>
		<g>
			<circle class="st3" cx="1747.9" cy="184.9" r="673"/>
			<circle class="st4" cx="1747.9" cy="184.9" r="673"/>
		</g>
		<path class="st5" d="M1272.7,26.7h59.5c9-68.8,67.7-121.9,138.8-121.9c71.1,0,129.7,53.1,138.8,121.9h57.8
			c-8.7-101.6-93.8-181.4-197.4-181.4S1281.4-74.9,1272.7,26.7L1272.7,26.7z"/>
		<path class="st5" d="M1812.1,26.7h59.5c9-68.8,67.7-121.9,138.8-121.9c71.1,0,129.7,53.1,138.8,121.9h57.8
			c-8.7-101.6-93.8-181.4-197.4-181.4C1905.9-154.7,1820.8-74.9,1812.1,26.7L1812.1,26.7z"/>
		<path class="st5" d="M1506.8,182.3H1692v63.6h-185.2V182.3z"/>
	</g>
</g>
</svg>
