<?xml version="1.0" encoding="utf-8"?>
<!-- Generator: Adobe Illustrator 16.0.0, SVG Export Plug-In . SVG Version: 6.00 Build 0)  -->
<!DOCTYPE svg PUBLIC "-//W3C//DTD SVG 1.1//EN" "http://www.w3.org/Graphics/SVG/1.1/DTD/svg11.dtd">
<svg version="1.1" id="Calque_1" xmlns="http://www.w3.org/2000/svg" xmlns:xlink="http://www.w3.org/1999/xlink" x="0px" y="0px"
	 width="2048px" height="2048px" viewBox="0 0 2048 2048" enable-background="new 0 0 2048 2048" xml:space="preserve">
<g>
	<g>
		<path fill="#EE6062" d="M1026,1538.274c-101.932,0-200.851-19.978-294.008-59.381c-89.945-38.042-170.711-92.492-240.053-161.834
			c-69.341-69.342-123.79-150.106-161.833-240.052c-39.402-93.156-59.38-192.077-59.38-294.008
			c0-101.932,19.979-200.851,59.38-294.007c38.043-89.946,92.493-170.71,161.833-240.052
			c69.342-69.342,150.107-123.791,240.053-161.834c93.157-39.402,192.076-59.38,294.008-59.38
			c101.931,0,200.85,19.979,294.008,59.38c89.944,38.043,170.71,92.493,240.052,161.834s123.79,150.106,161.835,240.052
			c39.402,93.156,59.38,192.075,59.38,294.007c0,101.931-19.978,200.852-59.38,294.008
			c-38.045,89.945-92.493,170.71-161.835,240.052s-150.107,123.792-240.052,161.834
			C1226.85,1518.297,1127.931,1538.274,1026,1538.274z M1026,160.837c-343.062,0-622.163,279.102-622.163,622.163
			c0,343.063,279.102,622.164,622.163,622.164c343.063,0,622.164-279.102,622.164-622.164
			C1648.164,439.938,1369.063,160.837,1026,160.837z"/>
		<circle fill="#F8BFBF" cx="1026" cy="783" r="688.719"/>
	</g>
	<path fill="#EE6062" d="M539.73,621.161h60.915c9.25-70.39,69.264-124.763,141.985-124.763
		c72.723,0,132.735,54.373,141.986,124.763h59.11c-8.95-104.007-95.96-185.604-201.998-185.604
		C635.691,435.557,548.68,517.154,539.73,621.161L539.73,621.161z"/>
	<path fill="#EE6062" d="M1091.728,621.161h60.915c9.251-70.39,69.264-124.763,141.985-124.763
		c72.724,0,132.735,54.373,141.987,124.763h59.109c-8.95-104.007-95.96-185.604-201.998-185.604
		C1187.689,435.557,1100.677,517.154,1091.728,621.161L1091.728,621.161z"/>
	<path fill="#EE6062" d="M933.875,804.959c-105.737,0-192.522,81.371-201.472,185.078h60.764
		c9.175-70.166,69.038-124.388,141.609-124.388s132.36,54.222,141.61,124.388h58.96
		C1126.397,886.33,1039.611,804.959,933.875,804.959z"/>
</g>
</svg>
