<svg xmlns="http://www.w3.org/2000/svg" width="215" height="254" viewBox="0 0 215 254">
  <g fill="#FE872B" fill-rule="evenodd">
    <path d="M215,49.4187019 C207.706109,28.1113086 191.750798,14.1662658 167.134067,7.58357352 C171.740542,16.5952719 174.663107,23.1969503 175.901762,27.3886088 C155.22723,7.22719064 134.850022,-1.50304987 114.770138,1.19788731 C84.6503121,5.24929309 79.7814415,18.5251252 54.1178401,24.8456857 C37.0087725,29.0593927 18.9694924,31.3009868 0,31.570468 C74.1140476,39.8202694 103.037362,48.6610921 86.7699447,58.0929363 C99.8820918,66.9876553 136.89514,68.2572795 160.162055,56.1563459 C175.673331,48.0890569 191.234692,46.7771731 206.846135,52.2206946 L215,49.4187019 Z"/>
    <path d="M215,240.55853 C189.276426,208.385444 164.106273,189.007554 139.489543,182.424862 C144.096018,191.43656 146.522597,195.344383 146.769279,194.14833 C133.864558,186.950832 117.372255,184.702551 97.2923712,187.403488 C67.1725454,191.454894 67.2590791,209.631294 40.7384083,215.594368 C23.057961,219.569751 9.47849161,221.941727 0,222.710296 C79.1802743,225.417267 103.304719,232.300675 72.3733336,243.360523 C85.4854807,252.255242 136.89514,259.397108 160.162055,247.296174 C175.673331,239.228885 191.234692,237.917001 206.846135,243.360523 L215,240.55853 Z" transform="matrix(1 0 0 -1 0 436.14)"/>
  </g>
</svg>
