<?xml version="1.0" encoding="utf-8"?>
<!-- Generator: Adobe Illustrator 15.1.0, SVG Export Plug-In . SVG Version: 6.00 Build 0)  -->
<!DOCTYPE svg PUBLIC "-//W3C//DTD SVG 1.1//EN" "http://www.w3.org/Graphics/SVG/1.1/DTD/svg11.dtd">
<svg version="1.1" id="Layer_1" xmlns="http://www.w3.org/2000/svg" xmlns:xlink="http://www.w3.org/1999/xlink" x="0px" y="0px"
	 width="104px" height="103px" viewBox="0 0 104 103" enable-background="new 0 0 104 103" xml:space="preserve">
<g>
	
		<linearGradient id="SVGID_1_" gradientUnits="userSpaceOnUse" x1="-968.4272" y1="1072.1631" x2="-968.4272" y2="1071.083" gradientTransform="matrix(95.522 0 0 -95.15 92558.3438 102016.2969)">
		<stop  offset="0" style="stop-color:#FFE800"/>
		<stop  offset="1" style="stop-color:#FFA400"/>
	</linearGradient>
	<ellipse fill="url(#SVGID_1_)" cx="52.199" cy="51.38" rx="52.2" ry="51.38"/>
	<g transform="translate(15.65 17.817)">
		<path fill="#FFFFFF" d="M58.551,38.746c0.979-5.756-0.563-12.427-0.563-12.427H43.274c0.064-1.238,0.104-2.675-0.664-2.813
			c-0.168-0.034-2.682-0.046-5.066-0.046v-3.71c1.96-0.391,3.374-2.578,3.916-5.206c0.709-3.448-1.602-9.175-2.183-9.106
			c-0.657,0.08,0.174,1.306-0.931,3.236c-1.233,2.153-4.945,3.12-5.615,4.781c-1.477,3.665,0.594,5.526,2.811,6.14v3.86
			c-2.391,0-4.911,0.011-5.08,0.045c-0.768,0.137-0.727,1.575-0.663,2.812H15.102c0,0-1.646,7.486-0.477,12.428H-2.758
			c0,0,0.407,13.516,11.694,24.052h55.097c11.229-10.76,11.868-24.052,11.868-24.052L58.551,38.746z"/>
		<ellipse fill="#FFFFFF" cx="20.403" cy="15.798" rx="3.315" ry="3.265"/>
		<ellipse fill="#FFFFFF" cx="17.884" cy="9.653" rx="1.093" ry="1.08"/>
		<ellipse fill="#FFFFFF" cx="13.322" cy="4.099" rx="2.868" ry="2.823"/>
		<ellipse fill="#FFFFFF" cx="24.883" cy="-0.31" rx="2.426" ry="2.388"/>
		<ellipse fill="#FFFFFF" cx="5.061" cy="17.105" rx="2.612" ry="2.571"/>
		<ellipse fill="#FFFFFF" cx="4.886" cy="29.796" rx="2.153" ry="2.119"/>
		<path fill="#FFFFFF" d="M71.678,17.253c-0.542-0.578-1.838-1.031-3.509-1.352c0.011-1.706-0.972-3.814-5.47-6.534
			c-5.324-2.52-7.825-3.379-10.821-4.41c1.862-0.687,3.636-1.059,4.799-1.604c-0.145-1.489-0.261-2.577-0.61-3.207
			c-1.86,0.286-8.29,0.664-9.715,1.93c0.35,2.422,0.582,3.797,1.221,6.511c2.851,2.617,17.157,2.136,18.188,6.97
			c-5.179-0.527-11.828-0.04-12.545,1.695l2.153,6.26c5.713,0.011,8.908-1.146,10.61-2.52c1.258,0.057,2.516,0.281,3.702,0.744
			c-0.175,0.332-1.979,2.073-3.375,3.476c0.989,0.951,3.152,2.754,4.403,3.722c1.158-1.059,2.323-3.189,2.543-4.106
			C73.09,22.957,72.299,19.733,71.678,17.253z"/>
	</g>
</g>
</svg>
