<?xml version="1.0" encoding="utf-8"?>
<!-- Generator: Adobe Illustrator 15.1.0, SVG Export Plug-In . SVG Version: 6.00 Build 0)  -->
<!DOCTYPE svg PUBLIC "-//W3C//DTD SVG 1.1//EN" "http://www.w3.org/Graphics/SVG/1.1/DTD/svg11.dtd">
<svg version="1.1" id="Layer_1" xmlns="http://www.w3.org/2000/svg" xmlns:xlink="http://www.w3.org/1999/xlink" x="0px" y="0px"
	 width="104px" height="103px" viewBox="0 0 104 103" enable-background="new 0 0 104 103" xml:space="preserve">
<g>
	
		<linearGradient id="SVGID_1_" gradientUnits="userSpaceOnUse" x1="-968.4292" y1="1072.1631" x2="-968.4292" y2="1071.0801" gradientTransform="matrix(95.522 0 0 -95.15 92558.3438 102016.2969)">
		<stop  offset="0" style="stop-color:#D4EB31"/>
		<stop  offset="1" style="stop-color:#5AB20C"/>
	</linearGradient>
	<ellipse fill="url(#SVGID_1_)" cx="52" cy="51.5" rx="52" ry="51.5"/>
	<path fill="#FFFFFF" d="M73.705,21.549c2.37,3.191,4.226,6.705,5.507,10.436c0.527,1.539,0.962,3.117,1.298,4.729
		c2.394-0.327,4.428-1.102,6.057-1.957c-3.374-6.819-8.751-12.491-15.377-16.256C72.088,19.482,72.923,20.504,73.705,21.549z
		 M43.538,16.636c3.999,2.025,8.184,5.258,12.617,8.673c7.228,5.579,14.703,11.342,21.276,11.56
		c0.452,0.018,0.894,0.012,1.327-0.005c-0.318-1.475-0.712-2.922-1.199-4.328c-2.163-6.297-5.936-11.791-11.227-16.371
		c-4.394-1.74-9.187-2.692-14.2-2.692c-4.104,0-8.057,0.637-11.759,1.819C41.371,15.625,42.425,16.073,43.538,16.636z
		 M87.297,36.324c-1.676,0.873-3.866,1.716-6.475,2.083c0.255,1.55,0.424,3.123,0.505,4.719c0.098,1.974,0.063,3.983-0.11,6.009
		c3.275,1.378,6.352,2.882,9.175,4.495c0.04-0.724,0.063-1.459,0.063-2.193C90.461,46.065,89.33,40.951,87.297,36.324z
		 M81.037,50.927c-0.14,1.147-0.324,2.296-0.55,3.443c-0.407,2.067-0.945,4.128-1.618,6.154c0.984,0.694,1.861,1.555,2.609,2.578
		c1.152,1.577,2.017,3.535,2.555,5.819c0.232,0.982,0.383,1.935,0.481,2.818c3.065-4.78,5.076-10.292,5.714-16.205
		C87.424,53.877,84.335,52.332,81.037,50.927z M30.816,70.805c5.93-1.304,12.258-3.765,18.384-6.148
		c10.195-3.966,19.827-7.709,26.493-5.67c0.574,0.177,1.124,0.391,1.646,0.643c0.591-1.842,1.071-3.708,1.443-5.586
		c0.248-1.273,0.446-2.542,0.585-3.811c-7.731-3.128-16.524-5.544-25.664-6.968c-15.15-2.365-28.753-1.602-36.386,2.038
		c-1.287,0.614-2.382,1.297-3.287,2.043c-0.145,1.343-0.22,2.709-0.22,4.093c0,7.365,2.115,14.236,5.778,20.049
		C22.766,71.987,26.48,71.758,30.816,70.805z M82.335,69.271c-0.486-2.048-1.252-3.793-2.271-5.177
		c-0.529-0.712-1.119-1.332-1.786-1.854c-2.127,5.787-5.273,11.286-9.192,15.981c-2.828,3.387-5.976,6.268-9.348,8.564
		c-1.357,0.923-2.736,1.738-4.139,2.451c11.191-0.993,20.997-6.751,27.332-15.212C82.897,72.756,82.759,71.047,82.335,69.271z
		 M58.752,85.368c3.24-2.205,6.266-4.978,8.996-8.243c3.883-4.65,6.978-10.108,9.035-15.85c-0.505-0.257-1.037-0.476-1.601-0.648
		c-6.084-1.858-15.439,1.78-25.345,5.633c-6.184,2.403-12.577,4.89-18.64,6.228c-3.309,0.729-6.207,1.049-8.861,0.976
		c-0.499-0.012-0.991-0.04-1.472-0.087c6.728,9.392,17.66,15.618,30.074,15.992C53.595,88.433,56.214,87.089,58.752,85.368z
		 M16.564,43.746c4-1.905,9.627-3.1,16.275-3.443c6.393-0.333,13.701,0.103,21.138,1.263c9.07,1.417,17.816,3.794,25.554,6.876
		c0.127-1.763,0.146-3.508,0.064-5.229c-0.083-1.567-0.25-3.117-0.506-4.638c-0.347,0.017-0.694,0.028-1.054,0.028
		c-0.215,0-0.436-0.006-0.655-0.011c-7.135-0.236-14.837-6.177-22.284-11.923c-4.365-3.369-8.492-6.548-12.34-8.5
		c-2-1.01-3.762-1.607-5.333-1.791c-11.928,4.919-20.807,15.63-23.05,28.586C15.04,44.532,15.771,44.125,16.564,43.746z"/>
</g>
</svg>
