<?xml version="1.0" encoding="utf-8"?>
<!-- Generator: Adobe Illustrator 15.1.0, SVG Export Plug-In . SVG Version: 6.00 Build 0)  -->
<!DOCTYPE svg PUBLIC "-//W3C//DTD SVG 1.1//EN" "http://www.w3.org/Graphics/SVG/1.1/DTD/svg11.dtd">
<svg version="1.1" id="Layer_1" xmlns="http://www.w3.org/2000/svg" xmlns:xlink="http://www.w3.org/1999/xlink" x="0px" y="0px"
	 width="104px" height="103px" viewBox="0 0 104 103" enable-background="new 0 0 104 103" xml:space="preserve">
<g>
	
		<linearGradient id="SVGID_1_" gradientUnits="userSpaceOnUse" x1="-968.4292" y1="1072.1641" x2="-968.4292" y2="1071.0811" gradientTransform="matrix(95.522 0 0 -95.15 92558.3438 102016.3594)">
		<stop  offset="0" style="stop-color:#09D9F7"/>
		<stop  offset="1" style="stop-color:#026BE0"/>
	</linearGradient>
	<ellipse fill="url(#SVGID_1_)" cx="52" cy="51.5" rx="52" ry="51.5"/>
	<path fill="#FFFFFF" d="M53.102,66.648V9.626c-0.354-0.012-0.701-0.012-1.055-0.012c-22.998,0-41.637,18.46-41.637,41.237
		c0,3.559,0.458,7.016,1.31,10.304h38.038v5.487H13.574c3.432,8.187,9.448,15.039,17.04,19.563h42.868
		c7.591-4.523,13.606-11.376,17.039-19.563H53.102V66.648z"/>
	<path fill="#FFFFFF" d="M79.271,61.161c0.626-2.164,0.956-4.448,0.956-6.809c0-13.661-11.181-24.733-24.974-24.733v31.547h24.018
		V61.161z"/>
</g>
</svg>
