<?xml version="1.0" encoding="utf-8"?>
<!-- Generator: Adobe Illustrator 15.1.0, SVG Export Plug-In . SVG Version: 6.00 Build 0)  -->
<!DOCTYPE svg PUBLIC "-//W3C//DTD SVG 1.1//EN" "http://www.w3.org/Graphics/SVG/1.1/DTD/svg11.dtd">
<svg version="1.1" id="Layer_1" xmlns="http://www.w3.org/2000/svg" xmlns:xlink="http://www.w3.org/1999/xlink" x="0px" y="0px"
	 width="104px" height="103px" viewBox="0 0 104 103" enable-background="new 0 0 104 103" xml:space="preserve">
<g>
	
		<linearGradient id="SVGID_1_" gradientUnits="userSpaceOnUse" x1="-968.4292" y1="1072.1631" x2="-968.4292" y2="1071.0801" gradientTransform="matrix(95.522 0 0 -95.15 92558.3438 102016.2969)">
		<stop  offset="0" style="stop-color:#FFE800"/>
		<stop  offset="1" style="stop-color:#FFA400"/>
	</linearGradient>
	<ellipse fill="url(#SVGID_1_)" cx="52" cy="51.5" rx="52" ry="51.5"/>
	<g transform="translate(12.51 7.848)">
		<path fill="#FFFFFF" d="M39.866,21.811h2.042l-2.042-1.71V21.811z M51.661,27.987l3.048,6.395l3.878-0.465l-3.65-6.314
			L51.661,27.987z M39.866,27.149h4.728l-2.196-4.672l-2.532,0.041V27.149z M39.866,34.932l6.671-0.115l-1.542-6.44l-5.129,0.058
			V34.932z M43.187,22.454l2.689,4.644l4.098-0.293l-4.219-4.489L43.187,22.454z M48.27,36.397l0.58,7.381l6.26-0.414l-0.882-7.308
			L48.27,36.397z M42.602,21.788l2.139-0.156l-4.046-1.698c0.058-0.012,0.111-0.023,0.161-0.035l4.389,1.693l1.576-0.177
			l-4.058-1.378l-1.686-0.356c-0.053-0.798-0.649-1.469-1.531-1.67V-3.503h-1.083v21.526c-0.864,0.252-1.397,1.067-1.403,1.681
			l-1.554,0.327l-4.057,1.378l1.576,0.178l4.341-1.676c0.052,0.012,0.116,0.023,0.173,0.034l-4.016,1.688l2.138,0.156l2.527-1.768
			c0.591,0.046,1.287,0.046,1.873-0.006L42.602,21.788z M58.668,53.147l-3.813,0.517l-3.048,5.883l2.943-0.396L58.668,53.147z
			 M49.974,60.753l-4.323,0.224l-2.4,3.627l2.458-0.155L49.974,60.753z M60.65,44.45l-4.226,0.511l-1.136,7.158l3.872-0.477
			L60.65,44.45z M55.197,45.076l-6.359,0.401l-0.521,7.071l5.79-0.309L55.197,45.076z M39.866,60.017l5.222-0.092l1.524-5.826
			l-6.747,0.155V60.017z M39.866,52.727l6.983-0.12l0.425-7.066l-7.408,0.115V52.727z M46.335,28.32l1.681,6.446l5.668-0.304
			l-2.845-6.395L46.335,28.32z M48.381,64.098l0.566-0.16l6.533-4.277l-1.38,0.5L48.381,64.098z M55.346,59.013l1.067-0.396
			l4.301-6.223l-1.519,0.593L55.346,59.013z M50.768,26.724l2.928-0.361l-5.738-4.293l-1.739,0.212L50.768,26.724z M61.288,44.249
			l-1.501,7.21l1.448-0.58l1.443-7.169L61.288,44.249z M39.983,66.004l7.824-1.313l0.023-0.019l-2.614,0.201L39.983,66.004z
			 M61.131,42.601l1.525-0.51l-1.467-7.319l-1.275,0.511L61.131,42.601z M42.573,65.056l-2.707,0.884v0.047l4.074-1.021
			L42.573,65.056z M50.907,60.665l-4.526,3.721l1.601-0.173l5.487-3.896L50.907,60.665z M44.602,61.01l-4.736,0.08v3.581
			l2.532-0.041L44.602,61.01z M39.866,65.762l1.64-0.676l-1.64,0.028V65.762z M60.499,33.13l-4.062-6.153l-1.107,0.488l3.808,6.308
			L60.499,33.13z M60.499,42.745l-1.129-7.273l-4.087,0.488l1.044,7.295L60.499,42.745z M55.231,25.806l-6.335-4.093l-0.648,0.298
			l5.824,4.254L55.231,25.806z M47.651,21.053l-4.29-0.902l3.749,1.212L47.651,21.053z M38.406,21.811v-1.71l-2.04,1.71H38.406z
			 M26.612,27.987l-3.275-0.385l-3.652,6.314l3.872,0.465L26.612,27.987z M33.676,27.149h4.73v-4.632l-2.533-0.041L33.676,27.149z
			 M31.735,34.818l6.671,0.115v-6.498l-5.129-0.058L31.735,34.818z M35.079,22.454l-2.562-0.139l-4.219,4.489l4.098,0.293
			L35.079,22.454z M30.002,36.397l-5.958-0.34l-0.881,7.308l6.253,0.414L30.002,36.397z M31.004,43.841l7.402,0.155v-7.462
			l-6.903-0.068L31.004,43.841z M35.021,64.603l-2.399-3.627l-4.324-0.224l4.26,3.695L35.021,64.603z M19.112,51.642l3.872,0.477
			l-1.136-7.158l-4.231-0.511L19.112,51.642z M33.178,59.925l5.228,0.092v-5.763l-6.747-0.155L33.178,59.925z M31.422,52.607
			l6.984,0.12v-7.071l-7.407-0.115L31.422,52.607z M22.792,59.661l6.532,4.277l0.567,0.16l-5.72-3.938L22.792,59.661z
			 M19.076,52.987l-1.518-0.593l4.3,6.223l1.067,0.396L19.076,52.987z M27.498,26.724l4.55-4.442l-1.733-0.212l-5.738,4.293
			L27.498,26.724z M30.437,64.672l0.029,0.019l7.825,1.313l-5.234-1.131L30.437,64.672z M17.083,34.772l-1.466,7.319l1.518,0.51
			l1.223-7.318L17.083,34.772z M34.331,64.965l4.075,1.021V65.94l-2.707-0.884L34.331,64.965z M27.365,60.665l-2.562-0.349
			l5.488,3.896l1.594,0.173L27.365,60.665z M38.406,65.762v-0.647l-1.641-0.028L38.406,65.762z M24.531,53.767l2.892,5.854
			l4.654,0.258l-1.813-5.831L24.531,53.767z M22.942,27.465l-1.106-0.488l-4.063,6.153l1.356,0.643L22.942,27.465z M30.025,22.011
			l-0.655-0.298l-6.329,4.093l1.158,0.459L30.025,22.011z M34.911,20.151l-4.29,0.902l0.539,0.31L34.911,20.151z"/>
		<path fill="#FFFFFF" d="M59.99,54.45l-3.547,5.211l-8.613,5.426l-8.774,1.67l-9.164-1.67l-8.282-5.426l-5.274-7.542l-1.797-9.518
			l1.854-9.138l4.347-6.475c-6.283-4.379-10.601-7.381-11.012-7.646c-3.982,0.305-5.407,3.749-5.448,5.367
			c1.021,2.417,4.422,10.333,8.462,19.701c-2.481,1.762-12.246,8.725-15.823,11.297c0.522,5.832,10.433,19.092,15.475,21.617
			c1.843-1.959,7.239-8.197,9.754-11.113c4.092,9.477,7.477,17.318,8.289,19.206c18.779,3.387,37.366-5.223,45.942-19.423
			C73.749,64.109,67.57,59.765,59.99,54.45z M46.821,20.101c0,0,13.284-9.495,14.409-10.058c1.009,0,4.892,2.583,5.646,4.765
			c-1.683,2.124-10.028,11.458-10.028,11.458l-0.404-0.781l-8.173-5.052L46.821,20.101z"/>
		<path fill="#FFFFFF" d="M3.237,24.652c0.174-1.32,1.797-6.027,5.68-6.498c-2-1.223-3.883-2.6-5.332-3.289
			c-2.521-0.631-4.394,1.464-4.115,3.674C0.031,19.607,2.252,23.102,3.237,24.652z M61.849,8.815
			c1.316,0.258,5.605,2.916,6.289,5.815c1.362-1.894,2.934-3.553,3.722-4.937c1.043-2.21-0.778-4.885-3.954-4.253
			C66.8,5.922,63.478,7.943,61.849,8.815z"/>
	</g>
</g>
</svg>
