<?xml version="1.0" encoding="utf-8"?>
<!-- Generator: Adobe Illustrator 15.1.0, SVG Export Plug-In . SVG Version: 6.00 Build 0)  -->
<!DOCTYPE svg PUBLIC "-//W3C//DTD SVG 1.1//EN" "http://www.w3.org/Graphics/SVG/1.1/DTD/svg11.dtd">
<svg version="1.1" id="Layer_1" xmlns="http://www.w3.org/2000/svg" xmlns:xlink="http://www.w3.org/1999/xlink" x="0px" y="0px"
	 width="104px" height="103px" viewBox="0 0 104 103" enable-background="new 0 0 104 103" xml:space="preserve">
<g>
	
		<linearGradient id="SVGID_1_" gradientUnits="userSpaceOnUse" x1="-968.4292" y1="1072.1641" x2="-968.4292" y2="1071.0811" gradientTransform="matrix(95.522 0 0 -95.15 92558.3438 102016.3594)">
		<stop  offset="0" style="stop-color:#09D9F7"/>
		<stop  offset="1" style="stop-color:#026BE0"/>
	</linearGradient>
	<ellipse fill="url(#SVGID_1_)" cx="52" cy="51.5" rx="52" ry="51.5"/>
	<path fill="#FFFFFF" d="M52.087,20.09c-17.109,0-30.984,13.736-30.984,30.687c0,16.951,13.869,30.687,30.984,30.687
		s30.985-13.736,30.985-30.687C83.072,33.827,69.202,20.09,52.087,20.09z M41.023,39.09c-2.481,0-4.497-1.991-4.497-4.454
		c0-2.462,2.011-4.454,4.497-4.454s4.498,1.992,4.498,4.454C45.521,37.099,43.504,39.09,41.023,39.09z M51.172,49.262
		c-2.411,0-4.364-1.934-4.364-4.323c0-2.387,1.953-4.322,4.364-4.322s4.363,1.935,4.363,4.322
		C55.535,47.328,53.583,49.262,51.172,49.262z M54.436,35.049c-2.29,0-4.15-1.837-4.15-4.11c0-2.273,1.854-4.11,4.15-4.11
		c2.295,0,4.149,1.836,4.149,4.11C58.585,33.212,56.73,35.049,54.436,35.049z"/>
</g>
</svg>
