<?xml version="1.0" encoding="utf-8"?>
<!-- Generator: Adobe Illustrator 15.1.0, SVG Export Plug-In . SVG Version: 6.00 Build 0)  -->
<!DOCTYPE svg PUBLIC "-//W3C//DTD SVG 1.1//EN" "http://www.w3.org/Graphics/SVG/1.1/DTD/svg11.dtd">
<svg version="1.1" id="Layer_1" xmlns="http://www.w3.org/2000/svg" xmlns:xlink="http://www.w3.org/1999/xlink" x="0px" y="0px"
	 width="104px" height="103px" viewBox="0 0 104 103" enable-background="new 0 0 104 103" xml:space="preserve">
<g>
	
		<linearGradient id="SVGID_1_" gradientUnits="userSpaceOnUse" x1="-968.4292" y1="1072.1631" x2="-968.4292" y2="1071.0801" gradientTransform="matrix(95.522 0 0 -95.15 92558.3438 102016.2969)">
		<stop  offset="0" style="stop-color:#E087E2"/>
		<stop  offset="1" style="stop-color:#892390"/>
	</linearGradient>
	<ellipse fill="url(#SVGID_1_)" cx="52" cy="51.5" rx="52" ry="51.5"/>
	<g transform="translate(22.199 16.173)">
		<path fill="#FFFFFF" d="M58.833,61.611H0.637c0,0-0.469,0.058-0.469,1.091c0,0.9,4.567,7.308,9.395,10.563
			c2.666-0.059,14.038-0.029,19.005-0.013v0.013c0,0,0.428,0,1.171-0.007c0.742,0,1.17,0.007,1.17,0.007v-0.013
			c4.967-0.017,16.338-0.052,19.005,0.013c4.826-3.255,9.395-9.656,9.395-10.563C59.303,61.669,58.833,61.611,58.833,61.611z
			 M58.428,51.337c1.043-0.478,3.188-3.347,2.607-5.798c-0.694-0.114-4.504-2.354-4.504-2.354s0.447,2.622-1.35,3.328
			c-3.101,1.224-6.027-2.065-6.027-2.065s-0.156,2.026-2.957,2.411c-4.305,0.585-8.403-3.847-8.403-3.847s-0.579,2.125-3.478,2.795
			l-6.897-3.024c0,0-0.812,2.125-4.462,2.642c-3.651,0.516-6.666-2.699-6.666-2.699s-2.897,4.879-7.999,4.766
			C5.39,47.428,5.715,42.37,5.715,42.37s-1.478,1.378-4.086,1.275c-1.083-0.047-1.855-0.805-1.855-0.805s-4.04,4.46,1.246,8.242
			c1.386-0.636,19.242-0.429,23.213,0.281c-0.145,0.66-4.463,1.011-8.665,2.296c-3.142,0.966-6.075,2.487-8.173,3.961
			c-2.823,0.317-6.155-4.018-6.398-6.468c-5.193,4.432-1.321,8.391-1.321,8.391s55.86,0.121,60.085,0
			C63.239,54.992,59.246,52.141,58.428,51.337z M54.62,57.421c-2.162-0.614-3.014-2.026-6.185-3.518
			c-3.971-1.873-6.77-1.981-6.915-2.642c4.057-0.276,15.481-0.527,16.612,0.126C58.295,52.542,55.124,57.634,54.62,57.421z"/>
		<path fill="#FFFFFF" d="M-0.573,39.167H61.58c0,0,3.229,4.134,1.345,4.765l-7.313-4.219c0,0,1.024,4.793-1.178,4.907l-6.548-4.248
			c0,0,0.631,4.042-1.74,4.248c-5.158,0.459-7.939-4.248-7.939-4.248s-1.159,4.076-4.173,3.676l-6.897-4.077
			c0,0,0.957,3.731-4.752,3.731c-3.71,0-6.492-3.731-6.492-3.731s-3.825,6.945-7.071,5.683l-1.333-5.94c0,0-3.884,2.669-5.68,2.038
			L-0.573,39.167z M61.563,35.608c-0.174-1.716-9.18-22.903-32.52-22.553V-2.851h-0.852v15.935
			C6.509,13.996-2.046,33.926-2.215,35.608c-0.174,1.722,1.13,1.551,1.13,1.551h61.518C60.434,37.159,61.737,37.33,61.563,35.608z
			 M3.848,36.286c-0.951,0.746-2.162,0.803-2.706,0.126c-0.545-0.678-0.215-1.837,0.735-2.583c0.951-0.746,2.163-0.804,2.707-0.126
			C5.129,34.386,4.799,35.539,3.848,36.286z M9.957,26.378c-0.724,0.569-1.634,0.62-2.034,0.121c-0.4-0.499-0.139-1.366,0.586-1.934
			c0.725-0.568,1.634-0.62,2.034-0.121C10.943,24.943,10.682,25.81,9.957,26.378z M15.793,32.193
			c-1.089,0.149-2.069-0.419-2.185-1.274c-0.122-0.856,0.661-1.671,1.75-1.82s2.069,0.419,2.185,1.274
			C17.66,31.223,16.878,32.044,15.793,32.193z M19.625,22.889c-1.484,0.097-2.724-0.442-2.776-1.206
			c-0.052-0.763,1.107-1.469,2.59-1.567c1.484-0.098,2.725,0.442,2.777,1.211C22.268,22.091,21.108,22.79,19.625,22.889z
			 M27.617,28.049c-1.275,0.086-2.353-0.551-2.412-1.418c-0.058-0.867,0.928-1.642,2.197-1.722c1.275-0.085,2.353,0.551,2.412,1.418
			C29.877,27.193,28.892,27.963,27.617,28.049z M32.706,34.42c-0.476,0.597-1.462,0.62-2.196,0.046
			c-0.737-0.574-0.946-1.527-0.47-2.124c0.475-0.598,1.46-0.62,2.197-0.046C32.973,32.87,33.187,33.823,32.706,34.42z M33.806,19.88
			c-1.633,0-2.956-0.74-2.956-1.652c0-0.913,1.323-1.653,2.956-1.653c1.636,0,2.956,0.74,2.956,1.653
			C36.762,19.14,35.442,19.88,33.806,19.88z M46.036,33.324c-0.417,1.01-1.692,1.446-2.857,0.976
			c-1.164-0.471-1.769-1.665-1.356-2.675c0.418-1.01,1.692-1.446,2.857-0.976C45.839,31.114,46.448,32.313,46.036,33.324z
			 M45.056,26.039c-1.135,0.43-2.306,0.126-2.618-0.677c-0.313-0.804,0.36-1.803,1.495-2.233c1.136-0.431,2.307-0.126,2.62,0.677
			C46.86,24.61,46.193,25.609,45.056,26.039z M56.573,33.289c-0.365,0.528-1.165,0.614-1.785,0.195
			c-0.621-0.419-0.829-1.188-0.464-1.716c0.364-0.528,1.165-0.614,1.784-0.195C56.73,31.992,56.939,32.762,56.573,33.289z"/>
		<polygon fill="#FFFFFF" points="29.71,5.932 47.676,5.932 47.676,6.994 29.71,6.994 		"/>
		<polygon fill="#FFFFFF" points="29.71,3.808 47.676,3.808 47.676,4.87 29.71,4.87 		"/>
		<polygon fill="#FFFFFF" points="47.676,-1.732 47.676,-2.793 29.71,-2.793 29.71,2.688 47.676,2.688 47.676,1.626 37.504,1.626 
			37.504,0.45 47.676,0.45 47.676,-0.612 37.504,-0.612 37.504,-1.732 		"/>
	</g>
</g>
</svg>
