<?xml version="1.0" encoding="utf-8"?>
<!-- Generator: Adobe Illustrator 15.1.0, SVG Export Plug-In . SVG Version: 6.00 Build 0)  -->
<!DOCTYPE svg PUBLIC "-//W3C//DTD SVG 1.1//EN" "http://www.w3.org/Graphics/SVG/1.1/DTD/svg11.dtd">
<svg version="1.1" id="Layer_1" xmlns="http://www.w3.org/2000/svg" xmlns:xlink="http://www.w3.org/1999/xlink" x="0px" y="0px"
	 width="104px" height="103px" viewBox="0 0 104 103" enable-background="new 0 0 104 103" xml:space="preserve">
<g>
	
		<linearGradient id="SVGID_1_" gradientUnits="userSpaceOnUse" x1="-968.4292" y1="1072.1631" x2="-968.4292" y2="1071.0801" gradientTransform="matrix(95.522 0 0 -95.15 92558.3438 102016.2969)">
		<stop  offset="0" style="stop-color:#FFE800"/>
		<stop  offset="1" style="stop-color:#FFA400"/>
	</linearGradient>
	<ellipse fill="url(#SVGID_1_)" cx="52" cy="51.5" rx="52" ry="51.5"/>
	<path fill="#FFFFFF" d="M79.629,44.709c-1.107-2.996-2.795-5.976-5.17-8.857c-1.356-0.011-5.657,0.006-11.228,0.035
		c0.813-1.366,1.38-3.105,1.189-4.747c-0.395-3.364-4.539-4.907-6.822-7.072c-2.18-2.066-0.558-5.172,0.464-6.658
		c-1.798,0.636-6.381,2.497-5.918,8.656c0.324,4.334,7.314,5.614,6.643,9.844c-2.273,0.012-4.666,0.029-7.083,0.041
		c-0.022-0.282-0.041-0.557-0.052-0.833c-0.058-1.406-2.793-2.732-4.433-4.247c-1.681-1.55-0.725-3.674,0-4.73
		c-1.275,0.453-3.982,1.739-4,5.74c-0.006,1.946,1.171,2.049,3.083,4.098c-8.184,0.045-15.962,0.086-19.949,0.081
		C9.226,59.57,29.048,80.752,40.9,83.443c9.505,0.229,12.056,0.149,19.01,0c6.741-1.819,13.453-7.444,17.516-14.827
		c6.01,4.535,14.015-1.36,15.26-11.887C93.764,47.602,87.603,38.906,79.629,44.709z M86.861,55.523
		c-0.139,4.771-3.634,7.485-6.903,7.169c1.259-4.023,1.704-8.352,1.032-12.742C84.294,48.681,86.988,51.035,86.861,55.523z"/>
</g>
</svg>
