<?xml version="1.0" encoding="utf-8"?>
<!-- Generator: Adobe Illustrator 15.1.0, SVG Export Plug-In . SVG Version: 6.00 Build 0)  -->
<!DOCTYPE svg PUBLIC "-//W3C//DTD SVG 1.1//EN" "http://www.w3.org/Graphics/SVG/1.1/DTD/svg11.dtd">
<svg version="1.1" id="Layer_1" xmlns="http://www.w3.org/2000/svg" xmlns:xlink="http://www.w3.org/1999/xlink" x="0px" y="0px"
	 width="104px" height="103px" viewBox="0 0 104 103" enable-background="new 0 0 104 103" xml:space="preserve">
<g>
	
		<linearGradient id="SVGID_1_" gradientUnits="userSpaceOnUse" x1="-968.4292" y1="1072.1641" x2="-968.4292" y2="1071.0811" gradientTransform="matrix(95.522 0 0 -95.15 92558.3438 102016.3594)">
		<stop  offset="0" style="stop-color:#09D9F7"/>
		<stop  offset="1" style="stop-color:#026BE0"/>
	</linearGradient>
	<ellipse fill="url(#SVGID_1_)" cx="52" cy="51.5" rx="52" ry="51.5"/>
	<path fill="#FFFFFF" d="M92.52,59.474l-1.535,3.111c-1.791-10.637-8.035-33.558-30.33-41.06c-1.351,0.58-2.607,1.257-3.762,2.026
		c-2.018,1.349-3.779,3.025-5.239,4.988c-1.38,1.854-2.533,4.012-3.432,6.423c-0.84,2.262-1.484,4.816-1.913,7.583
		c-1.42,9.235-0.371,19.918,1.247,30.41c3.593,0.73,6.896,1.103,9.545,0.92c1.362-0.093,2.805-0.225,4.301-0.391
		c-5.604-13.547-3.142-32.507,7.407-33.482c8.996-0.827,19.775,11.142,19.334,27.822c1.287-0.447,2.43-0.907,3.392-1.354
		c-0.006-0.075-0.019-0.155-0.029-0.236l1.479-3.093l1.101,1.147l1.565-1.379L92.52,59.474z M44.419,42.265
		c0.446-2.898,1.119-5.574,2.006-7.956c0.961-2.583,2.202-4.902,3.692-6.894c1.594-2.135,3.512-3.961,5.708-5.431
		c0.527-0.355,1.079-0.688,1.647-1.004c-23.892-0.265-37.975,13.322-42.67,34.872l-1.75-3.555l-3.13,3.444l1.565,1.379l1.101-1.148
		l1.565,3.271c1.964,2.854,18.117,10.195,31.401,13.284C43.979,62.115,43,51.529,44.419,42.265z"/>
</g>
</svg>
