<?xml version="1.0" encoding="utf-8"?>
<!-- Generator: Adobe Illustrator 15.1.0, SVG Export Plug-In . SVG Version: 6.00 Build 0)  -->
<!DOCTYPE svg PUBLIC "-//W3C//DTD SVG 1.1//EN" "http://www.w3.org/Graphics/SVG/1.1/DTD/svg11.dtd">
<svg version="1.1" id="Layer_1" xmlns="http://www.w3.org/2000/svg" xmlns:xlink="http://www.w3.org/1999/xlink" x="0px" y="0px"
	 width="104px" height="103px" viewBox="0 0 104 103" enable-background="new 0 0 104 103" xml:space="preserve">
<g>
	
		<linearGradient id="SVGID_1_" gradientUnits="userSpaceOnUse" x1="-968.4292" y1="1072.1631" x2="-968.4292" y2="1071.0801" gradientTransform="matrix(95.522 0 0 -95.15 92558.3438 102016.2969)">
		<stop  offset="0" style="stop-color:#FF62A7"/>
		<stop  offset="1" style="stop-color:#FF334B"/>
	</linearGradient>
	<ellipse fill="url(#SVGID_1_)" cx="52" cy="51.5" rx="52" ry="51.5"/>
	<g transform="translate(17.301 16.65)">
		<path fill="#FFFFFF" d="M3.691,18.261l-4.909-0.419c0,0-9.111,32.511,18.239,51.391h3.246
			C20.267,69.233-0.018,49.602,3.691,18.261z"/>
		<path fill="#FFFFFF" d="M17.137,19.334l-5.101-0.419c0,0-4.108,30.842,13.041,50.054h5.043
			C30.12,68.969,16.163,54.01,17.137,19.334z"/>
		<path fill="#FFFFFF" d="M67.677,19.529l-48.534-0.006c0,0-2.237,31.342,13.684,49.48h19.202
			C52.028,69.003,73.125,51.445,67.677,19.529z M44.627,22.055l0.735-1.475l0.737,1.475l1.64,0.235l-1.188,1.148l0.278,1.619
			l-1.468-0.769l-1.465,0.763l0.277-1.619l-1.188-1.148L44.627,22.055z M42.333,45.05l0.463,0.04l2.057,4.861H42.35L42.333,45.05z
			 M44.587,34.057c0-0.747,0.608-1.349,1.362-1.349s1.361,0.603,1.361,1.349c0,0.746-0.607,1.349-1.361,1.349
			C45.201,35.407,44.587,34.804,44.587,34.057z M40.158,49.928c-0.777-0.01-1.507-0.022-2.191-0.045l1.773-4.833l0.581,0.04
			L40.158,49.928z M46.83,56.455l-1.468-0.77l-1.465,0.763l0.277-1.617l-1.188-1.148l1.641-0.235l0.735-1.477l0.737,1.477
			l1.64,0.235l-1.188,1.148L46.83,56.455z M46.969,49.969c-0.498-1.229-1.6-3.972-1.954-5.074c4.058,0.574,4.104-2.956,4.104-2.956
			s2.801,0.39,3.728,0.676c0.041,0.645,0.748,1.018,1.798,1.018c2.659,0,2.462-2.727,2.462-3.491c0-2.973-0.812-3.971-2.173-3.971
			c-2.098,0-2.377,1.147-2.318,1.377c-0.117,0.058-2.898,0.631-3.449,0.528c-0.168-0.166-0.116-0.552-0.238-0.999
			c0.796-0.77,1.288-1.837,1.288-3.019c0-2.331-1.906-4.219-4.261-4.219c-2.354,0-4.26,1.889-4.26,4.219
			c0,0.27,0.029,0.54,0.074,0.792c-0.445,0-0.863,0-1.257,0.005c0.052-0.258,0.075-0.527,0.075-0.797
			c0-2.331-1.907-4.219-4.26-4.219s-4.26,1.889-4.26,4.219c0,1.521,0.818,2.858,2.04,3.599c-1.454,8.001,3.373,7.295,3.373,7.295
			l-1.843,4.793c-6.63-0.579-7.952-2.852-7.952-11.738c0-10.677,4.057-11.021,17.619-11.021c11.593,0,16.809-1.148,16.809,12.055
			C62.113,51.147,56.201,50.153,46.969,49.969z M37.695,34.057c0,0.746-0.608,1.349-1.361,1.349c-0.755,0-1.362-0.603-1.362-1.349
			c0-0.747,0.607-1.349,1.362-1.349C37.087,32.708,37.695,33.311,37.695,34.057z M-0.83,15.62l18.083,1.608h51.815
			c0,0,0.481-1.297-1.392-1.608c-1.391-0.229-3.246,0.804-3.246,0.804s4.539-3.347,1.368-6.486
			c-3.609-3.576-7.627,1.665-7.627,1.665s2.201-4.897-0.423-6.659c-2.36-1.584-4.329,0.459-4.329,0.459s0.909-4.977-3.925-4.977
			c-4.312,0-5.042,4.707-5.042,4.707s0.191-5.585-2.706-5.929c-2.898-0.345-3.519,2.296-4.909,2.641
			c-1.392,0.344-1.351-3.33-5.101-3.33c-3.576,0-4.498,4.402-5.489,4.402c-1.507,0-0.348-5.7-5.396-5.7
			c-6.051,0-7.645,10.407-7.917,10.866c-0.412,0.694-0.87-3.714-5.199-2.755c-4.562,1.01-3.287,7.307-4,7.692
			c-0.492,0.264,0.522-0.155-1.797-0.155L-0.83,15.62z"/>
	</g>
</g>
</svg>
