<?xml version="1.0" encoding="utf-8"?>
<!-- Generator: Adobe Illustrator 15.1.0, SVG Export Plug-In . SVG Version: 6.00 Build 0)  -->
<!DOCTYPE svg PUBLIC "-//W3C//DTD SVG 1.1//EN" "http://www.w3.org/Graphics/SVG/1.1/DTD/svg11.dtd">
<svg version="1.1" id="Layer_1" xmlns="http://www.w3.org/2000/svg" xmlns:xlink="http://www.w3.org/1999/xlink" x="0px" y="0px"
	 width="104px" height="103px" viewBox="0 0 104 103" enable-background="new 0 0 104 103" xml:space="preserve">
<g>
	
		<linearGradient id="SVGID_1_" gradientUnits="userSpaceOnUse" x1="-968.4292" y1="1072.1631" x2="-968.4292" y2="1071.0801" gradientTransform="matrix(95.522 0 0 -95.15 92558.3438 102016.2969)">
		<stop  offset="0" style="stop-color:#FF62A7"/>
		<stop  offset="1" style="stop-color:#FF334B"/>
	</linearGradient>
	<ellipse fill="url(#SVGID_1_)" cx="52" cy="51.5" rx="52" ry="51.5"/>
	<g transform="translate(17.248 26.99)">
		<path fill="none" stroke="#FFFFFF" stroke-width="1.802" d="M43.857,38.045l0.667-39.671c0,0,16.575-0.378,11.445-0.258
			c-5.129,0.115,10.943,0.425,10.943,0.425s5.681,6.343,5.681,19.643c0,15.74-5.681,19.172-5.681,19.172L43.857,38.045z"/>
		<path fill="#FFFFFF" d="M63.331,13.971c-2.205,0.696-4.75-1.106-5.686-4.028c-0.934-2.922,0.098-5.855,2.302-6.553
			c2.205-0.697,4.751,1.106,5.686,4.027C66.568,10.34,65.536,13.274,63.331,13.971z"/>
		<path fill="#FFFFFF" d="M63.616,31.113c-2.737,0.629-5.614-1.688-6.423-5.174c-0.811-3.486,0.752-6.823,3.488-7.451
			c2.738-0.628,5.613,1.688,6.424,5.175C67.916,27.148,66.354,30.485,63.616,31.113z"/>
		<path fill="none" stroke="#FFFFFF" stroke-width="1.802" d="M26.052,38.045L25.385-1.626c0,0-16.576-0.378-11.447-0.258
			c5.13,0.115-10.942,0.425-10.942,0.425s-5.679,6.343-5.679,19.643c0,15.74,5.679,19.172,5.679,19.172L26.052,38.045z"/>
		<path fill="#FFFFFF" d="M9.952,3.389c2.205,0.698,3.236,3.632,2.302,6.554c-0.934,2.921-3.48,4.724-5.686,4.027
			c-2.205-0.697-3.236-3.631-2.302-6.553C5.201,4.495,7.747,2.692,9.952,3.389z"/>
		<path fill="#FFFFFF" d="M9.214,18.416c2.737,0.629,4.299,3.964,3.489,7.451c-0.81,3.486-3.686,5.803-6.423,5.174
			c-2.737-0.628-4.299-3.965-3.489-7.451C3.601,20.104,6.477,17.787,9.214,18.416z"/>
		<path fill="#FFFFFF" d="M42.419,19.022c-0.771-0.551-5.187-3.852-7.349-5.464c0.296-0.534,0.58-1.142,0.818-1.808
			c1.042-2.91-9.002-9.626-12.19-10.052c-6.508-0.436-8.577,5.706-7.517,8.61c1.107,3.979,12.142,9.041,13.62,8.783
			c0.574-0.104,0.853-0.206,1.125-0.436l5.679,4.196V56.03l3.769-0.345V25.434l7.65,4.993c0,0,1.681-1.262,2.144-2.066l0.985-2.124
			C51.153,26.237,43.486,19.929,42.419,19.022z"/>
	</g>
</g>
</svg>
