<?xml version="1.0" encoding="utf-8"?>
<!-- Generator: Adobe Illustrator 15.1.0, SVG Export Plug-In . SVG Version: 6.00 Build 0)  -->
<!DOCTYPE svg PUBLIC "-//W3C//DTD SVG 1.1//EN" "http://www.w3.org/Graphics/SVG/1.1/DTD/svg11.dtd">
<svg version="1.1" id="Layer_1" xmlns="http://www.w3.org/2000/svg" xmlns:xlink="http://www.w3.org/1999/xlink" x="0px" y="0px"
	 width="104px" height="103px" viewBox="0 0 104 103" enable-background="new 0 0 104 103" xml:space="preserve">
<g>
	
		<linearGradient id="SVGID_1_" gradientUnits="userSpaceOnUse" x1="-968.4292" y1="1072.1631" x2="-968.4292" y2="1071.0801" gradientTransform="matrix(95.522 0 0 -95.15 92558.3438 102016.2969)">
		<stop  offset="0" style="stop-color:#D4EB31"/>
		<stop  offset="1" style="stop-color:#5AB20C"/>
	</linearGradient>
	<ellipse fill="url(#SVGID_1_)" cx="52" cy="51.5" rx="52" ry="51.5"/>
	<g transform="translate(14 14.794)">
		<path fill="#FFFFFF" d="M-2.978,30.908c0,0,30.022,0.804,30.486,0c0.464-0.804,0.464-1.148,1.043-1.607s49.265,0.981,49.265,0.981
			s-0.348-7.64-5.68-10.854c-4.694-0.459-6.376,6.774-6.376,6.774L10.817,25.03c0,0-2.435-7.439-7.882-9.276
			C-1.877,19.887-2.978,30.908-2.978,30.908z"/>
		<path fill="none" stroke="#FFFFFF" stroke-width="1.802" d="M0.79,20.519c0,0,3.768-8.955,11.291-14.632
			c1.75,3.037,8.589,8.03,17.996,5.855c9.627-2.228,11.43-10.16,13.254-10.074c5.738,1.802,27.3,12.651,30.383,21.267"/>
		<path fill="#FFFFFF" d="M5.705,13.292c0,0,1.941,1.636,7.418,3.444c6.3,2.078,15.649,3.955,17.968,4.821
			c3.912,1.464,4.984,5.597,4.984,5.597h16.778c0,0,0.482-6.211-10.49-8.639c-10.375-2.295-20.373-1.349-27.414-3.674
			c-5.008-1.652-7.639-4.219-7.639-4.219L5.705,13.292z"/>
		<path fill="none" stroke="#FFFFFF" stroke-width="1.802" d="M41.378,2.012c0,0-4.666-4.391-7.448-4.907
			c-2.782-0.517-7.998,5.079-8.201,9.041c-0.227,4.385,1.565,6.154,1.565,6.154"/>
		<path fill="#FFFFFF" d="M47.203,4.079c0,0-3.182,4.827-2.893,6.113c0.098,0.43,1.599,0.889,2.893,0.803
			c1.367-1.039,4.04-5.459,4.04-5.459L47.203,4.079z M55.056,6.892c0,0-3.181,4.827-2.892,6.113
			c0.099,0.431,1.599,0.889,2.892,0.804c1.369-1.04,4.041-5.459,4.041-5.459L55.056,6.892z M62.637,11.271
			c0,0-2.759,4.189-2.51,5.303c0.081,0.374,1.391,0.775,2.51,0.701c1.188-0.901,3.2-4.248,3.2-4.248L62.637,11.271z M44.422,39.122
			c0,0-4.585-0.689-8.236-0.689c-3.652,0-8.457,0.689-8.457,0.689s-1.049,5.132-1.049,11.59s3.223,9.879,3.223,9.879
			s2.591,0.401,6.155,0.401s6.103-0.401,6.103-0.401s3.13-5.194,3.478-9.846C45.985,46.092,44.422,39.122,44.422,39.122z
			 M30.291,42.503c0,0,4.579-0.167,5.883-0.247c-0.394-0.022-0.47-0.04,0.012-0.04c0.48,0,0.394,0.018-0.012,0.04
			c1.246,0.08,5.709,0.247,5.709,0.247s0.23,2.641,0.23,4.621c0,1.979-0.23,4.62-0.23,4.62s-3.71,0.288-5.797,0.288
			c-2.086,0-5.795-0.288-5.795-0.288S30,49.46,30,47.325C30,45.189,30.291,42.503,30.291,42.503z M32.893,58.318l-1.68-1.092v1.092
			l-1.763-1.144l1.763-1.143v1.091l1.68-1.091V58.318z M35.217,58.776v-3.388l2.608,1.694L35.217,58.776z M40.983,58.318v-1.092
			l-1.681,1.092v-2.286l1.681,1.091v-1.091l1.763,1.143L40.983,58.318z"/>
		<path fill="none" stroke="#FFFFFF" stroke-width="1.802" d="M43.465,55.878c0,0,4.77-1.321,4.896,0.977
			c0.499,8.873-2.672,15.669,3.42,15.669c5.333,0,16.809-6.975,23.444-22.386"/>
		<path fill="none" stroke="#FFFFFF" stroke-width="1.802" d="M1.851,51.773c3.709,7.663,16.576,24.194,30.833,23.534
			c11.834-0.551,13.458-2.514,15.371-9.574"/>
		<path fill="#FFFFFF" d="M74.513,50.596c0,0-0.075-0.046-0.58-0.573c-0.435-0.459,1.102-4.019,0.928-5.74
			c-0.231-0.43-2.26,1.521-4.637,0.287c-2.59-1.343-2.84-8.553,1.275-9.069c2.695-0.339,4.229,1.809,5.244,4.765
			c0.256,0.734,0.679,1.359,0.778,1.894c0.347,1.951,0.005,8.306-0.922,8.461C75.672,50.769,74.513,50.596,74.513,50.596z
			 M3.821,53.783c0,0,0.07-0.059,0.493-0.714c0.366-0.562-1.941-3.994-2.098-5.83c0.157-0.494,2.667,1.158,4.91-0.592
			c2.446-1.905,1.298-9.5-3.113-9.247c-2.892,0.166-4.074,2.709-4.556,5.998c-0.122,0.821-0.446,1.556-0.44,2.13
			c0.017,2.112,1.622,8.701,2.62,8.68C2.645,54.185,3.821,53.783,3.821,53.783z"/>
	</g>
</g>
</svg>
