<?xml version="1.0" encoding="utf-8"?>
<!-- Generator: Adobe Illustrator 15.1.0, SVG Export Plug-In . SVG Version: 6.00 Build 0)  -->
<!DOCTYPE svg PUBLIC "-//W3C//DTD SVG 1.1//EN" "http://www.w3.org/Graphics/SVG/1.1/DTD/svg11.dtd">
<svg version="1.1" id="Layer_1" xmlns="http://www.w3.org/2000/svg" xmlns:xlink="http://www.w3.org/1999/xlink" x="0px" y="0px"
	 width="104px" height="103px" viewBox="0 0 104 103" enable-background="new 0 0 104 103" xml:space="preserve">
<g>
	
		<linearGradient id="SVGID_1_" gradientUnits="userSpaceOnUse" x1="-968.4292" y1="1072.1631" x2="-968.4292" y2="1071.0801" gradientTransform="matrix(95.522 0 0 -95.15 92558.3438 102016.2969)">
		<stop  offset="0" style="stop-color:#FFE800"/>
		<stop  offset="1" style="stop-color:#FFA400"/>
	</linearGradient>
	<ellipse fill="url(#SVGID_1_)" cx="52" cy="51.5" rx="52" ry="51.5"/>
	<g transform="translate(21.72 14.847)">
		<path fill="#FFFFFF" d="M27.064,21.756l-10.624,4.96c-0.168,3.397-0.881,8.708-1.635,8.708H7.903c-0.452,0-0.887-1.906-1.2-4.168
			l-7.691,3.588c0,0,7.952,5.884,9.737,6.888c2.608,0,19.115-9.987,19.115-9.987L27.064,21.756z M31.12,55.048
			c1.507,3.217,1.275,19.747,1.275,22.043c1.622,0.573,19.706-0.688,31.646-17.335c1.391-6.659,1.737-26.061,0-25.831
			C61.491,37.255,31.12,55.048,31.12,55.048z M29.266,55.56c-1.537-0.086-8.549-4.311-15.528-8.742
			c0.22,2.744,0.638,9.081-0.186,9.035c-1.049-0.058-0.284-1.895-1.327-1.895c-1.044,0-0.406,1.608-0.985,1.602
			c-0.58-0.006-0.116-2.29-0.521-2.228c-0.406,0.064-0.898,1.832-1.507,1.89c-0.493,0.046,0.348-3.043,0.058-3.1
			c-0.29-0.058-1.049,2.72-1.623,2.64c-0.377-0.052-0.505-8.255,0-11.864C2.362,39.455-1.8,36.652-1.8,36.652
			s-1.507,19.544,0.812,25.86C8.633,75.599,26.948,77.665,30.28,77.194C30.28,73.533,31.12,59.641,29.266,55.56z M63.345,31.745
			c-1.854-1.033-13.33-6.773-13.33-6.773l-8.531,5.155l-0.672,1.681l-3.861,1.057l-8.323,5.028
			c-0.087,2.876-0.742,8.162-1.443,8.162h-5.993c-0.354,0-0.701-1.365-0.962-3.082l-5.1,3.082c0,0,13.041,7.503,15.156,7.273
			C32.402,53.097,65.2,32.778,63.345,31.745z"/>
		<polygon fill="#FFFFFF" points="42.01,23.714 44.8,22.509 41.669,21.131 		"/>
		<path fill="none" stroke="#FFFFFF" stroke-width="1.802" d="M41.118,16.28c-0.638-4.098-4.23-10.332-4.665-14.12
			s1.217-2.038,1.217-3.674c0-1.309-2.353-1.406-3.176-1.389c-0.822-0.011-3.177,0.081-3.177,1.389c0,1.636,1.652-0.114,1.218,3.674
			c-0.436,3.789-3.443,10.022-4.086,14.12c-0.684,4.392-1.634,16.13,0.041,16.475c1.623,0.333,6.301,0.023,6.585,0
			c0.249,0.017,4.388,0.333,6.004,0C42.747,32.411,41.802,20.672,41.118,16.28z M28.548,36.188c-0.377-1.04-0.458-0.758-4.359-0.746
			c-3.901-0.006-3.982-0.293-4.359,0.746c-0.376,1.044,0.453,9.874,1.362,9.874h5.993C28.09,46.054,28.924,37.232,28.548,36.188z
			 M16.37,24.059c-0.428-1.194-0.521-0.873-5.013-0.861c-4.492-0.006-4.584-0.333-5.013,0.861
			c-0.435,1.206,0.521,11.366,1.565,11.366h6.902C15.848,35.424,16.805,25.264,16.37,24.059z"/>
		<path fill="#FFFFFF" d="M16.578-2.232c0,0-0.046,0.052-0.15,0.155c-0.099,0.098-0.25,0.247-0.458,0.425
			c-0.406,0.362-1.032,0.855-1.826,1.47c-0.196,0.155-0.406,0.315-0.62,0.482c-0.214,0.166-0.441,0.344-0.667,0.534
			c-0.226,0.189-0.463,0.384-0.695,0.597c-0.231,0.213-0.463,0.431-0.684,0.667c-0.214,0.235-0.423,0.487-0.585,0.746
			c-0.162,0.258-0.272,0.528-0.301,0.758c-0.022,0.23,0.023,0.419,0.163,0.637c0.069,0.108,0.162,0.218,0.278,0.327
			c0.028,0.029,0.058,0.058,0.086,0.08l0.023,0.023L11.16,4.68l0.029,0.023l0.005,0.005H11.2l0.029,0.017l0.035,0.023
			c0.022,0.018,0.052,0.028,0.081,0.046c0.116,0.057,0.261,0.109,0.423,0.149c0.163,0.041,0.342,0.069,0.533,0.092
			c0.376,0.04,0.794,0.04,1.217,0.011c0.423-0.023,0.863-0.075,1.31-0.149c0.446-0.069,0.898-0.161,1.356-0.264
			c0.458-0.104,0.916-0.229,1.368-0.368c0.226-0.068,0.452-0.149,0.678-0.229c0.227-0.081,0.44-0.167,0.655-0.265
			c0.208-0.091,0.412-0.201,0.58-0.31c0.086-0.057,0.162-0.108,0.214-0.16c0.058-0.046,0.087-0.092,0.087-0.069
			c0,0.011,0,0.045,0.006,0.081c0.011,0.04,0.028,0.074,0.041,0.08L19.819,3.4l0.011,0.017l-0.029-0.04l-0.04-0.051
			c-0.006-0.011-0.023-0.029-0.035-0.046l-0.041-0.045c-0.115-0.121-0.267-0.218-0.452-0.287c-0.377-0.138-0.87-0.155-1.362-0.081
			c-0.25,0.035-0.499,0.092-0.748,0.167c-0.25,0.074-0.498,0.161-0.742,0.258c-0.986,0.401-1.918,0.999-2.742,1.722
			c-0.411,0.361-0.794,0.763-1.142,1.188c-0.342,0.431-0.649,0.89-0.881,1.372c-0.116,0.241-0.22,0.494-0.296,0.747
			c-0.076,0.252-0.133,0.51-0.156,0.769c-0.052,0.517,0.017,1.021,0.214,1.476c0.098,0.223,0.226,0.436,0.376,0.631
			c0.075,0.098,0.157,0.189,0.244,0.281l0.063,0.069l0.063,0.063c0.053,0.046,0.11,0.098,0.151,0.138l0.145,0.121
			c0.053,0.04,0.104,0.08,0.157,0.114c0.104,0.075,0.208,0.144,0.318,0.207c0.215,0.132,0.441,0.241,0.673,0.333
			c0.927,0.361,1.953,0.396,2.944,0.229c0.997-0.166,1.977-0.522,2.875-0.998c0.447-0.242,0.881-0.505,1.281-0.798
			c0.4-0.293,0.777-0.608,1.096-0.941c0.162-0.167,0.307-0.333,0.429-0.5s0.22-0.333,0.267-0.454
			c0.023-0.057,0.035-0.103,0.029-0.115v0.023c0,0.012,0,0.023,0.006,0.035l0.005,0.022c0,0.006,0,0.012,0.006,0.012l0.012,0.029
			l-0.035-0.086l-0.012-0.017l-0.018-0.035c-0.006-0.011-0.011-0.023-0.017-0.028c-0.023-0.041-0.047-0.063-0.063-0.081
			c-0.018-0.017-0.042-0.028-0.064-0.045c-0.023-0.012-0.058-0.023-0.105-0.035c-0.092-0.023-0.232-0.029-0.4-0.006
			c-0.162,0.023-0.347,0.063-0.533,0.126c-0.186,0.063-0.377,0.138-0.568,0.23c-0.376,0.178-0.753,0.401-1.107,0.648
			c-0.354,0.241-0.689,0.511-1.003,0.792c-0.313,0.281-0.608,0.58-0.875,0.884c-0.266,0.304-0.51,0.62-0.718,0.936
			c-0.208,0.321-0.383,0.637-0.516,0.958s-0.22,0.631-0.255,0.93c-0.07,0.596,0.087,1.108,0.44,1.521
			c0.174,0.213,0.388,0.39,0.626,0.551l0.203,0.138l0.191,0.121c0.122,0.08,0.249,0.154,0.371,0.229
			c0.499,0.287,0.979,0.522,1.425,0.695c0.893,0.35,1.658,0.458,2.174,0.476c0.261,0.011,0.458-0.006,0.591-0.023
			c0.069-0.006,0.116-0.017,0.15-0.023c0.029-0.005,0.046-0.011,0.046-0.011l0.07,0.184c0,0-0.018,0.005-0.052,0.022
			c-0.035,0.018-0.087,0.035-0.156,0.064c-0.14,0.045-0.342,0.108-0.62,0.16c-0.279,0.052-0.626,0.086-1.032,0.081
			c-0.203,0-0.423-0.012-0.661-0.04c-0.116-0.012-0.237-0.029-0.359-0.046c-0.122-0.023-0.25-0.04-0.377-0.068
			c-0.261-0.052-0.527-0.121-0.805-0.208c-0.279-0.086-0.569-0.189-0.864-0.304c-0.145-0.063-0.295-0.121-0.446-0.195
			c-0.076-0.035-0.157-0.069-0.232-0.109c-0.069-0.035-0.145-0.069-0.221-0.109c-0.325-0.167-0.667-0.379-0.979-0.672
			c-0.307-0.292-0.591-0.666-0.776-1.102c-0.192-0.437-0.272-0.924-0.266-1.406c0.005-0.241,0.028-0.476,0.063-0.712
			c0.041-0.235,0.099-0.465,0.169-0.688c0.144-0.454,0.335-0.885,0.562-1.304c0.232-0.419,0.493-0.82,0.788-1.205
			c0.296-0.385,0.62-0.757,0.979-1.114c0.354-0.355,0.742-0.694,1.16-1.016c0.417-0.315,0.869-0.614,1.374-0.872
			c0.249-0.127,0.516-0.248,0.805-0.351c0.284-0.103,0.591-0.189,0.927-0.236c0.337-0.045,0.713-0.063,1.125,0.018
			c0.203,0.04,0.417,0.109,0.62,0.212c0.204,0.104,0.4,0.236,0.568,0.396c0.168,0.155,0.308,0.338,0.423,0.522l0.082,0.138
			l0.069,0.138l0.069,0.161l0.035,0.092c0-0.005,0.029,0.081,0.023,0.075l0.017,0.058l0.03,0.121
			c0.017,0.081,0.022,0.155,0.028,0.229c0.011,0.15,0,0.287-0.017,0.408c-0.035,0.252-0.105,0.453-0.186,0.637
			c-0.082,0.184-0.168,0.338-0.261,0.488c-0.092,0.149-0.191,0.281-0.29,0.407c-0.203,0.253-0.417,0.482-0.637,0.689
			c-0.447,0.419-0.922,0.781-1.414,1.108c-0.499,0.327-1.02,0.614-1.559,0.867c-0.545,0.252-1.107,0.464-1.693,0.637
			c-0.29,0.086-0.591,0.161-0.892,0.218c-0.302,0.063-0.608,0.104-0.921,0.132c-0.313,0.029-0.626,0.04-0.945,0.029
			c-0.319-0.011-0.637-0.04-0.951-0.097c-0.631-0.109-1.258-0.321-1.825-0.631c-0.285-0.156-0.557-0.333-0.806-0.534
			c-0.127-0.098-0.243-0.207-0.359-0.311c-0.058-0.051-0.116-0.108-0.168-0.167l-0.162-0.172c-0.058-0.063-0.099-0.115-0.151-0.172
			l-0.081-0.098l-0.076-0.092c-0.098-0.125-0.191-0.258-0.278-0.396c-0.168-0.275-0.307-0.574-0.406-0.878
			c-0.197-0.62-0.221-1.28-0.11-1.889c0.053-0.304,0.139-0.603,0.244-0.884c0.052-0.144,0.111-0.281,0.174-0.418
			c0.063-0.138,0.127-0.271,0.197-0.402c0.284-0.522,0.626-1.004,0.997-1.452c0.371-0.448,0.782-0.861,1.206-1.252
			c0.429-0.384,0.875-0.747,1.344-1.079c0.47-0.327,0.956-0.632,1.473-0.896c0.51-0.264,1.049-0.487,1.623-0.643
			c0.29-0.075,0.585-0.132,0.893-0.161c0.307-0.022,0.637-0.017,0.968,0.058c0.33,0.075,0.672,0.219,0.962,0.442l0.104,0.086
			c0.035,0.034,0.064,0.057,0.104,0.097l0.052,0.058l0.041,0.041l0.035,0.034l0.041,0.057c0.012,0.018,0.023,0.029,0.029,0.046
			c0.081,0.12,0.15,0.281,0.173,0.447c0.012,0.086,0.012,0.167,0.006,0.247c-0.006,0.08-0.023,0.155-0.041,0.224
			c-0.04,0.138-0.092,0.247-0.15,0.345s-0.116,0.178-0.18,0.247c-0.122,0.143-0.243,0.258-0.371,0.361
			c-0.25,0.207-0.493,0.367-0.742,0.517c-0.492,0.287-0.99,0.517-1.489,0.712c-0.499,0.195-1.002,0.355-1.501,0.494
			c-1.002,0.27-2.005,0.43-3.008,0.47c-0.505,0.018-1.009,0.006-1.519-0.068c-0.255-0.035-0.51-0.086-0.771-0.167
			c-0.261-0.074-0.522-0.178-0.783-0.327L10.32,6.12l-0.093-0.069L10.18,6.018c-0.017-0.012-0.035-0.03-0.052-0.046l-0.052-0.046
			l-0.028-0.029l-0.012-0.011l-0.029-0.029L9.972,5.823C9.925,5.776,9.879,5.731,9.839,5.679C9.665,5.484,9.497,5.271,9.364,5.024
			C9.224,4.777,9.125,4.496,9.079,4.21C9.033,3.917,9.044,3.624,9.096,3.354C9.149,3.084,9.241,2.843,9.351,2.63
			c0.11-0.212,0.238-0.402,0.371-0.573c0.266-0.345,0.551-0.626,0.829-0.873c0.568-0.494,1.131-0.867,1.658-1.2
			c0.261-0.16,0.516-0.31,0.759-0.453c0.243-0.138,0.475-0.27,0.701-0.391c0.887-0.482,1.589-0.837,2.052-1.102
			c0.231-0.132,0.411-0.236,0.527-0.304l0.18-0.109L16.578-2.232z"/>
	</g>
</g>
</svg>
