<?xml version="1.0" encoding="utf-8"?>
<!-- Generator: Adobe Illustrator 15.1.0, SVG Export Plug-In . SVG Version: 6.00 Build 0)  -->
<!DOCTYPE svg PUBLIC "-//W3C//DTD SVG 1.1//EN" "http://www.w3.org/Graphics/SVG/1.1/DTD/svg11.dtd">
<svg version="1.1" id="Layer_1" xmlns="http://www.w3.org/2000/svg" xmlns:xlink="http://www.w3.org/1999/xlink" x="0px" y="0px"
	 width="104px" height="103px" viewBox="0 0 104 103" enable-background="new 0 0 104 103" xml:space="preserve">
<g>
	
		<linearGradient id="SVGID_1_" gradientUnits="userSpaceOnUse" x1="-968.4297" y1="1072.1631" x2="-968.4297" y2="1071.0801" gradientTransform="matrix(95.522 0 0 -95.15 92558.3438 102016.2969)">
		<stop  offset="0" style="stop-color:#D4EB31"/>
		<stop  offset="1" style="stop-color:#5AB20C"/>
	</linearGradient>
	<ellipse fill="url(#SVGID_1_)" cx="51.993" cy="51.5" rx="52.007" ry="51.5"/>
	<path fill="#FFFFFF" d="M80.228,61.438c-4.145-1.27-14.503,3.805-20.072,5.176c-0.349-2.818-1.185-6.217-1.185-8.529
		c0-0.644,0.203-1.797,0.482-3.277c2.516-0.047,8.643-1.04,13.993-8.869c5.292-7.743,6.827-25.049,0.022-30.658
		c-6.474-5.338-20.618-4.403-30.223,3.938c-8.73,7.577-15.558,16.956-20.555,16.302c-2.979-3.386,13.28-15.498,18.781-17.392
		c1.716-3.789-0.812-8.61-0.812-8.61C27.71,13.133,14.344,32.592,15.387,36.15c1.977,3.502,4.15,7.894,4.638,10.074
		c5.86-1.923,15.535-7.204,17.273-11.107C67.186,7.88,76.46,28.086,75.034,33.854C72.316,44.87,63.957,46.782,60.786,47.108
		c0.603-4.471,0.824-9.396-0.487-13.139c-2.782-7.921-12.99-4.982-15.824-2.238c-1.728,1.676-4.742,6.573-6.563,14.557
		c-10.92-0.172-23.418,9.281-25.423,14.665c2.086,1.953,6.44,5.568,5.304,9.759c0.157,3.375,13.917,5.792,20.126,6.711
		c1.287,7.267,3.426,9.804,3.426,9.804c3.496,1.849,12.3,0,12.579-0.345c1.762-2.181,4.221-8.851,5.507-13.644
		c3.994-1.304,12.149-4.174,16.567-3.158c0,1.78-3.339,3.158-5.189,4.048c-0.08,1.773,1.965,8.294,1.855,10.044
		c1.044,0.173,11.739-9.558,11.651-11.881C84.228,69.966,85.011,62.9,80.228,61.438z M47.013,33.625
		c4.498-3.1,8.602-1.952,10.226,1.263c1.622,3.215-2.436,26.635-4.754,29.046c-2.318,2.41-7.374,1.526-10.086,0
		C37.993,56.24,42.515,36.725,47.013,33.625z M36.753,53.302c-0.504,4.753-0.556,10.258,0.14,16.486
		c-3.229-0.356-12.109-1.62-17.101-5.166C23.293,55.902,32.678,53.808,36.753,53.302z M49.657,72.078
		c-0.371,0.471-0.951,0.775-1.6,0.775c-0.69,0-1.299-0.344-1.663-0.861c-2.748,1.12-6.783-0.638-6.783-1.895
		c0-1.304,2.823-3.713,4.48-2.91c1.107,0.534,1.885,1.762,2.284,2.525c0.365-0.533,0.979-0.878,1.681-0.878
		c0.591,0,1.125,0.253,1.496,0.649c0.429-0.765,1.159-1.814,2.156-2.297c1.665-0.803,4.481,1.606,4.481,2.91
		C56.194,71.314,52.392,73.002,49.657,72.078z"/>
</g>
</svg>
