<?xml version="1.0" encoding="utf-8"?>
<!-- Generator: Adobe Illustrator 15.1.0, SVG Export Plug-In . SVG Version: 6.00 Build 0)  -->
<!DOCTYPE svg PUBLIC "-//W3C//DTD SVG 1.1//EN" "http://www.w3.org/Graphics/SVG/1.1/DTD/svg11.dtd">
<svg version="1.1" id="Layer_1" xmlns="http://www.w3.org/2000/svg" xmlns:xlink="http://www.w3.org/1999/xlink" x="0px" y="0px"
	 width="104px" height="103px" viewBox="0 0 104 103" enable-background="new 0 0 104 103" xml:space="preserve">
<g>
	
		<linearGradient id="SVGID_1_" gradientUnits="userSpaceOnUse" x1="-968.4292" y1="1072.1631" x2="-968.4292" y2="1071.0801" gradientTransform="matrix(95.522 0 0 -95.15 92558.3438 102016.2969)">
		<stop  offset="0" style="stop-color:#D4EB31"/>
		<stop  offset="1" style="stop-color:#5AB20C"/>
	</linearGradient>
	<ellipse fill="url(#SVGID_1_)" cx="52" cy="51.5" rx="52" ry="51.5"/>
	<path fill="#FFFFFF" d="M82.162,73.238C98.304,55.356,86.456,15.716,52,15.716c-34.456,0-45.41,35.847-32.515,56.655
		c-0.759,0.981-1.443-0.545-2.654,0.459c-0.452,0.372-0.835,1.711,0.406,2.36c1.061,0.556,9.227,1.429,13.331,0.631
		c-13.429-21.876-1.982-45.009,21.375-45.009c23.358,0,30.804,26.347,19.532,45.64c2.116,1.688,9.616,1.51,12.838,0.229
		c1.095-0.437,1.478-1.683,0.626-3.386C84.224,71.854,81.309,74.185,82.162,73.238z M17.607,50.088c0-1.452,1.188-2.623,2.648-2.623
		c1.461,0,2.649,1.176,2.649,2.623s-1.188,2.623-2.649,2.623C18.795,52.711,17.607,51.535,17.607,50.088z M21.508,65.483
		c-1.368,0-2.475-1.097-2.475-2.451s1.106-2.451,2.475-2.451c1.368,0,2.474,1.097,2.474,2.451S22.875,65.483,21.508,65.483z
		 M27.205,37.931c-1.622,0-2.932-1.304-2.932-2.905c0-1.602,1.315-2.904,2.932-2.904c1.618,0,2.933,1.303,2.933,2.904
		C30.138,36.627,28.828,37.931,27.205,37.931z M43.566,29.24c-2.028,0-3.674-1.63-3.674-3.639c0-2.009,1.646-3.639,3.674-3.639
		c2.029,0,3.675,1.63,3.675,3.639C47.235,27.615,45.595,29.24,43.566,29.24z M65.898,30.623c-1.999,0-3.617-1.602-3.617-3.582
		c0-1.98,1.618-3.582,3.617-3.582c1.998,0,3.617,1.602,3.617,3.582C69.516,29.021,67.892,30.623,65.898,30.623z M86.676,55.053
		c0,1.452-1.188,2.623-2.648,2.623s-2.648-1.176-2.648-2.623c0-1.446,1.188-2.623,2.648-2.623S86.676,53.602,86.676,55.053z
		 M80.73,39.182c1.622,0,2.932,1.303,2.932,2.904s-1.315,2.904-2.932,2.904c-1.619,0-2.934-1.303-2.934-2.904
		S79.111,39.182,80.73,39.182z M78.256,66.104c0-1.355,1.106-2.452,2.475-2.452c1.367,0,2.474,1.097,2.474,2.452
		c0,1.354-1.106,2.45-2.474,2.45C79.362,68.554,78.256,67.458,78.256,66.104z"/>
</g>
</svg>
