<?xml version="1.0" encoding="utf-8"?>
<!-- Generator: Adobe Illustrator 15.1.0, SVG Export Plug-In . SVG Version: 6.00 Build 0)  -->
<!DOCTYPE svg PUBLIC "-//W3C//DTD SVG 1.1//EN" "http://www.w3.org/Graphics/SVG/1.1/DTD/svg11.dtd">
<svg version="1.1" id="Layer_1" xmlns="http://www.w3.org/2000/svg" xmlns:xlink="http://www.w3.org/1999/xlink" x="0px" y="0px"
	 width="104px" height="103px" viewBox="0 0 104 103" enable-background="new 0 0 104 103" xml:space="preserve">
<g>
	
		<linearGradient id="SVGID_1_" gradientUnits="userSpaceOnUse" x1="-968.4292" y1="1072.1631" x2="-968.4292" y2="1071.0801" gradientTransform="matrix(95.522 0 0 -95.15 92558.3438 102016.2969)">
		<stop  offset="0" style="stop-color:#D4EB31"/>
		<stop  offset="1" style="stop-color:#5AB20C"/>
	</linearGradient>
	<ellipse fill="url(#SVGID_1_)" cx="52" cy="51.5" rx="52" ry="51.5"/>
	<path fill="#FFFFFF" d="M36.85,51.792c1.251-0.66,9.232-7.921,9.232-8.696v-0.775c1.402-1.424,2.788-3.209,3.385-5.167
		c13.545,8.088,31.169,12.49,43.598,2.669C90.281,24.9,62.345-1.734,29.772,17.093c0.614,2.215,2.156,4.793,4.399,7.468
		c2.62-4.914,6.544-8.094,8.815-9.931l0.099-0.08l0.116-0.058c0.632-0.315,1.431-0.476,2.371-0.476c1.686,0,3.772,0.51,5.871,1.434
		c2.196,0.971,4.207,2.319,5.661,3.807c2.175,2.222,2.905,6.446,1.629,9.425c-0.428,0.999-1.048,1.797-1.848,2.366
		c-0.887,0.631-1.947,0.953-3.153,0.953l-0.174,0.229c-0.991,0-4.219-0.855-5.865-1.441c0.122-0.487,0.226-0.999,0.319-1.543
		l0.267-1.642l1.472,0.798c1.536,0.827,2.875,1.246,3.982,1.246c1.333,0,2.277-0.632,2.812-1.883
		c0.428-1.005,0.551-2.343,0.323-3.668c-0.226-1.309-0.759-2.474-1.466-3.203c-2.729-2.79-7.227-4.523-9.824-4.523
		c-0.486,0-0.91,0.063-1.2,0.178c-3.408,2.767-7.175,6.171-9.198,11.521c-0.087,2.038,0.759,4.156,2.335,5.833
		c1.444,1.527,3.298,2.44,4.968,2.44c0.631,0,1.222-0.127,1.768-0.379c-0.655,1.223-1.171,2.387-1.67,2.732
		c-0.028,0.034-0.052,0.069-0.081,0.098c-0.028-0.04-0.064-0.069-0.099-0.098c-0.226,0-0.458-0.017-0.684-0.041
		c-1.588,0.522-4.898,4.219-9.151,8.444c-0.11,0.108-0.244,0.706,0.231,0.895c0.476,0.189-2.753,1.67-4.475,0
		c-5.384-4.724-0.324-12.376,5.478-15.354c-0.748-1.556-1.096-3.238-0.985-4.891l0.011-0.166l0.058-0.156
		c0.087-0.241,0.186-0.482,0.278-0.717c-4.828,1.797-8.763,6.153-10.925,9.678c-3.732,6.085-2.544,13.863,4.973,17.192
		c0.255,3.397,1.212,6.968,2.249,9.78c-5.53,3.451-5.303,9.903-1.026,18.024c3.205,6.079,13.986,15.643,22.621,9.54
		c6.822-4.821,5.917-10.552,2.395-14.195c0,0,0.017-0.115-0.041-0.402c-0.146-0.763-7.911-8.063-9.141-8.725
		c-0.417-0.223-0.562-0.022-0.857-0.04c-0.423-0.253-3.709-6.389-9.43-5.969c-0.91-2.618-1.843-5.333-2.371-7.262
		c2.324-0.512,4.179-2.102,4.533-2.309C36.455,52.005,36.426,52.017,36.85,51.792z M49.125,23.315
		c0.336-0.826,1.564-1.119,2.747-0.655c1.183,0.472,1.868,1.522,1.531,2.349c-0.337,0.826-1.565,1.12-2.748,0.654
		C49.473,25.199,48.794,24.148,49.125,23.315z M42.251,25.193c2.075,0,3.779,1.71,3.941,3.88c-2.365-1.849-4.324-2.509-6.491-2.882
		C40.391,25.566,41.283,25.193,42.251,25.193z M42.251,33.625c-1.559,0-2.909-0.965-3.552-2.365
		c2.381,0.379,3.436,1.396,4.056,2.331C42.593,33.613,42.425,33.625,42.251,33.625z M44.297,70.66c0.678,0,1.229,0.557,1.229,1.246
		c0,0.688-0.55,1.245-1.229,1.245c-0.678,0-1.229-0.557-1.229-1.245C43.074,71.217,43.619,70.66,44.297,70.66z M32.149,68.583
		c1.496,1.458,3.913,2.445,4.254,1.118c0.051-0.194-0.018-0.637-0.174-1.256c2.173,0.838,4.074,2.451,3.785,2.57
		c-0.463,0.19-0.069,0.885,0.041,0.993c5.094,5.183,8.693,9.518,9.638,8.306c0.684,0.851,1.2,2.979,0.098,4.231
		C43.827,93.134,25.762,75.517,32.149,68.583z M35.157,47.993c0-0.683,0.562-1.24,1.251-1.24c0.69,0,1.252,0.557,1.252,1.24
		s-0.563,1.24-1.252,1.24C35.713,49.233,35.157,48.676,35.157,47.993z"/>
</g>
</svg>
