<?xml version="1.0" encoding="utf-8"?>
<!-- Generator: Adobe Illustrator 15.1.0, SVG Export Plug-In . SVG Version: 6.00 Build 0)  -->
<!DOCTYPE svg PUBLIC "-//W3C//DTD SVG 1.1//EN" "http://www.w3.org/Graphics/SVG/1.1/DTD/svg11.dtd">
<svg version="1.1" id="Layer_1" xmlns="http://www.w3.org/2000/svg" xmlns:xlink="http://www.w3.org/1999/xlink" x="0px" y="0px"
	 width="104px" height="103px" viewBox="0 0 104 103" enable-background="new 0 0 104 103" xml:space="preserve">
<g>
	
		<linearGradient id="SVGID_1_" gradientUnits="userSpaceOnUse" x1="-968.4292" y1="1072.1631" x2="-968.4292" y2="1071.0801" gradientTransform="matrix(95.522 0 0 -95.15 92558.3438 102016.2969)">
		<stop  offset="0" style="stop-color:#FF62A7"/>
		<stop  offset="1" style="stop-color:#FF334B"/>
	</linearGradient>
	<ellipse fill="url(#SVGID_1_)" cx="52" cy="51.5" rx="52" ry="51.5"/>
	<path fill="#FFFFFF" d="M90.541,47.999c-0.063-5.642-1.425-10.7-1.425-10.7H75.472V18.609l-1.854-1.264v19.953H59.013v6.796h-9.042
		V10.917l-1.738,0.574v32.604h-5.518V30.228H31.077V18.149l-2.145,1.723v10.355h-7.755V53.05h15v27.438
		c0,0,5.101,4.362,16.809,4.134c11.707-0.229,14.257-2.756,14.257-2.756V57.642h21.561C88.803,57.642,90.617,54.429,90.541,47.999z
		 M24.122,50.065V33.533h15.649v10.562h-3.594v5.97H24.122z M62.722,80.028H40.35V53.05v-4.822h2.365h16.298h3.709v9.414V80.028z
		 M85.441,54.197H67.242V44.095h-3.593v-2.99h21.792V54.197z"/>
</g>
</svg>
