<?xml version="1.0" encoding="utf-8"?>
<!-- Generator: Adobe Illustrator 15.1.0, SVG Export Plug-In . SVG Version: 6.00 Build 0)  -->
<!DOCTYPE svg PUBLIC "-//W3C//DTD SVG 1.1//EN" "http://www.w3.org/Graphics/SVG/1.1/DTD/svg11.dtd">
<svg version="1.1" id="Layer_1" xmlns="http://www.w3.org/2000/svg" xmlns:xlink="http://www.w3.org/1999/xlink" x="0px" y="0px"
	 width="104px" height="103px" viewBox="0 0 104 103" enable-background="new 0 0 104 103" xml:space="preserve">
<g>
	
		<linearGradient id="SVGID_1_" gradientUnits="userSpaceOnUse" x1="-968.4292" y1="1072.1631" x2="-968.4292" y2="1071.0801" gradientTransform="matrix(95.522 0 0 -95.15 92558.3438 102016.2969)">
		<stop  offset="0" style="stop-color:#FF62A7"/>
		<stop  offset="1" style="stop-color:#FF334B"/>
	</linearGradient>
	<ellipse fill="url(#SVGID_1_)" cx="52" cy="51.5" rx="52" ry="51.5"/>
	<g transform="translate(11.445 16.385)">
		<path fill="#FFFFFF" d="M25.607,45.625c0.632,1.172,1.635,1.986,3.391,1.379c0.968-0.339,3.152-2.446,4.718-0.553
			c1.565,1.895-0.487,9.88,0.122,16.223c0.748,7.799,4.729,8.633,7.761,8.891c5.043,0.431,6.665-6.371,6.757-8.002
			c0.47-0.074,0.412,0.109,0.829-0.149c0.54-0.326,0.11-3.369-1.252-6.756c-1.234-3.083-2.787-5.097-3.367-5.067
			c-0.666,0.028-0.406,0.837-0.794,0.951c-1.118,0.328-2.771,1.51-3.048,6.774c-0.174,3.267-0.724,4.041-1.072,4.126
			c-0.811,0.201-1.125-5.516-1.623-10.791c-0.551-5.826-1.744-9.516-3.536-9.7c-2.521-0.258-3.825,0.734-5.152,1.44
			c-2.267,1.2-2.782,0.374-2.782,0.374L25.607,45.625z M52.626,51.71c-0.034-0.076-0.068-0.144-0.109-0.207
			c-0.123-1.13-0.707-3.714-0.835-4.041c-0.271-0.304-4.677-1.246-5.118-1.106c-0.37,0.113,0.957,2.967,1.392,3.873
			c-0.151-0.006-0.308,0.017-0.451,0.08c-0.587,0.26-0.807,1.05-0.481,1.77c0.324,0.717,1.061,1.089,1.646,0.831
			c0.585-0.259,0.805-1.051,0.48-1.769c-0.14-0.309-0.359-0.556-0.608-0.717c-0.221-0.665-0.719-1.986-0.725-2.439
			c0.115-0.437,2.868,0.396,3.391,0.751c0.197,0.201,0.295,1.396,0.399,2.097c-0.214-0.046-0.429-0.035-0.632,0.058
			c-0.586,0.258-0.805,1.049-0.481,1.768c0.325,0.716,1.061,1.09,1.646,0.833C52.725,53.231,52.952,52.427,52.626,51.71z
			 M42.322,36.98c-0.394,0.178,0.598,3.609,1.113,5.448c-0.324-0.133-0.679-0.151-1.015-0.041c-0.834,0.281-1.24,1.286-0.91,2.25
			c0.331,0.959,1.275,1.51,2.11,1.229c0.834-0.281,1.24-1.285,0.91-2.249c-0.036-0.111-0.082-0.208-0.134-0.306
			c-0.267-1.325-0.934-3.857-0.822-4.351c0.028-0.132,1.738,0.493,2.085-0.057C46.06,38.26,43.017,36.665,42.322,36.98z
			 M75.463,45.545l-3.896,1.371c-0.122-0.315-0.272-0.608-0.446-0.866c0.418-0.551,0.66-1.24,0.66-1.98
			c0-1.837-1.5-3.323-3.355-3.323c-1.854,0-3.355,1.486-3.355,3.323c0,0.402,0.07,0.786,0.203,1.143
			c-0.342,0.052-0.69,0.114-1.025,0.179v-0.053c0-1.837-1.503-3.322-3.356-3.322c-1.854,0-3.355,1.485-3.355,3.322
			c0,1.349,0.816,2.515,1.981,3.031c0.047,1.762,0.209,4.421,1.623,5.138c0.435,0.224,1.158,0.322,2.029,0.332l-0.853,4.375
			l1.681,0.305l0.876-4.766c0.173-0.018,0.348-0.035,0.522-0.058l0.712,4.478l1.622-0.229l-0.689-4.5
			c0.151-0.029,0.302-0.057,0.453-0.093l2.416,4.242l1.448-0.842l-2.15-3.837c0.945-0.28,1.722-0.613,2.15-0.947
			c0.406-0.314,0.638-1.157,0.668-2.158l4.144,0.133L75.463,45.545z M60.857,46.405c-0.573,0-1.044-0.464-1.044-1.033
			c0-0.568,0.471-1.032,1.044-1.032c0.574,0,1.043,0.464,1.043,1.032C61.9,45.941,61.436,46.405,60.857,46.405z M68.45,45.142
			c-0.574,0-1.043-0.465-1.043-1.034c0-0.566,0.469-1.032,1.043-1.032s1.044,0.466,1.044,1.032
			C69.493,44.677,69.03,45.142,68.45,45.142z"/>
		<path fill="none" stroke="#FFFFFF" stroke-width="1.219" d="M5.449,45.315c0,0,2.782-1.475,4.752-2.124l4.984-1.131
			c0,0,4.712,5.918,3.941,10.677c-0.753,4.655-2.799,5.051-2.799,5.051s-3.188,0.346-5.448-1.032
			C6.562,54.126,5.449,45.315,5.449,45.315z"/>
		<path fill="#FFFFFF" d="M11.326,51.744c0,0,1.838,0.247,3.38-0.441l2.567-1.739c0,0,0.58,3.559-1.855,4.074
			C12.838,54.183,11.326,51.744,11.326,51.744z M12.138,48.506c0,0-0.812-0.602-1.756-0.172c-0.8,0.362-1.223,1.338-1.223,1.338
			s-0.458-2.198,1.055-2.468C11.755,46.933,12.138,48.506,12.138,48.506z M16.693,46.98c0,0-0.759-0.495-1.496-0.305
			c-0.528,0.137-0.748,1.027-0.748,1.027s-0.794-1.659,0.504-1.911C16.055,45.58,16.693,46.98,16.693,46.98z"/>
		<path fill="#FFFFFF" d="M74.547,29.977c-2.48-0.282-5.066-0.419-9.238,0.126c0.088-0.091,0.133-0.212,0.121-0.35
			c-0.012-0.172-0.058-0.476-0.128-0.804c2.626-1.463,8.927-7.192,11.679-12.02c-0.602-0.889-2.509-4.403-3.709-5.895
			c-2.354,4.775-3.664,11.607-8.873,16.44c-0.47-0.017-1.118,0.028-1.508,0.125c-3.512-2.261-7.25-7.961-10.2-13.15
			c4.491-4.638,8.561-9.924,9.447-13.633c-1.072-0.86-5.407-2.943-7.262-3.633c-1.913,3.15-4.04,8.168-6.776,13.174
			c-1.519,0.844-3.291,1.968-3.808,2.381c0.25,0.638,0.638,1.355,1.137,2.119c-1.891,2.893-4.04,5.573-6.538,7.634
			c-0.597-0.063-1.426-0.074-1.959,0.011c-2.951-2.198-5.929-6.572-8.665-11.451c0.041-0.156,0.075-0.305,0.11-0.448
			c-0.116-0.063-0.284-0.149-0.493-0.246c-2.109-3.835-4.063-7.934-5.726-11.493c-1.855,0.689-6.231,3.961-7.303,4.822
			c1.032,2.251,3.339,5.298,6.098,8.369c-2.093,5.97-5.06,13.163-8.45,16.239c-0.4-0.035-1.049,0.029-1.507,0.121
			c-5.946-3.92-8.375-10.447-11.487-14.77c-0.933,1.665-2.237,5.442-2.684,6.418c3.519,4.31,10.682,8.936,13.516,9.953
			c-0.018,0.338-0.012,0.643,0.006,0.815c0.029,0.292,0.267,0.437,0.614,0.494c-3.698,0.815-6.283,1.527-10.543,3.421
			c-1.275,2.871,2.261,14.008,2.261,14.008s-0.116-4.897,0.463-8.209c3.478-0.788,4.173-2.026,10.201-3.043
			c3.17-0.534,5.813-0.493,7.616-0.333c-0.405,3.875-0.608,8.984,0.041,14.477c1.154,12.835,4.608,19.947,4.608,19.947
			s1.217,0.815,2.087,1.073c-1.021-3.077-3.396-8.817-3.913-21.021c-0.255-6.033,1.391-13.766,1.391-13.766
			s7.912-2.841,13.736-3.186l11.563,0.713c0,0,2.921,7.547,3.824,16.238c1.125,10.826-0.607,21.021-0.607,21.021l2.109-1.079
			c0,0,0.863-2.027,1.316-7.231c0.184,0.263,0.383,0.532,0.486,0.625c0.227,0.2,0.834,0.314,1.501,0.515
			c-0.285-0.476-1.333-3.173-1.786-4.351c0.123-2.967,0.104-6.663-0.179-11.198c-0.254-4.127-0.694-7.635-1.205-10.579
			c1.675-0.963,5.546-2.151,9.383-2.767c3.264-0.522,6.532-0.453,8.328-0.23c2.11,2.538,3.577,9.972,4.173,14.024
			c0.389-0.861,1.043-2.623,1.565-4.454C79.375,43.874,76.361,31.51,74.547,29.977z M22.129,29.954c0,0-0.07,0.264-0.174,0.757
			c-2.608-0.183-5.842-0.257-8.589,0.139l0.058-0.051c0.006-0.379-0.07-0.77-0.174-1.137c3.402-1.418,8.879-7.52,12.258-12.91
			c4.266,4.098,8.572,7.411,10.525,7.703c-0.093,0.488-0.133,1.005-0.087,1.493c0.204,0.148,0.377,0.264,0.557,0.35
			C29.304,27.302,22.129,29.954,22.129,29.954z M52.209,26.855c0,0-6.317-1.241-12.27-0.901c0.064-0.098,0.093-0.207,0.093-0.339
			c0-0.247-0.034-0.7-0.11-1.182c1.629-0.356,4.904-2.669,8.457-5.838c4.23,4.69,10.478,9.649,14.003,10.476
			c-0.047,0.378-0.054,0.775,0.017,1.147c0.191,0.121,0.347,0.208,0.516,0.259c-3.164,0.631-6.577,1.831-8.404,2.515
			C53.317,28.748,52.209,26.855,52.209,26.855z"/>
	</g>
</g>
</svg>
