<?xml version="1.0" encoding="utf-8"?>
<!-- Generator: Adobe Illustrator 15.1.0, SVG Export Plug-In . SVG Version: 6.00 Build 0)  -->
<!DOCTYPE svg PUBLIC "-//W3C//DTD SVG 1.1//EN" "http://www.w3.org/Graphics/SVG/1.1/DTD/svg11.dtd">
<svg version="1.1" id="Layer_1" xmlns="http://www.w3.org/2000/svg" xmlns:xlink="http://www.w3.org/1999/xlink" x="0px" y="0px"
	 width="104px" height="103px" viewBox="0 0 104 103" enable-background="new 0 0 104 103" xml:space="preserve">
<g>
	
		<linearGradient id="SVGID_1_" gradientUnits="userSpaceOnUse" x1="-968.4292" y1="1072.1631" x2="-968.4292" y2="1071.0801" gradientTransform="matrix(95.522 0 0 -95.15 92558.3438 102016.2969)">
		<stop  offset="0" style="stop-color:#D4EB31"/>
		<stop  offset="1" style="stop-color:#5AB20C"/>
	</linearGradient>
	<ellipse fill="url(#SVGID_1_)" cx="52" cy="51.5" rx="52" ry="51.5"/>
	<ellipse fill="#FFFFFF" cx="36.669" cy="75.935" rx="2.492" ry="2.468"/>
	<path fill="#FFFFFF" d="M25.176,25.957c0.325,0.838,7.923,6.945,9.082,6.945s2.591-0.804,2.203-1.453
		c-0.388-0.648-8.271-7.388-9.354-7.468S24.864,25.153,25.176,25.957z"/>
	<path fill="#FFFFFF" d="M69.839,55.817c1.993-5.391,5.025-15.648,5.025-15.648s0.672,0.941,2.319,0.804
		c6.375-0.534,5.337-4.311,1.854-6.544c-2.087-1.337-12.322-0.689-13.098-0.229c-1.236,0.729-1.2,2.278-0.117,2.985
		c1.582,1.033,5.217-0.345,5.912,0.918c-0.372,1.71-3.32,10.263-6.092,16.102c-8.207-2.773-15.399-2.974-20.627-1.419
		c-3.344-5.464-8.467-15.848-8.491-16.29c0.608-0.46,1.883-1.608,0.261-2.411c-1.623-0.804-11.766-0.454-13.389-2.412
		c-2.005-2.416-2.782-8.839-2.857-10.446c-0.076-1.607-2.475-2.182-3.402-0.345s1.177,11.222,3.825,14.006
		c1.913,2.009,9.215,1.843,11.824,2.297c1.154,2.376,5.448,11.497,8.734,17.065c-3.668,2.071-5.668,5.326-5.373,9.224
		c2.667,35.13,49.381,14.925,51.119,3.1C81.268,61.7,75.374,58.188,69.839,55.817z M59.244,69.845c-0.115,0-0.231-0.005-0.348-0.01
		l-0.898,2.031c0,0,1.275,0.332,1.854,0.505c0.58,0.172-0.463,3.387-0.637,3.559c-0.175,0.173-8.173-0.689-8.752-1.204
		c-0.58-0.518,0.29-3.388,0.811-3.732l3.593,0.573l1.119-2.812c-1.28-0.971-2.104-2.497-2.104-4.218c0-2.935,2.398-5.311,5.36-5.311
		s5.361,2.376,5.361,5.311C64.605,67.469,62.206,69.845,59.244,69.845z"/>
</g>
</svg>
