<?xml version="1.0" encoding="utf-8"?>
<!-- Generator: Adobe Illustrator 15.1.0, SVG Export Plug-In . SVG Version: 6.00 Build 0)  -->
<!DOCTYPE svg PUBLIC "-//W3C//DTD SVG 1.1//EN" "http://www.w3.org/Graphics/SVG/1.1/DTD/svg11.dtd">
<svg version="1.1" id="Layer_1" xmlns="http://www.w3.org/2000/svg" xmlns:xlink="http://www.w3.org/1999/xlink" x="0px" y="0px"
	 width="104px" height="103px" viewBox="0 0 104 103" enable-background="new 0 0 104 103" xml:space="preserve">
<g>
	
		<linearGradient id="SVGID_1_" gradientUnits="userSpaceOnUse" x1="-968.4292" y1="1072.1631" x2="-968.4292" y2="1071.0801" gradientTransform="matrix(95.522 0 0 -95.15 92558.3438 102016.2969)">
		<stop  offset="0" style="stop-color:#D4EB31"/>
		<stop  offset="1" style="stop-color:#5AB20C"/>
	</linearGradient>
	<ellipse fill="url(#SVGID_1_)" cx="52.005" cy="51.5" rx="52.005" ry="51.5"/>
	<path fill="#FFFFFF" d="M52.138,13.305c-21.226,0-38.436,17.042-38.436,38.062c0,21.021,17.209,38.063,38.436,38.063
		c21.228,0,38.436-17.042,38.436-38.063C90.573,30.348,73.365,13.305,52.138,13.305z M25.903,25.388
		c3.408-3.375,7.373-6.021,11.795-7.876c0.603-0.252,1.206-0.488,1.815-0.706l0.191,6.653c0,0-4.695,2.709-7.165,4.833
		c-2.284,1.969-5.229,5.677-5.229,5.677l-7.947,0.156C21.086,30.916,23.277,27.988,25.903,25.388z M23.533,59.57
		c-0.278-0.631,2.533-11.52,5.176-12.864c0.776-0.396,12.688,2.583,13.373,3.117c0.614,0.482,3.309,12.358,3.831,15.366
		c-1.032,0.885-10.92,4.874-12.242,5.671C28.772,69.099,24.321,61.356,23.533,59.57z M37.699,85.218
		c-2.771-1.16-5.361-2.636-7.75-4.403l6.718-0.798c0,0,3.072,1.963,5.854,3.157l8.845,1.539l0.25,3.386
		C46.793,88.037,42.116,87.072,37.699,85.218z M51.373,26.564c2.956-2.238,12.293-3.387,14.26-3.358
		c0.694,0.012,9.824,9.156,9.824,10.935c0,0.867-6.104,11.182-6.869,10.763c-1.981-1.103-12.149-3.817-15.129-4.592
		C53.21,38.677,52.004,28.499,51.373,26.564z M85.473,35.209c0.301,0.608,0.586,1.228,0.852,1.854
		c1.937,4.529,2.915,9.339,2.915,14.299c0,0.82-0.028,1.642-0.08,2.456l-2.504,0.098c0,0-0.128-5.338-0.777-8.271
		c-0.649-2.933-3.333-8.007-3.333-8.007L85.473,35.209z M77.184,75.964c-2.719,2.435-12.932,4.667-14.148,3.903
		c-0.591-0.372-2.62-9.936-1.954-10.354c1.751-1.09,8.706-7.915,10.729-9.925c1.247,0.505,7.252,3.168,8.894,3.501
		C80.755,66.372,78.551,74.735,77.184,75.964z"/>
</g>
</svg>
