<?xml version="1.0" encoding="utf-8"?>
<!-- Generator: Adobe Illustrator 15.1.0, SVG Export Plug-In . SVG Version: 6.00 Build 0)  -->
<!DOCTYPE svg PUBLIC "-//W3C//DTD SVG 1.1//EN" "http://www.w3.org/Graphics/SVG/1.1/DTD/svg11.dtd">
<svg version="1.1" id="Layer_1" xmlns="http://www.w3.org/2000/svg" xmlns:xlink="http://www.w3.org/1999/xlink" x="0px" y="0px"
	 width="104px" height="103px" viewBox="0 0 104 103" enable-background="new 0 0 104 103" xml:space="preserve">
<g>
	
		<linearGradient id="SVGID_1_" gradientUnits="userSpaceOnUse" x1="-968.4292" y1="1072.1631" x2="-968.4292" y2="1071.0801" gradientTransform="matrix(95.522 0 0 -95.15 92558.3438 102016.2969)">
		<stop  offset="0" style="stop-color:#E087E2"/>
		<stop  offset="1" style="stop-color:#892390"/>
	</linearGradient>
	<ellipse fill="url(#SVGID_1_)" cx="52" cy="51.5" rx="52" ry="51.5"/>
	<g transform="translate(22.571 13.734)">
		<path fill="#FFFFFF" d="M8.275,57.622c10.838,1.032,35.412,1.091,42.542,0C48.904,67.724,36.616,78.63,29.545,78.63
			C22.938,78.63,10.593,68.125,8.275,57.622z M56.536,45.567c-5.209,1.033-25.061,1.395-27.171,1.43
			c-2.057-0.035-21.387-0.401-26.597-1.43c-0.116,1.148,1.385,9.799,2.434,9.988c6.804,1.24,21.497,1.314,23.983,1.32h0.365
			c2.533-0.006,17.747-0.074,24.563-1.32C55.158,55.366,56.653,46.715,56.536,45.567z M60.05,37.359
			c-8.782,1.63-26.918,1.768-30.395,1.779c-3.483-0.012-21.613-0.149-30.394-1.779c-0.093,0.689,0.516,6.142,1.136,6.257
			c8.891,1.652,25.901,1.676,29.263,1.67c3.362,0.012,20.367-0.018,29.263-1.67C59.533,43.5,60.137,38.048,60.05,37.359z"/>
		<path fill="#FFFFFF" d="M48.254,7.36c-2.335-0.688-4.771-0.929-7.169-0.757l0.868-7.612c0,0-0.521-1.348-3.65-2.037l-5.349,0.057
			l-1.201,2.813c-3.512-2.026-7.598-2.692-11.603-1.871c-4.313,0.873-8.022,3.364-10.439,7.009
			c-2.04,3.071-2.961,6.647-2.666,10.252c-5.46,2.497-9.25,7.968-9.25,14.31c0,2.153,0.434,4.202,1.223,6.068
			c5.738,0.981,19.509,2.233,28.399,1.928c1.397-2.341,2.197-5.074,2.197-7.996c0-3.932-1.455-7.531-3.866-10.292
			c5.263-9.535,17.023-14.041,26.719-7.818c8.393,5.378,10.195,16.067,5.645,24.562c0.754-0.068,1.676,0,2.394-0.224
			C66.384,24.793,60.118,10.845,48.254,7.36z M24.149,17.636c-2.793-2.411-6.445-3.869-10.444-3.869
			c-1.646,0-3.233,0.248-4.729,0.706c-0.122-2.973,0.695-5.906,2.382-8.443c2.133-3.208,5.396-5.402,9.192-6.177
			c3.611-0.734,7.297-0.103,10.433,1.774L24.149,17.636z"/>
	</g>
</g>
</svg>
