<?xml version="1.0" encoding="utf-8"?>
<!-- Generator: Adobe Illustrator 15.1.0, SVG Export Plug-In . SVG Version: 6.00 Build 0)  -->
<!DOCTYPE svg PUBLIC "-//W3C//DTD SVG 1.1//EN" "http://www.w3.org/Graphics/SVG/1.1/DTD/svg11.dtd">
<svg version="1.1" id="Layer_1" xmlns="http://www.w3.org/2000/svg" xmlns:xlink="http://www.w3.org/1999/xlink" x="0px" y="0px"
	 width="104px" height="103px" viewBox="0 0 104 103" enable-background="new 0 0 104 103" xml:space="preserve">
<g>
	
		<linearGradient id="SVGID_1_" gradientUnits="userSpaceOnUse" x1="-968.4292" y1="1072.1631" x2="-968.4292" y2="1071.0801" gradientTransform="matrix(95.522 0 0 -95.15 92558.3438 102016.2969)">
		<stop  offset="0" style="stop-color:#D4EB31"/>
		<stop  offset="1" style="stop-color:#5AB20C"/>
	</linearGradient>
	<ellipse fill="url(#SVGID_1_)" cx="52" cy="51.5" rx="52" ry="51.5"/>
	<path fill="#FFFFFF" d="M40.611,54.313c0-3.926,1.547-7.623,4.347-10.401c2.805-2.778,6.532-4.305,10.502-4.305
		c3.97,0,7.696,1.532,10.501,4.305c1.108,1.096,2.018,2.336,2.713,3.68c5.576-6.59,6.359-14.253,6.827-17.577
		c-2.851-2.067-6.184-1.819-7.527-1.895c-0.646,1.224-2.139,9.598-10.497,9.046c-16.97-1.125-20.882-14.643-29.518-14.643
		c-7.97,0-12.751,24.109-6.839,29.533c4.057,3.726,11.539,6.503,20.146,6.584C40.832,57.252,40.611,55.799,40.611,54.313z
		 M69.765,12.215c0.619,2.428,0.579,12.226-0.232,13.719c2.046,0.344,4.404,1.091,5.39,1.435c0.76-2.469,1.218-9.816,0.465-11.998
		C74.127,14.304,70.795,12.472,69.765,12.215z"/>
	<path fill="#FFFFFF" d="M55.46,41.558c-7.112,0-12.879,5.712-12.879,12.755c0,7.044,5.767,12.755,12.879,12.755
		c7.111,0,12.878-5.711,12.878-12.755C68.344,47.27,62.576,41.558,55.46,41.558z M60.194,45.134c0.84,0,1.519,0.677,1.519,1.503
		c0,0.827-0.684,1.504-1.519,1.504s-1.519-0.677-1.519-1.504C58.676,45.812,59.354,45.134,60.194,45.134z M52.023,44.445
		c0.84,0,1.518,0.677,1.518,1.504c0,0.826-0.684,1.503-1.518,1.503c-0.835,0-1.519-0.677-1.519-1.503
		C50.504,45.123,51.183,44.445,52.023,44.445z M44.708,50.845c0-0.832,0.684-1.503,1.519-1.503s1.518,0.677,1.518,1.503
		s-0.684,1.504-1.518,1.504S44.708,51.678,44.708,50.845z M47.751,59.801c-0.84,0-1.519-0.678-1.519-1.505s0.684-1.505,1.519-1.505
		s1.518,0.678,1.518,1.505S48.592,59.801,47.751,59.801z M49.56,52.413c0-0.833,0.684-1.504,1.519-1.504s1.519,0.677,1.519,1.504
		c0,0.826-0.684,1.503-1.519,1.503S49.56,53.245,49.56,52.413z M53.198,64.707c-0.84,0-1.517-0.677-1.517-1.503
		s0.684-1.504,1.517-1.504c0.836,0,1.519,0.678,1.519,1.504S54.04,64.707,53.198,64.707z M55.46,58.537
		c-0.841,0-1.52-0.678-1.52-1.504s0.686-1.504,1.52-1.504c0.835,0,1.519,0.678,1.519,1.504S56.301,58.537,55.46,58.537z
		 M56.984,52.769c-0.84,0-1.519-0.678-1.519-1.504c0-0.827,0.684-1.504,1.519-1.504s1.519,0.677,1.519,1.504
		C58.503,52.091,57.824,52.769,56.984,52.769z M59.62,63.555c-0.84,0-1.519-0.678-1.519-1.505s0.686-1.504,1.519-1.504
		c0.836,0,1.519,0.677,1.519,1.504S60.462,63.555,59.62,63.555z M61.719,57.447c-0.841,0-1.518-0.679-1.518-1.504
		c0-0.827,0.684-1.505,1.518-1.505s1.519,0.678,1.519,1.505C63.237,56.769,62.559,57.447,61.719,57.447z M65.15,54.278
		c-0.841,0-1.52-0.677-1.52-1.504c0-0.826,0.686-1.504,1.52-1.504c0.835,0,1.519,0.678,1.519,1.504
		C66.669,53.602,65.99,54.278,65.15,54.278z"/>
	<path fill="#FFFFFF" d="M78.318,75.127c-0.399-6.487-1.054-14.409-4.868,1.418c-0.128-1.855-3.53-17.853-4.781,1.629
		c-0.87,0.229-3.483-11.669-4.608,1.551c-3.918-0.478-2.908-10.046-6.375,1.521c-0.181,0.012-0.349,0-0.517-0.023
		c-1.64-4.374,1.605-10.653,2.451-12.748c-2.265,0.66-5.824,1.003-9.817-0.396c1.809,1.79,4.874,8.266,4.208,14.201
		c-0.122,0.2-0.249,0.429-0.383,0.693c-0.325-1.313-6.178-8.816-3.825-1.21c-2.684-3.933-4.074-9.593-5.738-1.034
		c-0.458-1.251-4.283-12.996-5.999-1.062c-1.646-1.493-5.703-15.769-4.607-0.913c-4.382-13.855-6.277-11.905-5.999-1.813
		c-5.181-11.05-3.999,2.727-3.999,2.727s13.041,13.547,32.688,10.792c19.647-2.757,28.255-15.327,28.255-15.327
		S82.631,53.526,78.318,75.127z"/>
</g>
</svg>
