<?xml version="1.0" encoding="utf-8"?>
<!-- Generator: Adobe Illustrator 15.1.0, SVG Export Plug-In . SVG Version: 6.00 Build 0)  -->
<!DOCTYPE svg PUBLIC "-//W3C//DTD SVG 1.1//EN" "http://www.w3.org/Graphics/SVG/1.1/DTD/svg11.dtd">
<svg version="1.1" id="Layer_1" xmlns="http://www.w3.org/2000/svg" xmlns:xlink="http://www.w3.org/1999/xlink" x="0px" y="0px"
	 width="104px" height="103px" viewBox="0 0 104 103" enable-background="new 0 0 104 103" xml:space="preserve">
<g>
	
		<linearGradient id="SVGID_1_" gradientUnits="userSpaceOnUse" x1="-968.4292" y1="1072.1631" x2="-968.4292" y2="1071.0801" gradientTransform="matrix(95.522 0 0 -95.15 92558.3438 102016.2969)">
		<stop  offset="0" style="stop-color:#D4EB31"/>
		<stop  offset="1" style="stop-color:#5AB20C"/>
	</linearGradient>
	<ellipse fill="url(#SVGID_1_)" cx="52" cy="51.5" rx="52" ry="51.5"/>
	<path fill="#FFFFFF" d="M89.794,36.466c-2.347-1.153-7.969-2.164-15.202-2.881c0.058-1.332,0.029-3.111-0.33-4.925
		c-4.028-3.243-7.877-2.928-8.572-1.521c-0.399,0.804-0.689,3.53-0.869,5.717c-8.891-0.477-18.836-0.545-27.809-0.017
		c0.046-1.539,0-3.404-0.33-5.068c-4.173-3.789-9.651-1.809-10.346-0.402c-0.452,0.912-0.597,4.304-0.643,6.566
		c-4.962,0.712-9.134,1.716-11.963,3.048c-1.478,2.634-0.956,14.637,0,16.358c2.388-0.31,6.555-0.637,11.812-0.906
		c-2.677,5.901-4.688,15.688-4.457,16.549c0.291,1.091,3.015,4.764,4.116,4.593c0.967-0.15,1.576-13.047,4.52-21.338
		c1.188-0.045,2.412-0.091,3.669-0.131c1.785,6.159,3.553,20.148,4.04,20.148c0.579,0,3.419-3.158,3.941-4.363
		c0.382-0.883-2.231-9.907-4.404-15.889c8.757-0.224,18.72-0.241,28.116,0.138c-2.731,5.907-4.87,15.642-4.645,16.497
		c0.291,1.091,3.016,4.765,4.116,4.592c0.95-0.149,1.378-12.628,4.155-20.922c0.579,0.028,1.152,0.063,1.727,0.097
		c1.827,5.202,3.519,19.907,4.029,19.907c0.579,0,3.36-3.215,3.883-4.42c0.371-0.86-1.715-9.074-4.104-15.234
		c6.161,0.465,11.748,1.159,16.164,2.147C91.532,53.257,93.359,38.274,89.794,36.466z M28.706,29.722
		c0.197-0.729,3.796-0.488,5.622-0.401c0.667,0.017,0.551,2.026,0.354,3.673c-2.092,0.149-4.115,0.339-6.045,0.562
		C28.573,32.557,28.48,30.56,28.706,29.722z M67.887,29.32c0.196-0.729,3.036,0.315,4.427,1.033c0.187,0.608,0.15,1.939,0.081,3.031
		c-1.64-0.144-3.355-0.27-5.116-0.385C67.423,31.897,67.678,30.083,67.887,29.32z"/>
</g>
</svg>
