<?xml version="1.0" encoding="utf-8"?>
<!-- Generator: Adobe Illustrator 15.1.0, SVG Export Plug-In . SVG Version: 6.00 Build 0)  -->
<!DOCTYPE svg PUBLIC "-//W3C//DTD SVG 1.1//EN" "http://www.w3.org/Graphics/SVG/1.1/DTD/svg11.dtd">
<svg version="1.1" id="Layer_1" xmlns="http://www.w3.org/2000/svg" xmlns:xlink="http://www.w3.org/1999/xlink" x="0px" y="0px"
	 width="104px" height="103px" viewBox="0 0 104 103" enable-background="new 0 0 104 103" xml:space="preserve">
<g>
	
		<linearGradient id="SVGID_1_" gradientUnits="userSpaceOnUse" x1="-968.4292" y1="1072.1631" x2="-968.4292" y2="1071.0801" gradientTransform="matrix(95.522 0 0 -95.15 92558.3438 102016.2969)">
		<stop  offset="0" style="stop-color:#D4EB31"/>
		<stop  offset="1" style="stop-color:#5AB20C"/>
	</linearGradient>
	<ellipse fill="url(#SVGID_1_)" cx="52" cy="51.5" rx="52" ry="51.5"/>
	<path fill="#FFFFFF" d="M82.451,51.511c0-18.42-16.896-32.575-35.21-29.665C32.229,24.234,21.038,37.85,21.797,53.016
		c0.429,8.689,4.764,16.899,11.714,22.242C52.875,90.148,82.451,76.405,82.451,51.511z M42.292,32.247
		c1.072-4.201,5.124-9.288,9.812-9.288c5.599,0,11.134,1.631,15.812,4.673c-3.993,3.1-5.46,6.349-7.818,10.636
		c-1.16,2.106-4.22,2.745-6.411,2.939C48.139,41.713,40.541,39.119,42.292,32.247C43.445,27.73,39.567,42.936,42.292,32.247z
		 M23.275,51.511c0-3.077,0.499-6.153,1.484-9.069c0.544-1.613,1.239-3.181,2.069-4.673c0.961-1.734,2.66-1.309,4.445-0.81
		c5.089,1.429,6.758,7.135,11.591,9.299c6.08,2.721,12.218-0.011,18.438-0.292c4.334-0.195,6.53,2.818,6.757,6.922
		c0.603,10.809-10.624,14.604-19.601,13.68c-5.048-0.522-10.027-2.05-14.508-4.403C30.375,60.289,23.275,56.075,23.275,51.511z
		 M30.625,70.545c1.472-2.283,5.535-2.944,7.899-2.296c5.605,1.539,7.396,6.78,9.413,11.515
		C41.283,78.805,35.099,75.498,30.625,70.545C30.631,70.528,35.023,75.413,30.625,70.545z M74.238,61.584
		c2.318-3.96,2.862-8.351,1.125-12.616c-1.142-2.801-3.89-6.016-3.223-9.219c0.405-1.939,2.186-3.334,3.843-4.248
		c1.698,2.48,3.001,5.229,3.836,8.111c1.484,5.126,1.484,10.66,0,15.786c-2.787,9.614-10.908,17.095-20.69,19.584
		C57.998,71.452,70.61,67.784,74.238,61.584z"/>
</g>
</svg>
