<?xml version="1.0" encoding="utf-8"?>
<!-- Generator: Adobe Illustrator 15.1.0, SVG Export Plug-In . SVG Version: 6.00 Build 0)  -->
<!DOCTYPE svg PUBLIC "-//W3C//DTD SVG 1.1//EN" "http://www.w3.org/Graphics/SVG/1.1/DTD/svg11.dtd">
<svg version="1.1" id="Layer_1" xmlns="http://www.w3.org/2000/svg" xmlns:xlink="http://www.w3.org/1999/xlink" x="0px" y="0px"
	 width="104px" height="103px" viewBox="0 0 104 103" enable-background="new 0 0 104 103" xml:space="preserve">
<g>
	
		<linearGradient id="SVGID_1_" gradientUnits="userSpaceOnUse" x1="-968.4292" y1="1072.1641" x2="-968.4292" y2="1071.0811" gradientTransform="matrix(95.522 0 0 -95.15 92558.3438 102016.3594)">
		<stop  offset="0" style="stop-color:#09D9F7"/>
		<stop  offset="1" style="stop-color:#026BE0"/>
	</linearGradient>
	<ellipse fill="url(#SVGID_1_)" cx="52" cy="51.5" rx="52" ry="51.5"/>
	<ellipse fill="#FFFFFF" cx="15.98" cy="45.892" rx="2.115" ry="2.094"/>
	<ellipse fill="#FFFFFF" cx="19.979" cy="49.818" rx="2.116" ry="2.094"/>
	<ellipse fill="#FFFFFF" cx="24.036" cy="52.953" rx="2.115" ry="2.094"/>
	<ellipse fill="#FFFFFF" cx="23.456" cy="62.481" rx="2.116" ry="1.596"/>
	
		<ellipse transform="matrix(-0.9924 -0.1228 0.1228 -0.9924 55.6299 115.0824)" fill="#FFFFFF" cx="31.362" cy="55.827" rx="1.38" ry="1.762"/>
	
		<ellipse transform="matrix(-0.9923 -0.1235 0.1235 -0.9923 63.7152 117.9353)" fill="#FFFFFF" cx="35.513" cy="56.993" rx="1.38" ry="1.762"/>
	
		<ellipse transform="matrix(-0.9924 -0.1234 0.1234 -0.9924 60.0963 106.1029)" fill="#FFFFFF" cx="33.333" cy="51.191" rx="1.379" ry="1.762"/>
	
		<ellipse transform="matrix(-0.9924 -0.1234 0.1234 -0.9924 56.8359 95.0518)" fill="#FFFFFF" cx="31.361" cy="45.766" rx="1.379" ry="1.763"/>
	
		<ellipse transform="matrix(-0.9924 -0.1234 0.1234 -0.9924 64.1258 96.9162)" fill="#FFFFFF" cx="35.063" cy="46.473" rx="1.379" ry="1.762"/>
	<path fill="#FFFFFF" d="M90.746,39.435c-2.695-9.213-31.385-24.471-36.602-24.453c-3.442,0.568-14.831,19.103-18.471,25.561
		c-0.562-0.207-1.217-0.402-1.959-0.585c-1.942-0.488-4.213-0.821-5.5-0.919l-0.047-0.005h-0.046c-0.331,0-0.875-0.012-1.564-0.023
		c-1.194-0.022-2.829-0.057-4.573-0.057c-2.539,0-4.549,0.069-6.144,0.212c-1.692,0.155-3.541,0.419-4.364,1.211
		c-0.637,0.609-1.113,1.739-1.449,3.45c-0.284,1.429-0.458,3.203-0.504,5.12c-0.099,4.219,0.423,8.255,1.402,10.798l0.058,0.155
		l0.104,0.131c2.846,3.604,5.599,5.465,7.07,6.463c0.197,0.139,0.372,0.253,0.516,0.351l0.249,0.172l0.301,0.023
		c0.087,0.006,0.186,0.011,0.313,0.011c1.194,0,5.019-0.333,8.7-0.82c6.868,13.064,32.063,20.458,38.194,19.321
		C74.054,81.797,90.897,47.528,90.746,39.435z M52.4,22.783c1.901-2.468,3.843-0.798,3.843,0.648
		c2.493-1.303,3.171,0.896,2.417,2.239c-0.765,1.36-2.561,2.348-5.217,2.818C52.296,26.301,51.41,24.063,52.4,22.783z
		 M12.896,58.739c-0.817-2.279-1.264-5.976-1.176-9.736c0.104-4.322,0.84-6.612,1.281-7.049c0.063-0.051,0.609-0.396,3.153-0.62
		c1.49-0.131,3.455-0.195,5.831-0.195c1.716,0,3.339,0.035,4.526,0.058c0.11,0,0.214,0.006,0.313,0.006
		c0.151,1.016,0.493,3.483,0.667,6.198c0.163,2.543,0.272,7.062-0.788,8.979c-0.452,0.47-2.069,1.481-7.668,2.036
		C16.373,58.676,13.858,58.728,12.896,58.739z M28.18,64.036c-3.703,0.494-7.332,0.811-8.514,0.833
		c-0.081-0.058-0.173-0.115-0.267-0.177c-1.037-0.702-2.747-1.861-4.653-3.813c1.217-0.04,2.811-0.127,4.486-0.293
		c2.075-0.206,3.842-0.499,5.257-0.866c1.35-0.351,2.382-0.775,3.13-1.281l7.303,4.387C33.645,63.17,31.466,63.601,28.18,64.036z
		 M36.78,61.385l-7.818-4.689c0.753-1.951,0.997-5.126,0.719-9.454c-0.156-2.474-0.447-4.701-0.62-5.918
		c1.135,0.144,2.602,0.385,3.929,0.711c2.811,0.684,3.391,1.309,3.472,1.418c0.15,0.734,0.73,4.902,0.927,9.156
		C37.627,57.734,37.204,60.203,36.78,61.385z M65.175,77.732c-0.766,1.36-2.563,2.349-5.216,2.818
		c-1.143-2.187-2.029-4.426-1.044-5.705c1.9-2.469,3.843-0.798,3.843,0.648C65.249,74.191,65.928,76.391,65.175,77.732z
		 M73.444,52.953c-2.798,4.994-9.389,8.609-19.125,10.332c-4.197-8.024-7.448-16.228-3.826-20.923
		c6.979-9.041,14.083-2.927,14.083,2.371C73.712,39.951,76.205,48.027,73.444,52.953z M84.358,40.021
		c-0.764,1.36-2.561,2.348-5.216,2.818C78,40.652,77.114,38.413,78.1,37.133c1.901-2.468,3.842-0.797,3.842,0.648
		C84.434,36.479,85.112,38.677,84.358,40.021z"/>
</g>
</svg>
