<?xml version="1.0" encoding="utf-8"?>
<!-- Generator: Adobe Illustrator 15.1.0, SVG Export Plug-In . SVG Version: 6.00 Build 0)  -->
<!DOCTYPE svg PUBLIC "-//W3C//DTD SVG 1.1//EN" "http://www.w3.org/Graphics/SVG/1.1/DTD/svg11.dtd">
<svg version="1.1" id="Layer_1" xmlns="http://www.w3.org/2000/svg" xmlns:xlink="http://www.w3.org/1999/xlink" x="0px" y="0px"
	 width="104px" height="103px" viewBox="0 0 104 103" enable-background="new 0 0 104 103" xml:space="preserve">
<g>
	
		<linearGradient id="SVGID_1_" gradientUnits="userSpaceOnUse" x1="-968.4297" y1="1072.1631" x2="-968.4297" y2="1071.0801" gradientTransform="matrix(95.522 0 0 -95.15 92558.3438 102016.2969)">
		<stop  offset="0" style="stop-color:#E087E2"/>
		<stop  offset="1" style="stop-color:#892390"/>
	</linearGradient>
	<ellipse fill="url(#SVGID_1_)" cx="51.993" cy="51.5" rx="52.007" ry="51.5"/>
	<g transform="translate(23.849 11.984)">
		<path fill="#FFFFFF" d="M43.511,70.019c-6.399,0-13.337-0.39-18.92-0.81c-5.97-0.446-11.228-0.981-14.364-1.325
			c2.701,3.18,5.82,6.124,9.321,8.954c2.417,0.695,4.574,0.977,6.319,1.063v3.443c0,0,0.55,0.632,3.118,0.632
			c2.533,0,3.055-0.632,3.055-0.632v-3.443c1.757-0.081,3.931-0.362,6.377-1.063c2.713-2.191,5.193-4.454,7.425-6.836
			C45.083,70.014,44.3,70.019,43.511,70.019z M46.921,68.83c1.629-1.83,3.117-3.742,4.463-5.745
			C31.159,60.721,13.926,55.83-0.01,48.505c1.884,6.98,4.986,12.863,9.188,18.11c2.852,0.32,8.724,0.946,15.506,1.452
			C31.257,68.562,39.709,69.015,46.921,68.83z"/>
		<path fill="#FFFFFF" d="M22.673,39.309c-6.382,0.562-12.185,0.729-16.932,0.729c-2.881,0-5.373-0.063-7.374-0.132
			c0.29,2.485,0.708,4.839,1.241,7.089C13.7,54.602,31.303,59.641,52.086,62.012c5.169-8.168,7.97-17.943,8.017-30.739
			C49.111,35.389,36.561,38.087,22.673,39.309z"/>
		<path fill="#FFFFFF" d="M22.568,38.167c13.952-1.234,26.542-3.96,37.528-8.122c-0.029-2.744-0.18-5.625-0.458-8.656
			c-4.313,1.98-18.288,4.621-30.653,4.621c-11.558,0-26.333-2.641-30.652-4.621c-0.591,6.417-0.609,12.163-0.093,17.364
			C3.492,38.948,12.268,39.08,22.568,38.167z"/>
		<path fill="#FFFFFF" d="M34.754,5.305c-1.885,0.936-4.302,1.544-5.641,1.544c-0.759,0-1.426-0.092-1.982-0.212
			c-1.351-0.298-2.991-1.205-3.698-1.619C11.393,6.66,3.01,14.81-0.688,19.787c9.223,4.822,42.264,7.347,59.422,0
			C54.416,13.318,46.561,7.194,34.754,5.305z"/>
		<path fill="#FFFFFF" d="M27.513,5.247c1.53,0.322,3.095,0.185,4.672-0.407v-7.33c0,0-0.735-0.763-3.102-0.688
			c-2.365,0.075-3.101,0.688-3.101,0.688v7.244C26.377,4.926,26.893,5.115,27.513,5.247z"/>
	</g>
</g>
</svg>
