<?xml version="1.0" encoding="utf-8"?>
<!-- Generator: Adobe Illustrator 15.1.0, SVG Export Plug-In . SVG Version: 6.00 Build 0)  -->
<!DOCTYPE svg PUBLIC "-//W3C//DTD SVG 1.1//EN" "http://www.w3.org/Graphics/SVG/1.1/DTD/svg11.dtd">
<svg version="1.1" id="Layer_1" xmlns="http://www.w3.org/2000/svg" xmlns:xlink="http://www.w3.org/1999/xlink" x="0px" y="0px"
	 width="104px" height="103px" viewBox="0 0 104 103" enable-background="new 0 0 104 103" xml:space="preserve">
<g>
	
		<linearGradient id="SVGID_1_" gradientUnits="userSpaceOnUse" x1="-968.4297" y1="1072.1641" x2="-968.4297" y2="1071.0811" gradientTransform="matrix(95.522 0 0 -95.15 92558.3438 102016.3594)">
		<stop  offset="0" style="stop-color:#09D9F7"/>
		<stop  offset="1" style="stop-color:#026BE0"/>
	</linearGradient>
	<ellipse fill="url(#SVGID_1_)" cx="51.993" cy="51.5" rx="52.007" ry="51.5"/>
	<path fill="#FFFFFF" d="M23.097,33.229c1.328-1.739,2-4.167,2.168-8.197c-1.397,0.442-2.771,0.97-4.11,1.607
		c-2.272,2.842-4.585,6.601-6.295,11.027C19.341,36.375,21.666,35.101,23.097,33.229z M87.295,64.29
		c-3.326-0.885-5.692-1.86-7.096-3.697c-0.724-0.952-1.193-2.102-1.465-3.622c-0.157-0.86-0.251-1.864-0.285-3.083
		c-9.813-2.565-20.746,0.85-22.434,1.81c-0.562,0.315-0.637,1.4-0.92,1.779c-1.374-0.328-3.01-0.891-3.491-0.547
		c-0.834,0.592-0.359,1.58-0.359,1.58l-19.802,0.08c0.11-0.344,0.215-0.695,0.319-1.033c8.771,0.93,10.707-3.244,9.82-8.158
		c0.916-0.011,1.873-0.028,2.857-0.045c-0.133-1.705-0.249-4.145,0.116-4.489c0.568-0.534,2.278-0.729,3.095,0
		c0.51,0.454,0.672,2.75,0.725,4.403c0.649-0.018,1.299-0.034,1.948-0.058c-0.226-1.705-0.51-4.379-0.122-4.741
		c0.568-0.534,2.278-0.729,3.095,0c0.528,0.47,0.782,2.933,0.898,4.598c0.505-0.023,1.003-0.046,1.49-0.075
		c-0.244-1.734-0.567-4.587-0.145-4.96c0.607-0.545,2.435-0.746,3.303,0c0.563,0.482,0.836,2.974,0.957,4.678
		c2.018-0.189,3.379-0.424,3.628-0.717c0.887-1.051-0.057-7.25-0.464-10.332c2.991,0.212,2.899-3.031,2.899-3.031l23.186-1.331
		l-1.031-3.002l-21.697,0.93c0,0,0.685-1.435-0.521-2.285c-0.694-0.494-3.055,0.322-5.042,0.793
		c-0.406-0.546-0.522-2.118-1.333-2.577c-2.441-1.391-18.254-6.327-32.451-2.612c-0.052,1.756-0.191,3.208-0.411,4.454
		c-0.395,2.199-1.067,3.863-2.116,5.235c-2.029,2.657-5.449,4.069-10.26,5.35c-0.923,2.79-1.589,5.809-1.866,9.006
		c2.816,0.499,7.656,0.706,7.656,0.706s-4.752,7.147-3.797,10.625c0.957,3.479,5.159,8.15,9.101,8.174
		c2.336-0.816,4.122-3.904,5.432-7.343l20.868,0.127c0,0-0.064,2.244,2.004,2.095c-0.277,2.13-0.933,6.417-0.319,7.142
		c0.175,0.2,1.114,0.366,2.512,0.493c0.08-1.177,0.271-2.898,0.659-3.231c0.604-0.517,1.861-0.38,2.284,0
		c0.29,0.258,0.064,2.232-0.097,3.433c0.336,0.018,0.677,0.033,1.024,0.052c0.075-1.147,0.256-2.854,0.621-3.181
		c0.562-0.505,1.744-0.367,2.139,0c0.267,0.247,0.068,2.102-0.087,3.278l1.345,0.039c0.033-1.143,0.151-2.726,0.498-3.042
		c0.563-0.504,1.746-0.367,2.14,0c0.255,0.235,0.167,1.93,0.08,3.106c0.679,0.011,1.346,0.022,1.978,0.034
		c-0.614,3.397,0.725,6.285,6.787,5.643c0.923,3.127,2.384,6.543,4.494,7.278c2.725-0.017,5.627-3.249,6.289-5.649
		c0.66-2.404-2.627-7.347-2.627-7.347s3.345-0.143,5.293-0.488C88.396,68.308,87.932,66.219,87.295,64.29z M33.572,49.463
		c0,0,2.638,0,6.347-0.046c0.806,4.442-2.162,6.348-7.234,4.586C33.293,51.386,33.572,49.463,33.572,49.463z M69.493,71.092
		c2.568,0.028,4.389,0.028,4.389,0.028s0.191,1.332,0.608,3.14C70.989,75.482,68.937,74.162,69.493,71.092z M81.127,59.899
		c-0.921-1.207-1.379-2.882-1.501-5.667c0.97,0.305,1.919,0.673,2.841,1.108c1.57,1.969,3.171,4.563,4.354,7.623
		C83.725,62.074,82.119,61.196,81.127,59.899z"/>
</g>
</svg>
