<?xml version="1.0" encoding="utf-8"?>
<!-- Generator: Adobe Illustrator 15.1.0, SVG Export Plug-In . SVG Version: 6.00 Build 0)  -->
<!DOCTYPE svg PUBLIC "-//W3C//DTD SVG 1.1//EN" "http://www.w3.org/Graphics/SVG/1.1/DTD/svg11.dtd">
<svg version="1.1" id="Layer_1" xmlns="http://www.w3.org/2000/svg" xmlns:xlink="http://www.w3.org/1999/xlink" x="0px" y="0px"
	 width="104px" height="103px" viewBox="0 0 104 103" enable-background="new 0 0 104 103" xml:space="preserve">
<g>
	
		<linearGradient id="SVGID_1_" gradientUnits="userSpaceOnUse" x1="-968.4292" y1="1072.1631" x2="-968.4292" y2="1071.0801" gradientTransform="matrix(95.522 0 0 -95.15 92558.3438 102016.2969)">
		<stop  offset="0" style="stop-color:#FFE800"/>
		<stop  offset="1" style="stop-color:#FFA400"/>
	</linearGradient>
	<ellipse fill="url(#SVGID_1_)" cx="52" cy="51.5" rx="52" ry="51.5"/>
	<g transform="translate(16.45 17.923)">
		<path fill="#FFFFFF" d="M69.456,45.068c-2.006,1.688-4.127,2.888-6.301,3.57c-4.294,1.355-8.804,0.718-13.405-1.883
			c-1.339,1.562-3.64,3.203-6.225,4.409c-2.99,1.395-6.149,2.136-9.047,2.136c-0.463,0-0.928-0.018-1.374-0.059
			c-2.532-0.217-4.81-1.026-6.781-2.404c-2-1.401-3.663-3.387-4.961-5.907c-5.663,3.008-10.873,3.628-15.498,1.844
			c-1.988-0.771-3.86-1.986-5.57-3.617c-1.089-1.039-2.109-2.25-3.043-3.611c2.481,7.641,11.882,29.425,38.555,29.425
			c25.599,0,35.07-20.067,37.909-28.438C72.383,42.291,70.945,43.811,69.456,45.068z"/>
		<path fill="#FFFFFF" d="M-1.903,37.663c1.038,1.647,2.191,3.083,3.438,4.271c1.536,1.464,3.211,2.554,4.972,3.231
			c4.33,1.665,9.314,0.931,14.809-2.181l0.829-0.472l0.394,0.861c1.217,2.646,2.828,4.685,4.787,6.057
			c1.715,1.199,3.71,1.905,5.929,2.095c2.95,0.252,6.335-0.431,9.529-1.924c2.677-1.251,4.984-2.961,6.027-4.465l0.469-0.672
			l0.701,0.425c4.383,2.658,8.636,3.364,12.635,2.107c1.954-0.615,3.867-1.7,5.692-3.233c1.478-1.238,2.903-2.771,4.23-4.557
			c0.592-0.792,1.112-1.567,1.56-2.284H58.466c0.864-3.324,0.533-6.573-0.027-9.023c-1.102,2.192-2.318,3.507-3.732,4.018
			c-1.397,0.506-2.864,0.184-4.353-0.964c-0.73,0.958-1.692,1.768-2.835,2.376c-1.396,0.746-3.031,1.165-4.712,1.216
			c-0.122,0.006-0.238,0.006-0.354,0.006c-3.611,0-6.938-1.659-9.123-4.512c-3.889,2.641-7.633,3.381-11.152,2.199
			c-2.057-0.695-4.021-2.049-5.836-4.042c-0.892-0.976-1.75-2.101-2.567-3.369c-0.707,2.152-1.971,7.049-0.927,12.095H-2.348
			C-2.21,37.176-2.058,37.418-1.903,37.663z"/>
		<path fill="#FFFFFF" d="M22.736,30.615c1.478,0.5,3.037,0.585,4.625,0.259c1.808-0.374,3.709-1.292,5.657-2.721l0.748-0.551
			l0.504,0.774c0.985,1.521,2.285,2.681,3.86,3.456c1.427,0.7,3.025,1.05,4.624,0.999c2.91-0.086,5.462-1.458,6.661-3.582
			l0.551-0.97l0.812,0.769c1.264,1.205,2.359,1.618,3.338,1.263c1.268-0.46,2.492-2.193,3.57-5
			c-0.358-1.016-0.655-1.613-0.655-1.613h-9.406c0.33-1.693,0.336-3.433,0.197-4.982c-0.492-0.155-0.979-0.385-1.461-0.688
			c-1.263,2.244-3.055,3.604-5.13,3.857c-0.231,0.028-0.463,0.04-0.699,0.04c-1.102,0-2.232-0.311-3.357-0.93
			c-1.147-0.631-2.283-1.579-3.374-2.824c-1.205,1.188-2.503,1.676-3.872,1.452c-1.912-0.309-3.808-2.038-5.633-5.143
			c-0.395,1.826-1.084,5.751-0.655,9.213h-8.543C17.943,28.204,20.765,29.955,22.736,30.615z"/>
		<path fill="#FFFFFF" d="M29.482,1.805c-0.493,0.488-0.736,6.705-0.104,7.118c0.348,0.23,0.909,0,1.031,0.085
			c0.273,0.482,0.11,2.934-0.017,4.438h-4.695c1.542,2.669,3.142,4.259,4.515,4.478c0.979,0.161,1.941-0.368,2.932-1.613
			l0.685-0.861l0.684,0.867c2.156,2.738,4.468,4.104,6.509,3.857c1.722-0.206,3.223-1.556,4.231-3.794l0.47-1.039l0.88,0.729
			c0.326,0.265,0.645,0.488,0.962,0.66c-0.336-1.952-0.787-3.283-0.787-3.283h-7.361l-0.019-0.454
			c0.767-0.103,2.842-0.431,3.212-1.068c0.522-1.188-2.116-10.09-2.573-10.453c-0.18-0.137-0.394-0.211-0.592-0.247
			c0.608-0.333,1.026-0.982,1.026-1.717c0-1.084-0.887-1.962-1.982-1.962c-1.095,0-1.982,0.878-1.982,1.962
			c0,0.793,0.477,1.476,1.154,1.786c-0.116,0.041-0.232,0.098-0.337,0.178c-0.457,0.362-3.095,9.265-2.573,10.453
			c0.458,0.787,3.496,1.103,3.496,1.103v0.419H33.04c-0.127-1.503-0.29-3.949-0.017-4.438c0.122-0.085,0.678,0.145,1.032-0.085
			c0.632-0.414,0.389-6.63-0.104-7.118l-1.136-0.333l-0.099-0.086c0.649-0.378,1.078-1.078,1.078-1.877
			c0-1.205-0.985-2.181-2.202-2.181S29.39-1.696,29.39-0.491c0,0.861,0.503,1.607,1.24,1.963
			C30.618,1.472,29.975,1.317,29.482,1.805z"/>
	</g>
</g>
</svg>
