<?xml version="1.0" encoding="utf-8"?>
<!-- Generator: Adobe Illustrator 15.1.0, SVG Export Plug-In . SVG Version: 6.00 Build 0)  -->
<!DOCTYPE svg PUBLIC "-//W3C//DTD SVG 1.1//EN" "http://www.w3.org/Graphics/SVG/1.1/DTD/svg11.dtd">
<svg version="1.1" id="Layer_1" xmlns="http://www.w3.org/2000/svg" xmlns:xlink="http://www.w3.org/1999/xlink" x="0px" y="0px"
	 width="104px" height="103px" viewBox="0 0 104 103" enable-background="new 0 0 104 103" xml:space="preserve">
<g>
	
		<linearGradient id="SVGID_1_" gradientUnits="userSpaceOnUse" x1="-968.4292" y1="1072.1631" x2="-968.4292" y2="1071.0801" gradientTransform="matrix(95.522 0 0 -95.15 92558.3438 102016.2969)">
		<stop  offset="0" style="stop-color:#FF62A7"/>
		<stop  offset="1" style="stop-color:#FF334B"/>
	</linearGradient>
	<ellipse fill="url(#SVGID_1_)" cx="52" cy="51.5" rx="52" ry="51.5"/>
	<g transform="translate(13.947 15.272)">
		<path fill="#FFFFFF" d="M-2.907,25.982c-0.191,1.171,1.032,1.223,1.032,1.223l79.212,0.005c0,0,1.286-0.057,1.542-1.2
			C75.319,14.508,61.665-2.908,37.867-2.908C14.069-2.908,0.124,15.885-2.907,25.982z M73.204,65.762v-7.464
			c0,0-0.116-1.687-1.738-1.664c-0.384-0.006-1.351-0.012-2.731-0.017c3.838-5.431,1.797-15.814-2.388-23.288
			c5.083-1.085,4.256-4.356,4.256-4.356H54.518c0,0-0.683,3.22,4.208,4.328c-4.189,7.474-6.242,17.869-2.404,23.311
			c-4.139,0-8.475,0.006-12.103,0.011c3.844-5.43,1.803-15.813-2.381-23.293c5.082-1.085,4.252-4.356,4.252-4.356H30.001
			c0,0-0.684,3.22,4.209,4.328c-4.197,7.479-6.243,17.88-2.4,23.322c-3.64-0.005-7.975-0.011-12.101-0.011
			c3.831-5.437,1.791-15.809-2.394-23.282c5.083-1.085,4.254-4.356,4.254-4.356H5.486c0,0-0.684,3.22,4.208,4.328
			c-4.191,7.479-6.242,17.875-2.4,23.317c-1.333,0.005-2.267,0.011-2.643,0.017c-1.623-0.022-1.739,1.664-1.739,1.664v7.464
			c0,0-0.22,1.325,1.391,1.262c2.243,0.093,25.896,0.063,33.754,0.047c7.864,0.011,31.512,0.046,33.756-0.047
			C73.424,67.087,73.204,65.762,73.204,65.762z"/>
	</g>
</g>
</svg>
