<?xml version="1.0" encoding="utf-8"?>
<!-- Generator: Adobe Illustrator 15.1.0, SVG Export Plug-In . SVG Version: 6.00 Build 0)  -->
<!DOCTYPE svg PUBLIC "-//W3C//DTD SVG 1.1//EN" "http://www.w3.org/Graphics/SVG/1.1/DTD/svg11.dtd">
<svg version="1.1" id="Layer_1" xmlns="http://www.w3.org/2000/svg" xmlns:xlink="http://www.w3.org/1999/xlink" x="0px" y="0px"
	 width="104px" height="103px" viewBox="0 0 104 103" enable-background="new 0 0 104 103" xml:space="preserve">
<g>
	
		<linearGradient id="SVGID_1_" gradientUnits="userSpaceOnUse" x1="-968.4292" y1="1072.1641" x2="-968.4292" y2="1071.0811" gradientTransform="matrix(95.522 0 0 -95.15 92558.3438 102016.3594)">
		<stop  offset="0" style="stop-color:#09D9F7"/>
		<stop  offset="1" style="stop-color:#026BE0"/>
	</linearGradient>
	<ellipse fill="url(#SVGID_1_)" cx="52" cy="51.5" rx="52" ry="51.5"/>
	<path fill="#FFFFFF" d="M87.87,66.552l0.464-6.647c0.273-0.046,0.546-0.086,0.813-0.132c1.67-0.266,3.245-0.517,4.63-0.73
		l-0.323-2.1c-1.392,0.212-2.973,0.465-4.649,0.729c-6.926,1.103-15.544,2.474-23.421,3.146c-4.259,0.361-7.848,0.472-10.67,0.321
		c-3.159-0.166-5.425-0.647-6.74-1.43c-1.281-0.757-2.463-1.55-3.553-2.376c2.44-1.694,4.724-3.415,6.839-5.154
		c4.34-3.582,7.855-7.164,10.426-10.643c2.715-3.656,4.342-7.146,4.853-10.372c0.348-2.193,0.168-4.271-0.527-6.165
		c-0.719-1.963-2-3.749-3.803-5.304c-5.216-4.5-11.626-5.614-18.036-3.134c-4.138,1.595-8.074,4.672-11.071,8.656
		c-1.495,1.986-2.729,4.15-3.669,6.435c-0.973,2.365-1.611,4.81-1.883,7.256c-0.504,4.495,0.185,8.794,2.063,12.789
		c0.412,0.879,0.881,1.733,1.396,2.561c-4.932,2.531-10.461,5.103-16.559,7.691l0.846,1.952c0.939-0.402,2.208-0.977,3.704-1.671
		v6.665c-0.585,0.274-1.107,0.511-1.559,0.7l0.846,1.951c6.381-2.716,12.484-5.78,18.129-9.104c0.458-0.269,0.916-0.545,1.368-0.814
		c0.678,0.528,1.391,1.044,2.139,1.544c6.185,4.139,14.687,6.47,25.276,6.923c7.142,0.31,14.993-0.213,24.006-1.591l-0.324-2.1
		L87.87,66.552z M85.936,66.82c-4.799,0.649-9.257,1.04-13.447,1.172v-5.787c4.793-0.586,9.593-1.319,13.911-1.996L85.936,66.82z
		 M57.426,63.325c0.277,0,0.562,0,0.852-0.006l-0.764,3.909c-2.755-0.419-5.304-1.004-7.664-1.745l1.061-2.617
		C52.685,63.17,54.847,63.325,57.426,63.325z M49.022,62.43l-0.985,2.433c-1.843-0.676-3.548-1.457-5.118-2.347l1.935-2.25
		c0.644,0.437,1.316,0.855,2.011,1.269C47.462,61.885,48.181,62.183,49.022,62.43z M51.293,49.279l-1.768-3.92
		c2.753-2.136,5.153-4.064,6.943-6.044c0.25-0.276,0.494-0.557,0.726-0.833l1.814,3.014C56.933,44.038,54.289,46.575,51.293,49.279z
		 M29.646,39.451l3.604,0.305c-0.151,2.015,0,3.984,0.458,5.901l-3.588,1.05C29.559,44.371,29.397,41.943,29.646,39.451z
		 M31.605,32.001l2.979,1.814c-0.498,1.332-0.869,2.698-1.101,4.058l-3.57-0.304c0.313-1.728,0.817-3.449,1.513-5.125
		C31.483,32.294,31.541,32.15,31.605,32.001z M35.482,39.01c0.475-3.811,2.202-7.68,4.863-10.895
		c2.475-2.985,5.61-5.212,8.613-6.114c0.997-0.298,1.953-0.447,2.852-0.447c0.545,0,1.072,0.057,1.582,0.166
		c1.402,0.305,2.607,1.034,3.595,2.164c1.918,2.199,2.556,4.524,1.952,7.112c-0.498,2.147-1.866,4.472-4.075,6.911
		c-2.207,2.445-5.274,5.034-9.116,7.691c-2.313,1.596-4.897,3.221-7.749,4.863c-0.18-0.293-0.348-0.592-0.511-0.885
		C35.697,46.26,35.024,42.707,35.482,39.01z M39.54,25.79l-1.322-3.03c1.641-1.475,3.419-2.692,5.269-3.594l-1.043,3.766
		l0.168,0.046C41.539,23.799,40.508,24.74,39.54,25.79z M54.702,17.926c1.854,0.522,3.621,1.429,5.28,2.698l-2.609,0.682
		c-1.037-0.826-2.214-1.383-3.529-1.67c-0.173-0.04-0.354-0.068-0.532-0.097L54.702,17.926z M60.248,39.877l-1.808-3.008
		c1.315-1.854,2.178-3.663,2.585-5.402c0.052-0.218,0.092-0.43,0.126-0.643l2.574,2.664C63.025,35.508,61.859,37.644,60.248,39.877z
		 M63.998,25.716c0.568,1.556,0.714,3.278,0.423,5.114c-0.029,0.178-0.059,0.351-0.093,0.528l-3.076-3.179
		c-0.198-1.872-0.98-3.651-2.325-5.315l2.771-0.73C62.758,23.23,63.529,24.436,63.998,25.716z M50.813,17.387
		c0.585,0,1.171,0.034,1.75,0.109l-1.686,1.975c-0.823,0.074-1.675,0.241-2.539,0.499c-1.182,0.356-2.359,0.873-3.506,1.533
		l0.904-3.25C47.434,17.68,49.138,17.387,50.813,17.387z M34.821,26.479c0.609-0.804,1.252-1.572,1.937-2.291l1.408,3.232
		c-1.118,1.447-2.075,3.008-2.833,4.626l-2.904-1.768C33.118,28.953,33.918,27.679,34.821,26.479z M30.644,48.527l3.592-1.051
		c0.36,1.051,0.817,2.084,1.362,3.095c0.168,0.315,0.348,0.625,0.54,0.935c-1.043,0.581-2.116,1.16-3.223,1.746
		c-0.51-0.799-0.962-1.625-1.356-2.469C31.205,50.048,30.904,49.291,30.644,48.527z M20.917,61.322
		c3.941-1.878,8.92-4.346,13.522-6.745l0.805,5.613c-5.158,2.997-10.508,5.879-14.327,7.767V61.322z M37.024,59.146l-0.789-5.516
		c4.811-2.549,8.979-4.919,10.74-6.291c0.337-0.264,0.667-0.522,0.998-0.775l1.826,4.053C47.352,52.774,42.408,55.966,37.024,59.146
		z M39.73,60.421c0.962-0.603,1.907-1.218,2.835-1.831c0.237,0.189,0.487,0.379,0.735,0.563l-2.022,2.347
		c-0.053-0.034-0.105-0.067-0.151-0.103C40.646,61.081,40.183,60.753,39.73,60.421z M65.291,67.962
		c-2.047-0.085-4.006-0.246-5.883-0.476l0.829-4.219c1.64-0.063,3.419-0.172,5.338-0.333c1.646-0.138,3.32-0.31,5.001-0.499v5.602
		C68.769,68.061,67.006,68.037,65.291,67.962z"/>
</g>
</svg>
