<?xml version="1.0" encoding="utf-8"?>
<!-- Generator: Adobe Illustrator 15.1.0, SVG Export Plug-In . SVG Version: 6.00 Build 0)  -->
<!DOCTYPE svg PUBLIC "-//W3C//DTD SVG 1.1//EN" "http://www.w3.org/Graphics/SVG/1.1/DTD/svg11.dtd">
<svg version="1.1" id="Layer_1" xmlns="http://www.w3.org/2000/svg" xmlns:xlink="http://www.w3.org/1999/xlink" x="0px" y="0px"
	 width="104px" height="103px" viewBox="0 0 104 103" enable-background="new 0 0 104 103" xml:space="preserve">
<g>
	
		<linearGradient id="SVGID_1_" gradientUnits="userSpaceOnUse" x1="-968.4292" y1="1072.1641" x2="-968.4292" y2="1071.0811" gradientTransform="matrix(95.522 0 0 -95.15 92558.3438 102016.3594)">
		<stop  offset="0" style="stop-color:#09D9F7"/>
		<stop  offset="1" style="stop-color:#026BE0"/>
	</linearGradient>
	<ellipse fill="url(#SVGID_1_)" cx="52" cy="51.5" rx="52" ry="51.5"/>
	<path fill="#FFFFFF" d="M90.131,44.957c-0.741-7.296-3.117-13.501-7.069-18.449c-3.345-4.19-7.82-7.445-13.296-9.666
		c-5.995-2.434-13.285-3.662-21.677-3.662v3.271c0.307,0,0.614,0,0.921,0.006v39.624h-0.487c0,0-0.162,2.349,0.551,4.185
		c-10.039-1.188-14.872,3.318-16.687,6.503c-1.234-4.958-8.033-10.859-14.953-5.637c0.91,0.688,5.703,7.692-0.667,12.284
		c5.506,4.85,13.44,1.643,15.388-2.313c4.016,5.987,14.814,7.106,18.604,6.436c-1.275-1.184-2.283-2.343-3.02-3.467
		c-1.13-1.729-1.652-3.444-1.565-5.092c0.122-2.206,1.298-4.271,3.593-6.314c0.742-0.661,1.547-1.269,2.376-1.849
		c-0.075-0.029-0.145-0.058-0.214-0.08c-0.4-0.081-0.794-0.155-1.183-0.225c-0.614-1.503-0.035-4.431-0.035-4.431h-0.556V16.474
		c14.009,0.362,24.197,4.415,30.3,12.06c3.553,4.449,5.697,10.085,6.377,16.75c0.562,5.534,0.08,11.721-1.397,17.886l3.215,0.753
		C90.225,57.407,90.734,50.852,90.131,44.957z"/>
	<path fill="#FFFFFF" d="M53.988,61.735c-1.06,0.694-2.098,1.44-3.008,2.25c-1.924,1.711-2.88,3.381-3.002,5.086
		c-0.266,3.737,1.495,5.033,4.834,7.898c3.159-1.142,8.154-4.432,8.52-6.366C60.388,67.332,57.194,63.658,53.988,61.735z"/>
</g>
</svg>
