<?xml version="1.0" encoding="utf-8"?>
<!-- Generator: Adobe Illustrator 15.1.0, SVG Export Plug-In . SVG Version: 6.00 Build 0)  -->
<!DOCTYPE svg PUBLIC "-//W3C//DTD SVG 1.1//EN" "http://www.w3.org/Graphics/SVG/1.1/DTD/svg11.dtd">
<svg version="1.1" id="Layer_1" xmlns="http://www.w3.org/2000/svg" xmlns:xlink="http://www.w3.org/1999/xlink" x="0px" y="0px"
	 width="104px" height="103px" viewBox="0 0 104 103" enable-background="new 0 0 104 103" xml:space="preserve">
<g>
	
		<linearGradient id="SVGID_1_" gradientUnits="userSpaceOnUse" x1="-968.4292" y1="1072.1641" x2="-968.4292" y2="1071.0811" gradientTransform="matrix(95.522 0 0 -95.15 92558.3438 102016.3594)">
		<stop  offset="0" style="stop-color:#09D9F7"/>
		<stop  offset="1" style="stop-color:#026BE0"/>
	</linearGradient>
	<ellipse fill="url(#SVGID_1_)" cx="52.005" cy="51.5" rx="52.005" ry="51.5"/>
	<ellipse fill="#FFFFFF" cx="51.635" cy="43.74" rx="4.782" ry="4.736"/>
	<path fill="#FFFFFF" d="M37.132,28.235c-1.565-2.291-4.179-3.462-8.086-4.489c-0.597,1.027-1.072,2.141-1.402,3.306
		c3.802,1.114,7.088,1.768,9.976,1.986C37.468,28.758,37.306,28.493,37.132,28.235z M39.039,35.594
		c-0.081-1.888-0.313-3.461-0.713-4.776c-0.156-0.005-0.313-0.017-0.469-0.028c-3.066-0.201-6.55-0.873-10.59-2.043
		c-0.122,0.747-0.18,1.515-0.18,2.296c0,2.072,0.435,4.041,1.217,5.832c3.762,2.703,7.263,4.386,10.572,5.08
		C39.067,39.451,39.119,37.361,39.039,35.594z M38.575,27.271c0.382,0.563,0.712,1.177,0.997,1.854
		c2.991,0.017,5.501-0.494,7.64-1.567c2.4-1.2,4.394-3.146,6.058-5.953c-2.719-3.208-6.8-5.247-11.356-5.247
		c-4.852,0-9.158,2.308-11.865,5.879C33.979,23.327,36.801,24.671,38.575,27.271z M38.731,43.682
		c-2.654-0.528-5.414-1.642-8.295-3.352c2.041,2.474,4.88,4.271,8.127,5.016C38.621,44.772,38.68,44.216,38.731,43.682z
		 M45.171,43.808c-0.939,0.155-1.878,0.236-2.828,0.236c-0.441,0-0.875-0.017-1.322-0.051c-0.191-0.012-0.382-0.029-0.574-0.052
		c-0.052,0.545-0.11,1.108-0.174,1.688c0.539,0.057,1.084,0.092,1.634,0.092c1.194,0,2.348-0.138,3.461-0.402
		C45.247,44.835,45.177,44.33,45.171,43.808z M51.634,37.339c0.922,0,1.797,0.195,2.592,0.539c0.423-0.298,0.845-0.608,1.258-0.93
		c0.8-1.808,1.251-3.806,1.251-5.906c0-2.922-0.862-5.648-2.353-7.933c-1.762,2.772-3.866,4.729-6.394,5.992
		c-2.249,1.126-4.829,1.699-7.848,1.745c0.707,2.704,0.846,6.309,0.453,11.377l0.556,0.051c1.362,0.104,2.806-0.023,4.283-0.344
		C46.226,39.279,48.707,37.339,51.634,37.339z"/>
	<path fill="#FFFFFF" d="M33.149,56.437l-0.006,0.046c1.728,0.218,3.437,0.659,5.112,1.319c-1.356-2.33-3.136-4.391-5.234-6.078
		C33.323,53.331,33.364,54.892,33.149,56.437z M19.841,59.249c3.119-1.772,6.417-2.75,9.808-2.904
		c0.591-0.028,1.177-0.028,1.762-0.006l0.018-0.138c0.267-1.945,0.075-3.938-0.603-6.033c-3.403-2.112-7.425-3.335-11.732-3.335
		c-1.681,0-3.315,0.184-4.893,0.54c0.122,4.838,1.125,9.466,2.858,13.718C17.951,60.415,18.878,59.795,19.841,59.249z
		 M29.729,58.067c-3.112,0.142-6.144,1.044-9.02,2.674c-1.02,0.581-2.005,1.247-2.938,1.993c1.194,2.587,2.666,5.021,4.376,7.271
		c2.151-1.876,3.907-3.667,5.292-5.413c1.792-2.243,2.974-4.396,3.594-6.544C30.599,58.044,30.164,58.044,29.729,58.067z
		 M38.424,59.742c-1.837-0.809-3.721-1.332-5.623-1.561c-0.655,2.479-1.971,4.941-4,7.479c-1.467,1.844-3.316,3.726-5.582,5.699
		c3.669,4.416,8.283,8.026,13.541,10.523c2.782-3.662,4.434-8.214,4.434-13.151c0-3.008-0.614-5.877-1.722-8.489
		C39.125,60.063,38.778,59.898,38.424,59.742z"/>
	<path fill="#FFFFFF" d="M78.124,49.795c-0.231-0.7-0.505-1.383-0.818-2.031c-1.314-2.722-3.216-4.741-5.494-5.838
		c-2.023-0.976-4.278-1.2-6.694-0.661c-1.021,0.23-2.069,0.591-3.13,1.085c-0.326,0.482-0.627,0.987-0.904,1.504
		c4.022,2.698,8.183,4.558,12.132,5.407C74.912,49.629,76.56,49.807,78.124,49.795z M84.835,50.243
		c-1.378,0.574-2.886,0.953-4.485,1.143c0.371,1.729,0.521,3.524,0.446,5.298c-0.105,2.365-0.614,4.627-1.483,6.67
		c2.666-0.201,5.181-0.78,7.378-1.728c2.829-1.211,5.008-2.945,6.422-5.051c0.43-1.5,0.662-3.077,0.662-4.713
		c0-2.922-0.736-5.666-2.035-8.076C90.324,46.713,87.967,48.94,84.835,50.243z M78.6,51.506c-0.197,0.006-0.395,0.012-0.592,0.012
		c-1.652,0-3.385-0.189-5.164-0.574c-4.081-0.878-8.371-2.766-12.504-5.504c-0.812,1.985-1.258,4.155-1.258,6.423
		c0,2.394,0.493,4.673,1.386,6.738c4.092,2.48,8.626,4.069,13.21,4.615c1.234,0.15,2.47,0.218,3.681,0.213
		c1.004-2.044,1.582-4.368,1.692-6.825C79.138,54.893,78.976,53.159,78.6,51.506z M64.729,39.589
		c2.811-0.625,5.447-0.361,7.836,0.792c2.637,1.274,4.817,3.571,6.302,6.642c0.41,0.85,0.759,1.75,1.043,2.68
		c1.524-0.155,2.951-0.504,4.248-1.044c1.96-0.815,3.57-2.031,4.794-3.628c0.695-0.907,1.253-1.923,1.67-3.036
		c-3.136-4.42-8.33-7.308-14.197-7.308c-4.793,0-9.134,1.929-12.275,5.04C64.345,39.676,64.537,39.63,64.729,39.589z M76.379,65.145
		c-0.962-0.028-1.931-0.098-2.904-0.212c-3.93-0.471-7.819-1.665-11.447-3.496c2.498,3.68,6.398,6.354,10.944,7.262
		C74.305,67.728,75.446,66.547,76.379,65.145z M87.381,63.204c-1.982,0.851-4.18,1.431-6.527,1.729
		c-0.8,0.098-1.611,0.166-2.428,0.201c-0.128,0.229-0.268,0.453-0.405,0.671c-0.767,1.207-1.665,2.273-2.691,3.203
		c0.366,0.022,0.73,0.035,1.095,0.035c6.122,0,11.502-3.14,14.591-7.882C89.937,61.947,88.726,62.631,87.381,63.204z"/>
</g>
</svg>
