<?xml version="1.0" encoding="utf-8"?>
<!-- Generator: Adobe Illustrator 15.1.0, SVG Export Plug-In . SVG Version: 6.00 Build 0)  -->
<!DOCTYPE svg PUBLIC "-//W3C//DTD SVG 1.1//EN" "http://www.w3.org/Graphics/SVG/1.1/DTD/svg11.dtd">
<svg version="1.1" id="Layer_1" xmlns="http://www.w3.org/2000/svg" xmlns:xlink="http://www.w3.org/1999/xlink" x="0px" y="0px"
	 width="104px" height="103px" viewBox="0 0 104 103" enable-background="new 0 0 104 103" xml:space="preserve">
<g>
	
		<linearGradient id="SVGID_1_" gradientUnits="userSpaceOnUse" x1="-968.4292" y1="1072.1631" x2="-968.4292" y2="1071.0801" gradientTransform="matrix(95.522 0 0 -95.15 92558.3438 102016.2969)">
		<stop  offset="0" style="stop-color:#E087E2"/>
		<stop  offset="1" style="stop-color:#892390"/>
	</linearGradient>
	<ellipse fill="url(#SVGID_1_)" cx="52" cy="51.5" rx="52" ry="51.5"/>
	<g transform="translate(15.438 21.317)">
		<path fill="#FFFFFF" d="M39.42,30.729c0-2.824-4.781-2.709-6.868-2.52c-0.539-3.748-2.278-7.209-5.025-9.93
			c-3.355-3.324-7.824-5.161-12.571-5.161c-4.747,0-9.215,1.831-12.571,5.161c-3.355,3.323-5.21,7.75-5.21,12.45
			c0,4.701,1.849,9.127,5.21,12.45c3.356,3.324,7.825,5.16,12.571,5.16c4.747,0,9.216-1.831,12.571-5.16
			c2.446-2.422,4.092-5.431,4.805-8.708C34.279,34.328,39.42,33.661,39.42,30.729z M24.496,40.178
			c-2.55,2.524-5.935,3.913-9.54,3.913c-3.605,0-6.99-1.389-9.54-3.913c-2.55-2.526-3.952-5.879-3.952-9.449
			s1.402-6.922,3.947-9.449c2.55-2.525,5.935-3.914,9.54-3.914c3.605,0,6.99,1.389,9.541,3.914c2.55,2.526,3.953,5.878,3.953,9.449
			S27.041,37.652,24.496,40.178z M56.141,53.637c-1.107-2.008-2.556-3.892-4.318-5.602c-1.854-1.803-3.662-3.031-4.798-3.72
			c-4.197,4.648-12.091,7.232-12.091,13.047c0,3.444,15.011,8.077,23.479,2.756c0,0,0.006,0,0.006-0.005
			C58.03,57.851,57.266,55.675,56.141,53.637z"/>
		<path fill="#FFFFFF" d="M56.536,39.097c-2.394-1.09-4.445-1.881-5.924-2.403c-0.052,2.181-1.419,3.484-2.561,5.051
			c-0.187,0.253-0.32,0.465-0.413,0.649c1.165,0.671,3.298,2.049,5.524,4.194c1.912,1.849,3.488,3.893,4.694,6.073
			c1.287,2.319,2.145,4.8,2.567,7.388c7.669-4.447,9.123-10.521,9.882-12.812C65.217,43.42,60.175,40.762,56.536,39.097z
			 M74.821,15.419c-0.028-0.017-0.058-0.034-0.086-0.057c-2.667-0.058-5.629,0.453-8.815,1.521c-2.841,0.953-5.86,2.349-8.979,4.145
			c-3.681,2.119-6.619,4.306-8.098,5.459c-0.457,2.652-0.572,5.391,0.945,7.864c1.443,0.466,4.133,1.401,7.529,2.95
			c4.121,1.876,9.999,5.005,15.748,9.603c0.063-0.067,0.127-0.137,0.19-0.212C78.705,40.66,78.878,18.1,74.821,15.419z
			 M58.658-1.169c-2.517,1.848-5.432,5.218-8.4,11.222c-2.206,4.471-3.639,8.806-4.212,10.671c0.614,1.538,1.523,2.318,2.438,3.576
			c1.664-1.257,4.284-3.117,7.472-4.954c3.229-1.86,6.37-3.313,9.338-4.305c2.464-0.827,4.811-1.338,7.019-1.539
			c-0.539-2.899-5.478-14.689-12.381-14.689C59.386-1.187,58.97-1.18,58.658-1.169z M45.592,15.937
			c0.735-1.975,1.705-4.328,2.897-6.745c1.781-3.594,3.692-6.572,5.692-8.856c0.748-0.85,1.507-1.608,2.279-2.268h-0.008
			c-3.535-1.033-15.01-0.861-20.807,5.39C32.21,7.165,42.307,11.098,45.592,15.937z"/>
	</g>
</g>
</svg>
