<?xml version="1.0" encoding="utf-8"?>
<!-- Generator: Adobe Illustrator 15.1.0, SVG Export Plug-In . SVG Version: 6.00 Build 0)  -->
<!DOCTYPE svg PUBLIC "-//W3C//DTD SVG 1.1//EN" "http://www.w3.org/Graphics/SVG/1.1/DTD/svg11.dtd">
<svg version="1.1" id="Layer_1" xmlns="http://www.w3.org/2000/svg" xmlns:xlink="http://www.w3.org/1999/xlink" x="0px" y="0px"
	 width="104px" height="103px" viewBox="0 0 104 103" enable-background="new 0 0 104 103" xml:space="preserve">
<g>
	
		<linearGradient id="SVGID_1_" gradientUnits="userSpaceOnUse" x1="-968.4292" y1="1072.1631" x2="-968.4292" y2="1071.0801" gradientTransform="matrix(95.522 0 0 -95.15 92558.3438 102016.2969)">
		<stop  offset="0" style="stop-color:#E087E2"/>
		<stop  offset="1" style="stop-color:#892390"/>
	</linearGradient>
	<ellipse fill="url(#SVGID_1_)" cx="52" cy="51.5" rx="52" ry="51.5"/>
	<path fill="#FFFFFF" d="M56.174,58.245c0,0-0.059-15.206,0.348-16.469c-0.214-0.465-3.188,0.574-7.477-4.518
		c-2.781,1.647-10.316,0-5.737-5.987c-2.087-0.803-3.651-4.133,4.115-5.337c-5.042-4.536,5.796-14.982,13.329-8.094
		c2.783-2.009,8.754-2.239,7.014,3.444c2.261-0.229,6.377,1.608,3.362,5.683c1.797-0.115,5.622,1.493,2.607,5.906
		c4.058,1.269,3.536,9.19-5.97,7.583c-1.216,1.034-3.783,2.87-8.172,0.918c-0.44,2.854-0.464,17.277-0.464,17.277L56.174,58.245z
		 M48.813,51.013c-0.301-0.282-2.539-0.396-5.292-0.333c0.116-1.401,0.243-5.837-2.707-5.837c-2.712,0-2.776,4.161-2.649,6.158
		c-3.321,0.333-6.166,0.925-6.334,1.798c-0.023,1.313,0.406,3.281,2.898,5.212c1.826,1.412,11.359,1.096,13.041-0.281
		C49.103,56.639,49.792,51.919,48.813,51.013z M40.061,50.84c-0.076-1.55-0.069-4.047,0.812-4.047c0.776,0,0.759,2.48,0.684,3.955
		C41.063,50.777,40.56,50.805,40.061,50.84z"/>
	<path fill="#FFFFFF" d="M45.579,69.684c0.783-0.436,1.687-0.923,2.678-1.45c-2.121-1.355-4.597-2.751-7.408-4.181l-0.892-0.446
		c-1.56,0.59-2.951,1.165-4.156,1.716c3.002,1.2,5.582,2.313,7.685,3.313C44.251,69.001,44.946,69.352,45.579,69.684z
		 M52.047,70.896c-0.597-0.47-1.24-0.946-1.936-1.429c-0.916,0.477-1.762,0.93-2.527,1.344c0.765,0.471,1.386,0.907,1.867,1.313
		C50.192,71.758,51.056,71.343,52.047,70.896z M33.338,64.357c1.287-0.666,2.736-1.309,4.225-1.911
		c-1.652-0.78-3.193-1.47-4.509-2.038c-2.667,0.367-4.961,0.81-6.92,1.281C28.243,62.44,30.753,63.359,33.338,64.357z M46.06,59.45
		c-3.408,0.069-6.462,0.247-9.192,0.511c1.02,0.466,2.098,0.976,3.205,1.515C42.258,60.672,44.385,59.973,46.06,59.45z
		 M57.072,63.91c-0.429-0.247-0.869-0.494-1.328-0.741c-2.874-1.543-5.286-2.462-6.085-2.755c-0.922,0.265-3.866,1.119-7.181,2.279
		c2.991,1.544,5.582,3.043,7.772,4.5c1.229-0.631,2.563-1.291,3.965-1.963C55.182,64.771,56.133,64.329,57.072,63.91z
		 M77.388,63.691c-8.068,2.521-19.928,6.521-27.659,10.487l-0.672,0.344l-0.51-0.556c-2.73-2.974-17.48-8.518-25.705-11.377
		c-4.891,1.533-6.717,3.043-6.717,3.043s11.823,20.687,34.254,20.687c27.646,0,36.687-19.751,36.687-19.751
		S83.107,65.214,77.388,63.691z M72.089,63.33c0.579-0.189,1.147-0.372,1.71-0.556c-1.687-0.415-3.466-0.822-5.299-1.2
		c-2.264,0.711-4.693,1.606-7.262,2.663c0.854,0.592,1.717,1.24,2.557,1.94C66.247,65.295,69,64.341,72.089,63.33z M61.651,66.97
		c-0.766-0.592-1.618-1.206-2.556-1.819c-1.305,0.567-2.639,1.183-4.006,1.831c-1.049,0.499-2.057,0.993-3.014,1.475
		c0.713,0.522,1.374,1.033,1.982,1.545C56.127,69.11,58.632,68.094,61.651,66.97z M59.268,62.944
		c1.85-0.791,3.641-1.496,5.356-2.122c-4.051-0.718-8.207-1.246-12.062-1.354c1.119,0.481,2.533,1.136,4.092,1.968
		C57.455,61.867,58.342,62.372,59.268,62.944z"/>
</g>
</svg>
