<?xml version="1.0" encoding="utf-8"?>
<!-- Generator: Adobe Illustrator 15.1.0, SVG Export Plug-In . SVG Version: 6.00 Build 0)  -->
<!DOCTYPE svg PUBLIC "-//W3C//DTD SVG 1.1//EN" "http://www.w3.org/Graphics/SVG/1.1/DTD/svg11.dtd">
<svg version="1.1" id="Layer_1" xmlns="http://www.w3.org/2000/svg" xmlns:xlink="http://www.w3.org/1999/xlink" x="0px" y="0px"
	 width="104px" height="103px" viewBox="0 0 104 103" enable-background="new 0 0 104 103" xml:space="preserve">
<g>
	
		<linearGradient id="SVGID_1_" gradientUnits="userSpaceOnUse" x1="-968.4292" y1="1072.1631" x2="-968.4292" y2="1071.0801" gradientTransform="matrix(95.522 0 0 -95.15 92558.3438 102016.2969)">
		<stop  offset="0" style="stop-color:#D4EB31"/>
		<stop  offset="1" style="stop-color:#5AB20C"/>
	</linearGradient>
	<ellipse fill="url(#SVGID_1_)" cx="52" cy="51.5" rx="52" ry="51.5"/>
	<g transform="translate(13.415 22.913)">
		<path fill="#FFFFFF" d="M49.272,36.835c1.509-0.551,3.072-0.958,4.487-1.183c-0.354-2.009-1.219-6.383-2.383-8.392
			c-2.046,0.327-4.069,0.861-5.993,1.59c2.168,2.457,3.137,6.498,3.454,8.145C49,36.933,49.144,36.874,49.272,36.835z
			 M44.067,40.209c0.045-0.108,0.109-0.217,0.187-0.325c0.428-0.644,1.222-1.229,2.086-1.718c-0.667-1.526-2.684-5.71-5.379-7.175
			c-1.769,1.068-3.327,2.302-4.625,3.675C41.257,35.659,43.337,38.729,44.067,40.209z M58.065,38.098
			c0.213-0.355,0.155-0.568,0.069-0.729c-0.204-0.379-0.991-0.604-2.116-0.604c-1.698,0-4.052,0.488-6.294,1.304
			c-2.608,0.947-3.966,1.928-4.365,2.53c-0.109,0.167-0.15,0.3-0.109,0.385c0.208,0.482,1.17,0.776,2.567,0.776
			C51.566,41.766,57.026,39.814,58.065,38.098z M44.026,41.513c-6.636-4.988-9.91,4.322-10.716,7.09
			c1.437,1.543,3.199,2.767,5.257,3.655l0.15,0.063c0.505-7.163,4.659-9.265,6.254-9.81C44.554,42.276,44.217,41.955,44.026,41.513z
			 M52.188,42.489c-1.548,0.385-3.083,0.598-4.364,0.598c-0.417,0-0.869-0.023-1.31-0.093c-0.608,1.153-2.093,4.685-1.483,10.849
			c0.84,0.081,1.709,0.121,2.603,0.121c1.448,0,2.933-0.109,4.41-0.317C51.086,48.28,51.794,44.159,52.188,42.489z M61.026,37.042
			c0,0,1.965-5.747,7.319-6.896c-0.613-0.406-1.269-0.78-1.965-1.118c-1.391-0.678-2.921-1.2-4.555-1.562
			c-3.392,2.452-4.475,6.383-4.794,8.037c1.154,0.142,1.925,0.562,2.289,1.245c0.245,0.447,0.418,1.164-0.104,2.025
			c-0.476,0.787-1.403,1.453-2.382,1.985c2.145,0.421,5.425,2.251,7.17,9.122c2.759-1.412,5.151-3.117,6.92-4.982
			C66.526,35.773,61.026,37.042,61.026,37.042z M-3.018,26.99c1.738,48.309,79.119,54.682,83.049-1.377
			C69.436,21.411,33.953,18.547-3.018,26.99z M2.743,32.582c2.435-2.234,21.77-6.751,28.516-3.72c0.093,0.373-1.832,0.54-6.746,0.62
			C16.242,29.619,3.067,33.443,2.743,32.582z M68.056,26.405c-1.535-0.247-3.158-0.35-4.78-0.35c1.367,0.367,2.667,0.85,3.865,1.43
			c3.507,1.705,6.108,4.207,7.72,7.445c1.362,2.726,1.107,5.729-0.741,8.679c-2.029,3.243-5.884,6.273-10.851,8.547
			c-4.978,2.272-10.53,3.529-15.642,3.529c-3.635,0-6.915-0.618-9.755-1.848c-3.164-1.365-5.697-3.45-7.523-6.199l-0.122-0.178
			l-0.018-0.212c-0.307-3.233,0.25-6.32,1.617-9.127c-7.934,0.246-17.457,2.013-17.66,1.269c1.722-1.327,10.769-2.997,18.616-2.979
			c0.597-0.947,1.292-1.854,2.087-2.716c2.434-2.646,5.75-4.838,9.592-6.337c3.193-1.245,6.648-1.985,10.079-2.164
			c5.899-1.36,15.3-1.952,23.798,2.394C78.368,27.966,72.907,27.191,68.056,26.405z"/>
		<path fill="none" stroke="#FFFFFF" stroke-width="1.802" d="M21.898,13.811c0,0,36.654-3.846,57.169,2.325 M-2.474,18.11
			c0,0,4.087-1.716,9.477-1.975"/>
		<path fill="none" stroke="#FFFFFF" stroke-width="2.173" d="M7.003,23.971C6.308-3.151,18.467-11.583,17.807,14.385
			 M21.203,23.914C20.507-3.208,32.667-12.329,32.006,13.639 M6.974,21.543c0,0,7.796-1.618,13.87-1.572 M7.461,13.192
			c0,0,8.514-2.078,14.374-1.372"/>
	</g>
</g>
</svg>
