<?xml version="1.0" encoding="utf-8"?>
<!-- Generator: Adobe Illustrator 15.1.0, SVG Export Plug-In . SVG Version: 6.00 Build 0)  -->
<!DOCTYPE svg PUBLIC "-//W3C//DTD SVG 1.1//EN" "http://www.w3.org/Graphics/SVG/1.1/DTD/svg11.dtd">
<svg version="1.1" id="Layer_1" xmlns="http://www.w3.org/2000/svg" xmlns:xlink="http://www.w3.org/1999/xlink" x="0px" y="0px"
	 width="104px" height="103px" viewBox="0 0 104 103" enable-background="new 0 0 104 103" xml:space="preserve">
<g>
	
		<linearGradient id="SVGID_1_" gradientUnits="userSpaceOnUse" x1="-968.4292" y1="1072.1631" x2="-968.4292" y2="1071.0801" gradientTransform="matrix(95.522 0 0 -95.15 92558.3438 102016.2969)">
		<stop  offset="0" style="stop-color:#E087E2"/>
		<stop  offset="1" style="stop-color:#892390"/>
	</linearGradient>
	<ellipse fill="url(#SVGID_1_)" cx="52" cy="51.5" rx="52" ry="51.5"/>
	<path fill="#FFFFFF" d="M77.033,32.925L74.5,35.061c2.087,2.439,3.779,5.16,5.042,8.116c1.67,3.909,2.516,8.054,2.516,12.33
		s-0.846,8.427-2.516,12.329c-1.611,3.771-3.917,7.159-6.856,10.068c-2.938,2.91-6.357,5.195-10.166,6.791
		c-3.946,1.652-8.131,2.492-12.449,2.492c-4.318,0-8.508-0.84-12.449-2.492c-3.808-1.596-7.228-3.881-10.166-6.791
		c-2.938-2.909-5.245-6.297-6.856-10.068c-1.669-3.908-2.516-8.053-2.516-12.329s0.846-8.427,2.516-12.33
		c1.611-3.771,3.918-7.158,6.856-10.068c2.938-2.91,6.358-5.194,10.166-6.791c3.947-1.653,8.131-2.491,12.449-2.491
		c0.012,0,0.018,0,0.03,0l-0.018-3.295c-0.005,0-0.005,0-0.012,0c-19.502,0-35.313,15.659-35.313,34.975
		c0,19.316,15.811,34.975,35.313,34.975c19.503,0,35.314-15.658,35.314-34.975C85.385,46.896,82.244,39.015,77.033,32.925z
		 M58.504,12.76c2.961,0.212,7.285,0.867,11.047,2.784c3.657,1.865,6.85,4.552,8.885,6.475c0.504,0.476,0.963,0.93,1.367,1.343
		l3.096-2.83c0,0-1.739-4.477-11.215-8.524c-9.477-4.046-15.139-3.271-15.139-3.271l-0.162,3.926
		C57.031,12.68,57.745,12.702,58.504,12.76z"/>
	<path fill="#FFFFFF" d="M77.247,44.141c-1.165-2.727-2.724-5.235-4.642-7.48l-0.29,0.248c0.15-2.193,0.556-5.522,1.656-8.197
		l4.644-4.248c-2.145-2.175-5.703-5.391-9.807-7.486c-4.22-2.152-9.267-2.64-12.49-2.697l-0.464,11.141
		c-0.834,1.854-1.547,2.451-5.744,2.084l-0.005-1.2c-0.012,0-0.029,0-0.041,0c-3.981,0-7.847,0.775-11.481,2.296
		c-3.512,1.47-6.666,3.576-9.378,6.263c-2.707,2.681-4.833,5.81-6.323,9.287c-1.536,3.6-2.318,7.428-2.318,11.371
		c0,3.944,0.782,7.772,2.318,11.371c1.484,3.479,3.611,6.602,6.323,9.288c2.707,2.681,5.866,4.787,9.378,6.263
		c3.634,1.521,7.5,2.296,11.481,2.296c3.982,0,7.847-0.775,11.482-2.296c3.512-1.47,6.664-3.576,9.378-6.263
		c2.706-2.681,4.833-5.809,6.322-9.288c1.536-3.599,2.318-7.427,2.318-11.371C79.565,51.58,78.783,47.74,77.247,44.141z
		 M68.396,40.204c-0.411-0.172-0.787-0.419-1.037-0.787c-0.811-1.206,0.109-5.453,2.283-5.74c1.356-0.178,1.495,2.353,1.408,4.288
		L68.396,40.204z M60.37,46.971c-0.551-1.773-0.747-4.437,1.716-6.722c2.41-2.239,4.045-0.638,4.989,1.068L60.37,46.971z
		 M66.791,19.562c2.227,0,4.028,1.785,4.028,3.99c0,2.204-1.802,3.989-4.028,3.989c-2.225,0-4.027-1.785-4.027-3.989
		C62.764,21.347,64.566,19.562,66.791,19.562z M56.991,49.824l-4.208,3.548c-0.272-1.602-0.313-4.007,1.246-5.74
		C57.252,44.044,57.368,47.04,56.991,49.824z M50.215,49.043l-0.029-6.405c0.562,0.195,1.09,0.614,1.408,1.435
		C52.099,45.364,51.206,47.379,50.215,49.043z M53.334,32.356c1.448,1.837,0.695,6.717-0.58,7.692
		c-0.614,0.47-1.623,0.643-2.579,0.688l-0.046-9.528C51.444,31.306,52.736,31.604,53.334,32.356z M32.011,70.041
		c-2.55,0-4.614-2.043-4.614-4.568c0-2.527,2.064-4.57,4.614-4.57c2.549,0,4.613,2.043,4.613,4.57
		C36.624,67.991,34.561,70.041,32.011,70.041z M34.555,50.667c-3.107,0-5.622-2.491-5.622-5.568s2.515-5.568,5.622-5.568
		c3.106,0,5.622,2.491,5.622,5.568S37.662,50.667,34.555,50.667z M49.044,68.663c-2.579,0-4.671-2.071-4.671-4.627
		c0-2.555,2.092-4.627,4.671-4.627c2.58,0,4.671,2.072,4.671,4.627C53.716,66.592,51.624,68.663,49.044,68.663z M58.092,78.479
		c-2.706,0-4.902-2.175-4.902-4.856c0-2.68,2.196-4.855,4.902-4.855c2.707,0,4.904,2.176,4.904,4.855
		C62.996,76.304,60.799,78.479,58.092,78.479z M67.956,61.574c-2.741,0-4.96-2.198-4.96-4.914c0-2.715,2.219-4.913,4.96-4.913
		c2.743,0,4.962,2.198,4.962,4.913C72.924,59.376,70.699,61.574,67.956,61.574z"/>
</g>
</svg>
