<?xml version="1.0" encoding="utf-8"?>
<!-- Generator: Adobe Illustrator 15.1.0, SVG Export Plug-In . SVG Version: 6.00 Build 0)  -->
<!DOCTYPE svg PUBLIC "-//W3C//DTD SVG 1.1//EN" "http://www.w3.org/Graphics/SVG/1.1/DTD/svg11.dtd">
<svg version="1.1" id="Layer_1" xmlns="http://www.w3.org/2000/svg" xmlns:xlink="http://www.w3.org/1999/xlink" x="0px" y="0px"
	 width="104px" height="103px" viewBox="0 0 104 103" enable-background="new 0 0 104 103" xml:space="preserve">
<g>
	
		<linearGradient id="SVGID_1_" gradientUnits="userSpaceOnUse" x1="-968.4292" y1="1072.1641" x2="-968.4292" y2="1071.0811" gradientTransform="matrix(95.522 0 0 -95.15 92558.3438 102016.3594)">
		<stop  offset="0" style="stop-color:#09D9F7"/>
		<stop  offset="1" style="stop-color:#026BE0"/>
	</linearGradient>
	<ellipse fill="url(#SVGID_1_)" cx="52" cy="51.5" rx="52" ry="51.5"/>
	<g transform="translate(14.533 16.014)">
		<path fill="#FFFFFF" d="M50.857,38.058c2.318,0.2,4.087-0.431,5.158-1.607c-1.051,8.927,14.101,15.452,21.833-0.78
			c-2.023-0.431-4.033-1.068-6.017-1.906c-4.179-1.773-8.154-4.408-11.812-7.835c-4.527-4.242-8.356-9.512-11.076-15.246
			c-2.073-4.368-3.396-8.765-3.889-12.904c-5.198,4.305-16.628,14.707-4.342,13.702c-7.957,7.537-5.987,16.606,3.941,15.383
			c-3.286,4.977,2.666,10.102,2.666,10.102s-3.402,5.586-4.867,7.807c-2.551-1.188-14.896,0-14.896,0H-2.952
			c0.145,0.695,0.307,1.385,0.487,2.067H16.95c0,0-10.606,3.036-16.982,6.688c6.498,13.88,20.686,23.5,37.152,23.5
			c16.507,0,30.724-9.679,37.198-23.608c-4.395-2.332-14.774-7.142-27.751-8.474C47.958,42.937,49.9,39.637,50.857,38.058z
			 M50.73,9.856c2.619,5.517,6.3,10.585,10.646,14.661c3.489,3.267,7.268,5.775,11.231,7.457c1.763,0.747,3.541,1.32,5.338,1.723
			c-0.607-8.783-4.039-16.802-9.401-23.162c0.997-1.367,2.551-3.617,2.655-4.449c0.156-1.223-0.887-1.492-1.663-1.452
			c-0.556,0.029-2.12,2.394-2.961,3.73c-5.257-5.4-12.021-9.356-19.614-11.216C47.397,1.201,48.677,5.534,50.73,9.856z"/>
		<ellipse fill="#FFFFFF" cx="15.038" cy="16.303" rx="12.52" ry="12.399"/>
	</g>
</g>
</svg>
