<?xml version="1.0" encoding="utf-8"?>
<!-- Generator: Adobe Illustrator 15.1.0, SVG Export Plug-In . SVG Version: 6.00 Build 0)  -->
<!DOCTYPE svg PUBLIC "-//W3C//DTD SVG 1.1//EN" "http://www.w3.org/Graphics/SVG/1.1/DTD/svg11.dtd">
<svg version="1.1" id="Layer_1" xmlns="http://www.w3.org/2000/svg" xmlns:xlink="http://www.w3.org/1999/xlink" x="0px" y="0px"
	 width="104px" height="103px" viewBox="0 0 104 103" enable-background="new 0 0 104 103" xml:space="preserve">
<g>
	
		<linearGradient id="SVGID_1_" gradientUnits="userSpaceOnUse" x1="-968.4292" y1="1072.1641" x2="-968.4292" y2="1071.0811" gradientTransform="matrix(95.522 0 0 -95.15 92558.3438 102016.3594)">
		<stop  offset="0" style="stop-color:#09D9F7"/>
		<stop  offset="1" style="stop-color:#026BE0"/>
	</linearGradient>
	<ellipse fill="url(#SVGID_1_)" cx="52" cy="51.5" rx="52" ry="51.5"/>
	<path fill="#FFFFFF" d="M50.262,53.423c2.84,8.397,14.664,11.584,21.213,4.387c6.144,5.48,21.357,3.415,20.437-8.232
		c-0.99-12.513-20.64-9.19-22.987-1.183c-3.998-2.359-11.37-2.255-14.89,1.2c0.042-4.11,0.157-10.275,0.453-11.974
		c4.521,1.786,7.164,0.104,8.421-0.838c9.796,1.469,10.328-5.774,6.15-6.934c3.106-4.041-0.836-5.511-2.689-5.407
		c3.105-3.726-1.137-5.407-3.467-5.201c1.792-5.201-4.357-4.988-7.226-3.151c-7.762-6.302-18.931,3.254-13.732,7.405
		c-7.999,1.103-6.387,4.15-4.237,4.885c-4.718,5.476,3.042,6.986,5.912,5.476c4.417,4.656,7.482,3.703,7.702,4.133
		c-0.318,0.873-0.359,9.035-0.359,12.967c-0.151,0.109-0.308,0.235-0.47,0.391c-11.476,0-30.341,4.196-32.573,13.235
		C15.58,74.064,36.323,87.83,66.316,84.271c12.055-2.87,22.776-15.555,23.126-19.459C65.968,75.856,15.11,66.126,50.262,53.423z
		 M54.023,51.419v-0.011V51.419z"/>
</g>
</svg>
