<?xml version="1.0" encoding="utf-8"?>
<!-- Generator: Adobe Illustrator 15.1.0, SVG Export Plug-In . SVG Version: 6.00 Build 0)  -->
<!DOCTYPE svg PUBLIC "-//W3C//DTD SVG 1.1//EN" "http://www.w3.org/Graphics/SVG/1.1/DTD/svg11.dtd">
<svg version="1.1" id="Layer_1" xmlns="http://www.w3.org/2000/svg" xmlns:xlink="http://www.w3.org/1999/xlink" x="0px" y="0px"
	 width="104px" height="103px" viewBox="0 0 104 103" enable-background="new 0 0 104 103" xml:space="preserve">
<g>
	
		<linearGradient id="SVGID_1_" gradientUnits="userSpaceOnUse" x1="-968.4292" y1="1072.1631" x2="-968.4292" y2="1071.0801" gradientTransform="matrix(95.522 0 0 -95.15 92558.3438 102016.2969)">
		<stop  offset="0" style="stop-color:#FFE800"/>
		<stop  offset="1" style="stop-color:#FFA400"/>
	</linearGradient>
	<ellipse fill="url(#SVGID_1_)" cx="52" cy="51.5" rx="52" ry="51.5"/>
	<path fill="#FFFFFF" d="M75.605,74.328c0.98-1.126,1.362-2.336,1.085-3.398c-0.348-1.313-1.572-1.997-2.539-2.342
		c-0.267-0.091-0.729-0.188-2.046-0.235c-0.133-0.872-0.318-1.67-0.574-2.37c-9.533-9.964-9.244-16.245-9.244-16.245
		s2.018-0.057,4.428-0.057c5.703,0,5.314-8.886,0.064-8.886c-1.037,0-2.423-0.012-3.918-0.029l1.043-9.298l-4.307-0.018
		c-0.034-1.768-0.451-11.721-5.095-14.597v-5.741h-2.828v5.741c-4.353,2.687-4.949,10.89-5.031,12.76l-7.326-0.023l1.345,11.182
		c-1.147,0.012-2.191,0.017-3.014,0.017c-5.257,0-5.64,8.886,0.063,8.886c2.412,0,4.429,0.058,4.429,0.058s0.29,6.278-9.245,16.244
		c-0.521,1.452-0.765,3.317-0.823,5.418l-0.028,0.018c-0.736,0.265-1.623,0.925-2.122,1.906c-0.365,0.723-0.66,1.912-0.086,3.524
		c-0.18,0.912-0.018,1.837,0.476,2.583c0.208,0.316,0.643,0.85,1.274,0.93c0.291,0.034,0.632,0.075,1.021,0.109
		c0.203,1.751,0.446,3.495,0.689,5.172c14.084,5.825,28.342,4.276,37.824,0c0.202-1.4,0.406-2.849,0.586-4.312
		c1.744-0.137,2.126-0.305,2.329-0.39c0.998-0.443,1.554-1.327,1.53-2.435c-0.023-1.183-0.729-2.537-1.733-3.569h0.046
		C74.396,74.942,75.125,74.88,75.605,74.328z M32.056,78.461h-0.023c-0.11-0.131-0.296-0.447-0.29-0.9
		c0.15-0.012,0.325-0.023,0.534-0.034C32.172,77.75,32.085,78.06,32.056,78.461z M32.184,75.625l-0.632,0.047
		c-0.116-0.563-0.069-1.051,0.14-1.469c0.023-0.053,0.052-0.099,0.081-0.145l0.006-0.006l0.086-0.131l0.006-0.007
		c0.029-0.04,0.064-0.08,0.099-0.12l0.006-0.007c0.191-0.218,0.412-0.366,0.585-0.459C32.329,74.007,32.161,74.806,32.184,75.625z
		 M41.544,31.559l7.105,0.023l-1.159,9.11c-1.513,0.023-3.216,0.045-4.839,0.069L41.544,31.559z M36.235,78.795
		c-0.858-0.053-1.634-0.109-2.313-0.16c0.081-0.472,0.237-0.891,0.423-1.264c0.695-0.046,1.478-0.104,2.336-0.161
		C36.496,77.681,36.328,78.226,36.235,78.795z M36.363,75.338l-2.156,0.15c-0.18-0.947,0.325-1.991,0.933-2.853
		c0.539-0.082,1.2-0.173,1.994-0.271C36.774,73.117,36.392,74.189,36.363,75.338z M41.642,79.076
		c-1.223-0.059-2.376-0.109-3.448-0.174c0.082-0.723,0.33-1.342,0.631-1.842c1.183-0.08,2.44-0.166,3.728-0.259
		C42.152,77.383,41.752,78.169,41.642,79.076z M41.752,74.96l-3.396,0.235c-0.052-1.091,0.689-2.268,1.391-3.128
		c1.014-0.104,2.167-0.214,3.471-0.328C42.616,72.497,41.857,73.681,41.752,74.96z M48.789,79.346
		c-1.82-0.059-3.593-0.122-5.28-0.189c0.185-1.017,0.974-1.895,1.739-2.537c1.489-0.104,2.973-0.208,4.387-0.299
		C49.293,76.929,48.83,77.995,48.789,79.346z M48.91,74.461l-5.152,0.36c0.006-1.021,1.409-2.392,2.527-3.335
		c0.817-0.062,1.687-0.132,2.597-0.195l0.852-0.062C49.385,71.935,48.945,73.076,48.91,74.461z M66.854,70.339
		c1.112-0.029,2.12-0.052,3.007-0.058c-0.718,0.546-1.895,1.603-2.294,2.876l-3.819,0.265
		C64.037,72.313,65.567,71.148,66.854,70.339z M63.503,70.454c-0.653,0.7-1.534,1.849-1.761,3.111l-4.358,0.304
		c0.221-1.194,1.617-2.457,2.69-3.261C61.262,70.551,62.409,70.5,63.503,70.454z M61.708,33.413l-0.823,7.331
		c-1.432-0.018-2.887-0.041-4.185-0.058l-0.841-7.29L61.708,33.413z M52.44,71.045c1.483-0.097,2.955-0.185,4.393-0.27
		c-0.516,0.677-1.286,1.889-1.455,3.231l-4.538,0.316C50.834,73.157,51.704,71.9,52.44,71.045z M55.17,79.511
		c-1.471-0.028-2.961-0.063-4.428-0.108c-0.029-1.394,0.73-2.571,1.293-3.248c2.04-0.138,3.82-0.259,5.065-0.345
		C56.369,76.55,55.193,77.962,55.17,79.511z M61.465,79.599c-1.381-0.006-2.8-0.023-4.249-0.047c-0.255-1.412,1.861-2.939,3.286-3.8
		c0.852,0.046,1.982,0.121,3.217,0.201C63.168,76.446,61.689,77.91,61.465,79.599z M67.388,79.569
		c-1.097,0.023-2.388,0.034-3.925,0.034c0.175-1.313,2.1-2.663,3.392-3.433c1.037,0.074,2.057,0.149,2.974,0.219
		C69.079,77.003,67.799,78.203,67.388,79.569z M73.247,79.167h-0.034c-0.006,0-0.006,0-0.012,0.006H73.16
		c-0.006,0-0.006,0-0.011,0.006h-0.007l-0.017,0.005H73.12c-0.007,0-0.013,0-0.013,0.007h-0.005c-0.006,0-0.013,0-0.013,0.006
		h-0.011c-0.006,0-0.013,0-0.018,0.006h-0.006c-0.006,0-0.018,0.005-0.028,0.005h-0.006c-0.006,0-0.013,0-0.023,0.007h-0.013
		c-0.005,0-0.011,0-0.022,0.005h-0.012l-0.028,0.005h-0.006l-0.036,0.007h-0.005c-0.012,0-0.022,0.006-0.028,0.006h-0.012
		c-0.012,0-0.023,0.006-0.028,0.006h-0.013l-0.034,0.005h-0.007l-0.046,0.006l-0.046,0.006H72.65l-0.041,0.006h-0.011l-0.053,0.006
		l-0.122,0.017h-0.006l-0.059,0.007h-0.006l-0.068,0.005c-0.046,0.005-0.099,0.012-0.156,0.019c-0.023,0-0.052,0.005-0.081,0.005
		h-0.007c-0.579,0.057-1.42,0.108-2.648,0.155c0.378-0.838,1.594-1.572,2.76-2.112h0.005c0.151-0.07,0.296-0.133,0.441-0.194
		c0,0,0.005,0,0.005-0.007c0.069-0.029,0.14-0.058,0.204-0.086l0.022-0.012l0.197-0.081c0.359,0.541,0.585,1.098,0.592,1.533
		C73.619,78.932,73.473,79.069,73.247,79.167z M69.724,73.008c0.486-0.757,1.575-1.457,2.625-1.998
		c0.156-0.08,0.308-0.154,0.464-0.229l0.018-0.005l0.127-0.063c0.012-0.007,0.018-0.012,0.028-0.012l0.117-0.052l0.034-0.017
		c0.034-0.017,0.07-0.034,0.104-0.047l0.035-0.017l0.106-0.046c0.01-0.005,0.021-0.012,0.033-0.012l0.134-0.057
		c0.509,0.189,1.112,0.505,1.233,0.976c0.087,0.333-0.051,0.78-0.382,1.264L69.724,73.008z"/>
</g>
</svg>
