<?xml version="1.0" encoding="utf-8"?>
<!-- Generator: Adobe Illustrator 15.1.0, SVG Export Plug-In . SVG Version: 6.00 Build 0)  -->
<!DOCTYPE svg PUBLIC "-//W3C//DTD SVG 1.1//EN" "http://www.w3.org/Graphics/SVG/1.1/DTD/svg11.dtd">
<svg version="1.1" id="Layer_1" xmlns="http://www.w3.org/2000/svg" xmlns:xlink="http://www.w3.org/1999/xlink" x="0px" y="0px"
	 width="104px" height="103px" viewBox="0 0 104 103" enable-background="new 0 0 104 103" xml:space="preserve">
<g>
	
		<linearGradient id="SVGID_1_" gradientUnits="userSpaceOnUse" x1="-968.4292" y1="1072.1641" x2="-968.4292" y2="1071.0811" gradientTransform="matrix(95.522 0 0 -95.15 92558.3438 102016.3594)">
		<stop  offset="0" style="stop-color:#09D9F7"/>
		<stop  offset="1" style="stop-color:#026BE0"/>
	</linearGradient>
	<ellipse fill="url(#SVGID_1_)" cx="52" cy="51.5" rx="52" ry="51.5"/>
	<path fill="#FFFFFF" d="M81.803,60.432c0.615,0.321,4.521,2.354,8.19,3.323c0.028-0.08,0.063-0.16,0.098-0.251
		c-0.632-1.965-1.826-4.783-3.691-5.993c-2.058-1.332-3.53-1.792-5.442-2.934C81.328,56.644,81.606,58.578,81.803,60.432z
		 M38.084,74.593c0.093-3.771-0.498-7.21-0.875-8.19c-0.469-0.465-1.53-0.959-2.394-1.292c-2.249,1.413-5.541,2.152-9.812,2.216
		l-0.539,0.006c-0.777,0-1.514-0.023-2.197-0.058c-1.159,3.128-2.771,8.208-0.452,10.475c1.814,1.774,8.056,4.02,14.483,4.703
		C37.377,80.747,37.998,78.044,38.084,74.593z M22.639,65.563c0.736,0.035,1.537,0.052,2.365,0.041
		c3.124-0.046,7.303-0.522,9.667-2.516c1.443-3.484,1.669-5.883,0.661-7.14c-0.736-0.918-2.226-1.384-4.544-1.424
		c-0.551-0.012-1.13,0.005-1.727,0.04l-0.007,0.148c-5.627,0.281-13.452,7.422-11.892,8.938
		C19.033,65.472,22.152,64.468,22.639,65.563z M87.737,64.922c0.06,0.005,0.116,0.011,0.174,0.011
		c-2.388-0.787-4.63-1.831-5.917-2.469c0.035,0.482,0.069,0.953,0.093,1.424c0.237,4.426-0.011,8.564-0.776,12.536
		c3.884-1.814,6.109-4.42,6.278-5.079C88.363,68.29,87.674,66.758,87.737,64.922z M33.454,24.82
		c-0.817-0.287-1.779-0.149-2.584,0.384c-0.592,0.397-1.941,1.596-1.739,4.289c0.058,0.803,0.296,1.239,0.51,1.319
		c0.163,0.058,0.504-0.034,0.857-0.39c0.389-0.385,0.592-0.747,0.581-1.021c-0.007-0.207-0.145-0.356-0.145-0.356l1.275-1.493
		c0.081,0.068,0.8,0.7,0.846,1.768c0.034,0.85-0.354,1.688-1.159,2.48c-0.644,0.637-1.403,0.975-2.139,0.975
		c-0.272,0-0.539-0.045-0.8-0.143c-0.603-0.218-1.628-0.907-1.785-3.008c-0.099-1.343,0.098-2.572,0.591-3.65
		c0.446-0.982,1.142-1.809,2.011-2.389c0.922-0.614,1.994-0.907,3.031-0.86c-0.435-0.982-1.101-1.9-2.086-2.113
		c-1.072,0.104-3.483,2.308-4.863,5.597c-0.597,1.423-0.887,2.818-0.834,4.03c0.058,1.326,0.516,2.428,1.368,3.271
		c0.562,0.557,1.426,0.678,2.045,0.678c1.56,0,3.298-0.712,4.075-1.401l0.063-0.052l0.07-0.045c0.226-0.144,0.73-0.89,0.979-2.704
		c0.226-1.625,0.168-3.49-0.157-5.12C33.465,24.86,33.459,24.843,33.454,24.82z M81.443,33.936
		c2.551-3.105,1.107-14.729-7.129-17.151c-6.26,0.878-7.493,3.341-9.522,4.133c2.69,3.725,3.13,9.735,0.608,12.99
		c-0.215,0-0.561,0-0.961-0.057c1.628-4.667,0.515-11.004-1.851-14.235c-3.303-2.216-10.582-4.512-17.276,0.441
		c3.529,3.513,4.387,10.527,1.582,14.139c-0.214,0-0.563,0-0.962-0.058c1.721-4.925,0.383-11.71-2.254-14.741
		c-4.092-2.066-7.442-3.679-14.46-3.312c-8.514,4.414-10.96,17.892-5.57,21.835c3.646,2.67,8.578,1.297,11.563,0.569
		c-1.02,2.399-4.828,9.861-5.889,14.338c0.51-0.022,1.008-0.033,1.484-0.022c2.869,0.052,4.793,0.729,5.871,2.071
		c0.748,0.931,1.078,2.171,0.985,3.686c-0.092,1.458-0.562,3.186-1.438,5.274c0.852,0.38,1.843,0.914,2.377,1.54l0.075,0.091
		l0.052,0.109c0.597,1.292,1.177,5.246,1.084,9.064c-0.07,2.823-0.521,6.353-2.092,8.788c5.541,2.232,29.025,6.211,41.451-5.374
		c1.056-4.432,1.438-9.051,1.166-14.063c-0.215-3.921-0.829-8.151-1.913-13.115c-1.473-3.915-2.098-8.037-7.07-14.23
		C76.807,38.057,78.893,37.041,81.443,33.936z M35.575,30.268c-0.203,1.423-0.678,3.266-1.814,4.035
		c-1.274,1.085-3.448,1.843-5.326,1.843c-1.432,0-2.62-0.43-3.443-1.251c-1.211-1.2-1.861-2.738-1.941-4.57
		c-0.064-1.492,0.278-3.174,0.985-4.862c0.725-1.722,1.791-3.375,3.001-4.655c1.682-1.774,2.974-2.147,3.756-2.147h0.081
		l0.082,0.012c2.191,0.367,3.767,2.439,4.445,5.826C35.766,26.336,35.83,28.437,35.575,30.268z M74.721,78.181
		c-1.972,4.019-17.853,4.478-20.344,3.616c-2.492-0.861-5.97-3.157-7.013-4.972c-1.043-1.813,1.188-14.114,1.681-13.512
		c0,1.319,2.841,4.443,4.694,5.632c4.29,2.748,17.156,1.688,18.779,0.052c1.605-1.619,2.203-3.64,2.609-4.881
		C77.178,67.527,76.691,74.162,74.721,78.181z M72.809,58.895c1.043,0.746,0.636,7.002-1.45,8.38
		c-2.086,1.377-12.925,1.894-15.88,0.286c-2.956-1.606-5.68-4.649-4.405-7.496C52.349,57.218,71.766,58.148,72.809,58.895z"/>
</g>
</svg>
