<?xml version="1.0" encoding="utf-8"?>
<!-- Generator: Adobe Illustrator 15.1.0, SVG Export Plug-In . SVG Version: 6.00 Build 0)  -->
<!DOCTYPE svg PUBLIC "-//W3C//DTD SVG 1.1//EN" "http://www.w3.org/Graphics/SVG/1.1/DTD/svg11.dtd">
<svg version="1.1" id="Layer_1" xmlns="http://www.w3.org/2000/svg" xmlns:xlink="http://www.w3.org/1999/xlink" x="0px" y="0px"
	 width="104px" height="103px" viewBox="0 0 104 103" enable-background="new 0 0 104 103" xml:space="preserve">
<g>
	
		<linearGradient id="SVGID_1_" gradientUnits="userSpaceOnUse" x1="-968.4292" y1="1072.1631" x2="-968.4292" y2="1071.0801" gradientTransform="matrix(95.522 0 0 -95.15 92558.3438 102016.2969)">
		<stop  offset="0" style="stop-color:#E087E2"/>
		<stop  offset="1" style="stop-color:#892390"/>
	</linearGradient>
	<ellipse fill="url(#SVGID_1_)" cx="52" cy="51.5" rx="52" ry="51.5"/>
	<g transform="translate(12.616 16.915)">
		<path fill="#FFFFFF" d="M61.831-2.738c1.832,15.166,4.126,34.315,4.563,37.971c-0.209,0.161-0.313,0.361-0.273,0.619
			c0.627,4.322,1.073,10.298,1.17,15.672c0.128,6.916-0.18,12.829,0.169,12.921c0.354,0.085,2.208-2.142,3.889-4.11
			c1.334-1.557,2.55-2.681,2.847-3.278c0.358-0.717,0.348-7.048,0.021-12.736c-0.254-4.501-0.618-8.198-0.902-9.052l8.629-0.736
			C81.943,34.527,84.499,11.486,61.831-2.738z M70.479,49.049c-0.607,0-1.103-0.486-1.103-1.089c0-0.604,0.495-1.091,1.103-1.091
			c0.608,0,1.102,0.487,1.102,1.091C71.58,48.563,71.087,49.049,70.479,49.049z M69.059,38.947c0-0.603,0.492-1.091,1.102-1.091
			c0.608,0,1.101,0.488,1.101,1.091s-0.492,1.091-1.101,1.091C69.551,40.038,69.059,39.55,69.059,38.947z M13.79-0.453
			c-1.571,1.021-3.327,2.594-5.065,4.477C5.38,18.007,5.779,28.276,5.38,28.328c-0.284,0.04-0.875,0.144-1.252-0.058
			C3.925,28.167,5.044,13.231,6.255,6.905c-1.391,1.751-2.713,3.64-3.86,5.534c-1.13,8.168-0.644,15.831-1.038,15.883
			c-0.284,0.04-1.223,0.143-1.6-0.058c-0.18-0.098,0.006-7.353,0.8-12.467c-0.87,1.796-1.519,3.524-1.849,5.063
			c-1.93,5.912-2.348,13.397-1.043,13.776c0.313,0.092,1.136,0.195,2.208,0.281c0.011,3.451,0.081,12.818,0.492,14.678
			c0.73,3.323,7.309,12.537,8.607,11.769c0.405-1.091-1.311-6.791-2.261-12.898c-0.765-4.961-1.032-10.19-1.09-13.444
			c2.005-0.115,3.594-0.431,3.582-1.125C9.043,23.735,11.778,5.293,13.79-0.453z M1.78,37.598c0-0.579,0.476-1.05,1.061-1.05
			s1.061,0.471,1.061,1.05c0,0.58-0.475,1.052-1.061,1.052S1.78,38.178,1.78,37.598z M3.189,47.718c-0.585,0-1.06-0.47-1.06-1.05
			c0-0.579,0.475-1.05,1.06-1.05c0.585,0,1.061,0.471,1.061,1.05C4.25,47.248,3.774,47.718,3.189,47.718z M51.382,22.473
			c-5.687-5.447-13.795-10.791-13.795-10.791s-7.708,5.338-12.693,10.275l-9.998,12.284c0,0,3.118,4.793,5.303,7.978
			c2.191,3.186,5.449,5.396,5.449,5.396s5.755,2.813,11.789,2.813c6.05,0,11.712-2.813,11.712-2.813s3.796-3.599,5.883-6.198
			c2.597-3.231,5.217-7.119,5.217-7.119S55.948,26.847,51.382,22.473z M37.57,48.281c-7.314,0-10.479-1.98-10.479-1.98L37.57,36.14
			l10.206,10.161C47.782,46.301,44.891,48.281,37.57,48.281z"/>
		<path fill="#FFFFFF" d="M64.44,37.102c-0.034-0.259,0.07-0.459,0.271-0.619c-0.3-2.532-1.494-12.479-2.804-23.391
			C55.979,6.37,47.261,2.127,37.541,2.127c-9.784,0-18.558,4.305-24.488,11.107c-1.257,7.657-2.266,17.117-2.162,23.408
			c0.012,0.694-1.577,1.018-3.582,1.125c0.04,2.314,0.185,5.626,0.545,9.134c4.973,11.354,16.39,19.298,29.686,19.298
			c11.957,0,22.4-6.428,28-15.981C65.366,45.569,64.967,40.746,64.44,37.102z M59.368,40.149
			c-2.643,9.479-11.413,16.436-21.821,16.436c-10.288,0-18.97-6.797-21.729-16.097c-1.704-2.56-3.188-4.85-3.188-4.85
			s0.904-1.326,2.347-3.266c0.887-11.13,9.975-19.97,21.277-20.602c0.834-0.603,1.339-0.953,1.339-0.953s0.527,0.35,1.414,0.959
			c11.03,0.694,19.91,9.213,21.057,20.01c1.508,2.255,2.457,3.908,2.457,3.908S61.148,37.728,59.368,40.149z"/>
	</g>
</g>
</svg>
