<?xml version="1.0" encoding="utf-8"?>
<!-- Generator: Adobe Illustrator 15.1.0, SVG Export Plug-In . SVG Version: 6.00 Build 0)  -->
<!DOCTYPE svg PUBLIC "-//W3C//DTD SVG 1.1//EN" "http://www.w3.org/Graphics/SVG/1.1/DTD/svg11.dtd">
<svg version="1.1" id="Layer_1" xmlns="http://www.w3.org/2000/svg" xmlns:xlink="http://www.w3.org/1999/xlink" x="0px" y="0px"
	 width="104px" height="103px" viewBox="0 0 104 103" enable-background="new 0 0 104 103" xml:space="preserve">
<g>
	
		<linearGradient id="SVGID_1_" gradientUnits="userSpaceOnUse" x1="-968.4292" y1="1072.1631" x2="-968.4292" y2="1071.0801" gradientTransform="matrix(95.522 0 0 -95.15 92558.3438 102016.2969)">
		<stop  offset="0" style="stop-color:#D4EB31"/>
		<stop  offset="1" style="stop-color:#5AB20C"/>
	</linearGradient>
	<ellipse fill="url(#SVGID_1_)" cx="52" cy="51.5" rx="52" ry="51.5"/>
	<path fill="#FFFFFF" d="M60.235,41.913c-1.965,2.28-4.521,5.614-6.833,9.771c-2.649,4.77-4.451,9.673-5.361,14.568
		c-0.875,4.725-0.916,9.466-0.127,14.133c-0.591-0.116-1.194-0.201-1.802-0.248c-0.736-4.705-0.661-9.477,0.226-14.234
		c0.95-5.086,2.822-10.166,5.57-15.103c2.185-3.927,4.556-7.112,6.479-9.409c-13.138,2.061-26.301,25.102-13.382,38.7
		c-3.778-0.017-7.633,1.407-10.502,5.012c3.274,2.813,18.512,4.936,23.711,3.501c-0.672-3.271-4.023-6.257-8.195-7.663
		C69.317,76.279,66.842,46.752,60.235,41.913z"/>
	<path fill="none" stroke="#FFFFFF" stroke-width="2.862" d="M22.818,74.494c0,0-21.115-22.891,0-51.431 M81.396,74.494
		c0,0,21.114-22.891,0-51.431"/>
	<path fill="none" stroke="#FFFFFF" stroke-width="2.862" d="M14.234,42.144c0,0,12.513-12.938,39.817-12.938
		c27.304,0,35.724,10.676,35.724,10.676"/>
</g>
</svg>
