<?xml version="1.0" encoding="utf-8"?>
<!-- Generator: Adobe Illustrator 15.1.0, SVG Export Plug-In . SVG Version: 6.00 Build 0)  -->
<!DOCTYPE svg PUBLIC "-//W3C//DTD SVG 1.1//EN" "http://www.w3.org/Graphics/SVG/1.1/DTD/svg11.dtd">
<svg version="1.1" id="Layer_1" xmlns="http://www.w3.org/2000/svg" xmlns:xlink="http://www.w3.org/1999/xlink" x="0px" y="0px"
	 width="104px" height="103px" viewBox="0 0 104 103" enable-background="new 0 0 104 103" xml:space="preserve">
<g>
	
		<linearGradient id="SVGID_1_" gradientUnits="userSpaceOnUse" x1="-968.4292" y1="1072.1631" x2="-968.4292" y2="1071.0801" gradientTransform="matrix(95.522 0 0 -95.15 92558.3438 102016.2969)">
		<stop  offset="0" style="stop-color:#E087E2"/>
		<stop  offset="1" style="stop-color:#892390"/>
	</linearGradient>
	<ellipse fill="url(#SVGID_1_)" cx="52" cy="51.5" rx="52" ry="51.5"/>
	<path fill="#FFFFFF" d="M13.116,61.919c6.208,16.732,76.279,15.527,78.888-0.711C77.572,57.729,14.444,61.316,13.116,61.919z
		 M65.667,30.29c3.448,4.822,3.071,11.257,2.348,11.257c-0.864,0-3.524-11.779-16.119-15.257c-3.582-0.563-7.465,0.138-12.803,3.45
		c5.999,4.311,7.326,11.572,6.503,11.572c-0.875,0-5.234-9.047-16.889-10.591c-14.93,2.416-15.91,15.481-15.683,16.509
		C13,50.157,83.588,49.813,91.447,48.435C91.454,43.033,80.493,29.458,65.667,30.29z"/>
	<path fill="none" stroke="#FFFFFF" stroke-width="1.59" d="M14.368,46.621C6.717,50.237,7.5,59.708,22.105,51.38
		c3.217,5.144,11.215,1.097,11.911,0.505c6.538,6.36,12.605,0.592,14.24-0.327c3.97,3.845,6.972,1.521,9.841,0.327
		c2.087,4.122,7.35,0.385,10.057-0.172c-0.406,4.024,7.98,0.849,9.939-0.154c2.608,4.19,7.771,1.154,10.085,0.832
		c2.868,3.529,11.216-2.497,1.217-5.769"/>
	<path fill="none" stroke="#FFFFFF" stroke-width="1.59" d="M11.239,54.835c1.524,2.521-0.713,2.291,12.954,2.291
		s12.443-0.855,13.371-2.291 M38.52,54.376c0.991,2.497,0.446,2.118,14.113,2.118s12.989,0.006,14.53-3.438"/>
	<path fill="none" stroke="#FFFFFF" stroke-width="1.59" d="M66.357,51.965c2.22,4.964,0.446,4.012,14.113,4.012
		c13.666,0,12.906,0,12.906-3.783"/>
	<path fill="#FFFFFF" d="M9.581,58.928c-0.22,0.981-0.516,2.136,0.789,2.28c16.222-2.188,79.942-2.188,85.367-1.758
		c1.397-0.436,2.116-1.888,0-2.605C93.389,56.053,13,56.518,9.581,58.928z"/>
</g>
</svg>
