<?xml version="1.0" encoding="utf-8"?>
<!-- Generator: Adobe Illustrator 15.1.0, SVG Export Plug-In . SVG Version: 6.00 Build 0)  -->
<!DOCTYPE svg PUBLIC "-//W3C//DTD SVG 1.1//EN" "http://www.w3.org/Graphics/SVG/1.1/DTD/svg11.dtd">
<svg version="1.1" id="Layer_1" xmlns="http://www.w3.org/2000/svg" xmlns:xlink="http://www.w3.org/1999/xlink" x="0px" y="0px"
	 width="104px" height="103px" viewBox="0 0 104 103" enable-background="new 0 0 104 103" xml:space="preserve">
<g>
	
		<linearGradient id="SVGID_1_" gradientUnits="userSpaceOnUse" x1="-968.4292" y1="1072.1641" x2="-968.4292" y2="1071.0811" gradientTransform="matrix(95.522 0 0 -95.15 92558.3438 102016.3594)">
		<stop  offset="0" style="stop-color:#09D9F7"/>
		<stop  offset="1" style="stop-color:#026BE0"/>
	</linearGradient>
	<ellipse fill="url(#SVGID_1_)" cx="52" cy="51.5" rx="52" ry="51.5"/>
	<path fill="#FFFFFF" d="M30.677,68.111c-0.364-1.222-0.509-3.014-0.434-5.487c0.082-2.828,0.452-6.469,1.089-10.82
		c1.014-6.86,2.695-15.292,4.59-23.064c-3.732,0.022-6.758,0.103-8.502,0.247c-0.788,1.074-1.675,3.232-2.555,6.05
		c-0.285-0.557-0.621-0.838-0.998-0.838c-0.476,0-0.893,0.396-1.241,1.177c-0.254,0.574-0.481,1.36-0.661,2.336
		c-0.196,1.085-0.301,2.164-0.348,2.772c-0.098-0.006-0.196-0.011-0.301-0.017c-0.035-0.631-0.104-1.509-0.232-2.394
		c-0.145-0.998-0.33-1.796-0.562-2.382c-0.319-0.809-0.713-1.217-1.183-1.217c-0.47,0-0.893,0.385-1.246,1.143
		c-0.261,0.556-0.493,1.326-0.684,2.278c-0.186,0.924-0.296,1.843-0.354,2.457h-0.516c-0.545,3.858-1.026,8.071-1.31,11.487
		c-0.18,2.101-0.278,3.857-0.302,5.212c-0.029,1.865,0.099,2.491,0.174,2.704c0.278,0.74,0.956,1.457,1.675,2.221
		c0.55,0.585,1.142,1.211,1.623,1.934c0.063-1.671,0.191-5.165,0.261-9.149c0.081-4.391,0.11-10.165-0.151-14.378
		c-0.307-0.006-0.608-0.012-0.904-0.018c0.058-0.574,0.162-1.366,0.319-2.158c0.255-1.274,0.707-2.79,1.425-2.79
		c0.667,0,1.032,1.567,1.217,2.881c0.11,0.781,0.174,1.567,0.208,2.158c-0.573-0.023-1.147-0.045-1.715-0.057
		c0.209,3.444,0.261,8.271,0.145,14.403c-0.087,4.919-0.261,9.098-0.296,10.032c0.07,0.155,0.139,0.316,0.197,0.482
		c0.284,0.035,0.574,0.057,0.864,0.075c0.028,2.002,0.191,3.752,0.527,5.132C25.432,68.692,29.338,68.227,30.677,68.111z
		 M22.477,37.999c0.237-1.309,0.678-2.864,1.391-2.864c0.214,0,0.475,0.178,0.725,0.809c-0.423,1.424-0.847,2.991-1.252,4.656
		c-0.382-0.029-0.782-0.052-1.182-0.075C22.204,39.934,22.303,38.963,22.477,37.999z M37.754,74.362
		c-2.724-1.646-5.292-3.209-6.538-5.056l0.029,0.723c-0.046,0-4.179,0.206-9.685,2.176c4.63,3.627,13.162,6.124,22.917,7.061
		C42.802,77.422,40.16,75.82,37.754,74.362z M14.373,57.022c0.023-1.391,0.128-3.182,0.308-5.322
		c0.284-3.375,0.759-7.519,1.292-11.342c-1.048,0.012-1.901,0.052-2.387,0.12c-1.002,2.388-2.591,15.769-1.948,20.425
		c1.386-0.896,2.487-1.126,2.857-1.183C14.391,59.123,14.351,58.244,14.373,57.022z M14.646,60.312l0.006,0.355
		c-0.012,0-1.171,0.098-2.724,1.067c1.298,1.786,3.697,3.015,6.438,3.474c-0.469-0.908-1.211-1.694-1.889-2.412
		C15.719,61.98,14.994,61.218,14.646,60.312z M91.963,49.055c-0.377-0.098-1.037-0.207-1.86-0.315
		c0.064,2.921,0.052,6.085-0.035,8.649c-0.058,1.625-0.139,2.979-0.249,4.03c-0.099,0.918-0.208,1.573-0.342,2.015
		c0.289,0.074,1.129,0.35,2.133,1.16C92.537,61.154,92.53,50.943,91.963,49.055z M89.302,63.858
		c-0.358,0.647-0.991,1.159-1.669,1.694c-0.597,0.475-1.252,0.998-1.703,1.635c2.189-0.086,4.178-0.786,5.36-2.003
		c-1.123-0.872-2.022-1.062-2.034-1.062L89.302,63.858z M87.68,48.475c-0.447-0.041-0.898-0.081-1.345-0.115
		c0.081-0.442,0.202-1.028,0.364-1.602c0.269-0.97,0.701-2.112,1.224-2.049c0.563,0.069,0.777,1.251,0.857,2.233
		c0.053,0.608,0.059,1.217,0.053,1.653c-0.232-0.023-0.47-0.051-0.707-0.075c-0.592,3.14-1.102,7.486-1.443,10.797
		c-0.313,3.003-0.533,5.643-0.638,6.906c0.446-0.5,0.969-0.912,1.449-1.304c0.632-0.505,1.229-0.981,1.512-1.51
		c0.082-0.148,0.238-0.614,0.39-2.015c0.11-1.021,0.191-2.347,0.243-3.942c0.087-2.595,0.099-5.81,0.028-8.76
		c-0.134-0.018-0.267-0.035-0.405-0.046c0.012-0.471,0.006-1.165-0.051-1.882c-0.06-0.735-0.17-1.332-0.326-1.78
		c-0.208-0.603-0.504-0.93-0.874-0.976c-0.365-0.046-0.715,0.225-1.038,0.803c-0.232,0.419-0.459,1.005-0.661,1.74
		c-0.18,0.654-0.313,1.309-0.399,1.78l-0.238-0.018c0.018-0.464,0.035-1.28-0.018-2.118c-0.052-0.752-0.149-1.366-0.301-1.82
		c-0.202-0.621-0.492-0.958-0.864-0.999c-0.366-0.046-0.718,0.235-1.042,0.832c-0.069,0.126-0.14,0.27-0.203,0.425
		c-1.264-7.032-3.205-12.886-5.738-14.138c-0.822-0.288-3.136-0.551-6.353-0.781c-0.092-1.291-0.33-3.604-0.897-5.946
		c-0.505-2.084-1.177-3.76-1.994-4.977c-1.13-1.693-2.551-2.549-4.214-2.549c-1.687,0-3.177,0.804-4.423,2.394
		c-0.914,1.165-1.703,2.767-2.342,4.753c-0.712,2.21-1.077,4.396-1.246,5.643c-0.353-0.012-0.706-0.023-1.065-0.029
		c-0.127-1.292-0.372-3.07-0.817-4.873c-0.51-2.026-1.183-3.656-2-4.844c-1.13-1.642-2.55-2.474-4.201-2.474
		c-1.675,0-3.176,0.78-4.446,2.319c-0.939,1.136-1.756,2.692-2.428,4.632c-0.655,1.883-1.049,3.748-1.27,4.999
		c-0.626,0-1.24-0.005-1.843,0c-1.93,7.841-3.646,16.412-4.672,23.352c-0.631,4.277-0.991,7.842-1.072,10.59
		c-0.11,3.789,0.342,5.069,0.621,5.5c0.979,1.504,3.396,2.968,5.952,4.518c1.959,1.188,4.057,2.462,5.778,3.932
		c0.232-3.393,0.678-10.505,0.934-18.604c0.284-8.931,0.382-20.676-0.545-29.24c-1.09-0.011-2.162-0.023-3.211-0.035
		c0.214-1.165,0.573-2.784,1.13-4.391c0.904-2.589,2.515-5.677,5.071-5.677c2.37,0,3.668,3.186,4.341,5.855
		c0.399,1.584,0.626,3.186,0.754,4.392c-2.041-0.052-4.087-0.092-6.098-0.121c0.742,7.003,0.921,16.818,0.521,29.279
		c-0.318,10.007-0.921,18.502-1.061,20.401c0.255,0.321,0.493,0.649,0.701,0.982c12.334,0.815,26.179-0.822,36.421-5.719
		c0.708-0.924,1.136-3.334,1.31-6.577c0.17,0.006,0.337,0.012,0.499,0.018c0.064-0.121,0.128-0.235,0.197-0.346
		c0.059-0.705,0.308-3.862,0.689-7.571C86.712,54.668,87.198,51.041,87.68,48.475z M57.953,29.073
		c0.174-1.2,0.516-3.169,1.146-5.126c0.853-2.658,2.405-5.827,4.944-5.827c1.304,0,3.118,1.051,4.342,6.05
		c0.504,2.055,0.729,4.134,0.834,5.402C65.979,29.372,62.079,29.205,57.953,29.073z M85.24,48.28
		c-0.5-0.035-0.979-0.058-1.433-0.081c-0.128-0.918-0.272-1.831-0.423-2.726c0.405-1.195,0.765-1.436,1.015-1.406
		c0.556,0.068,0.759,1.279,0.823,2.284C85.274,47.092,85.258,47.832,85.24,48.28z"/>
</g>
</svg>
