<?xml version="1.0" encoding="utf-8"?>
<!-- Generator: Adobe Illustrator 15.1.0, SVG Export Plug-In . SVG Version: 6.00 Build 0)  -->
<!DOCTYPE svg PUBLIC "-//W3C//DTD SVG 1.1//EN" "http://www.w3.org/Graphics/SVG/1.1/DTD/svg11.dtd">
<svg version="1.1" id="Layer_1" xmlns="http://www.w3.org/2000/svg" xmlns:xlink="http://www.w3.org/1999/xlink" x="0px" y="0px"
	 width="104px" height="103px" viewBox="0 0 104 103" enable-background="new 0 0 104 103" xml:space="preserve">
<g>
	
		<linearGradient id="SVGID_1_" gradientUnits="userSpaceOnUse" x1="-968.4292" y1="1072.1631" x2="-968.4292" y2="1071.0801" gradientTransform="matrix(95.522 0 0 -95.15 92558.3438 102016.2969)">
		<stop  offset="0" style="stop-color:#FFE800"/>
		<stop  offset="1" style="stop-color:#FFA400"/>
	</linearGradient>
	<ellipse fill="url(#SVGID_1_)" cx="52" cy="51.5" rx="52" ry="51.5"/>
	<path fill="#FFFFFF" d="M78.655,67.371c7.598-21.743-1.194-41.392-6.688-43.395c0-4.943,0-8.955,0-8.955h-4.521v9.07
		c0,0-5.159,1.549-7.536,11.25c-0.927,0-1.042,0.115-2.55,0.115c-0.521-5.28-5.535-8.036-5.535-8.036v-5.051H47.16v5.051
		c0,0-2.087,0.345-3.825,2.756c-1.681-3.158-5.796-4.822-5.796-4.822V15.021H32.67c0,0,0,7.611,0,10.332
		c-3.907-0.126-17.735,14.873-9.406,42.018h-8.561c0,0,9.969,22.617,37.094,22.617c27.124,0,37.151-22.617,37.151-22.617H78.655z
		 M75.328,68.289H63.33l-2.41-15.813c-3.014,1.986-6.516,2.842-6.516,2.842v9.413l5.912,2.698H45.978l5.912-2.698v-9.413
		c0,0-2.672-0.654-5.355-2.142L44.378,67.83H30.642l-3.304-22.846H41.08c0.18-5.51,3.854-8.266,3.854-8.266h7.789h0.848h7.789
		c0,0,4.288,3.215,3.825,9.644c-0.058,0.786-0.262,1.516-0.574,2.187l13.621,0.017L75.328,68.289z"/>
</g>
</svg>
