<?xml version="1.0" encoding="utf-8"?>
<!-- Generator: Adobe Illustrator 15.1.0, SVG Export Plug-In . SVG Version: 6.00 Build 0)  -->
<!DOCTYPE svg PUBLIC "-//W3C//DTD SVG 1.1//EN" "http://www.w3.org/Graphics/SVG/1.1/DTD/svg11.dtd">
<svg version="1.1" id="Layer_1" xmlns="http://www.w3.org/2000/svg" xmlns:xlink="http://www.w3.org/1999/xlink" x="0px" y="0px"
	 width="104px" height="103px" viewBox="0 0 104 103" enable-background="new 0 0 104 103" xml:space="preserve">
<g>
	
		<linearGradient id="SVGID_1_" gradientUnits="userSpaceOnUse" x1="-968.4292" y1="1072.1631" x2="-968.4292" y2="1071.0801" gradientTransform="matrix(95.522 0 0 -95.15 92558.3438 102016.2969)">
		<stop  offset="0" style="stop-color:#D4EB31"/>
		<stop  offset="1" style="stop-color:#5AB20C"/>
	</linearGradient>
	<ellipse fill="url(#SVGID_1_)" cx="52" cy="51.5" rx="52" ry="51.5"/>
	<path fill="none" stroke="#FFFFFF" stroke-width="1.272" d="M28.556,17.61l14.837,23.305"/>
	<path fill="#FFFFFF" d="M73.583,43.699c-1.159-2.721-2.821-5.161-4.938-7.255c-2.116-2.095-4.578-3.743-7.326-4.891
		c-2.846-1.193-5.866-1.797-8.978-1.797c-3.107,0-6.126,0.604-8.978,1.797c-0.829,0.351-1.635,0.74-2.411,1.183l4.139,6.498
		c0.452-0.448,0.921-0.953,1.379-1.447c1.878-2.009,3.5-3.743,5.124-3.743c0.296,0,0.58,0.058,0.84,0.173
		c0.754,0.327,1.078,1.199,1.265,1.825c0.185,0.648,0.341,1.521,0.463,2.588c0.15,1.35,0.237,2.991,0.26,4.73
		c4.271,0.941,7.471,4.724,7.471,9.23c0,5.211-4.282,9.454-9.545,9.454c-5.262,0-9.546-4.243-9.546-9.454v-0.098
		c-0.284-0.12-0.562-0.241-0.834-0.361c-1.988-0.873-3.802-1.763-5.239-2.566c-2.313-1.298-2.95-1.986-3.229-2.388
		c-0.435-0.637-0.324-1.171-0.22-1.436c0.492-1.24,1.489-2.187,3.042-2.893c1.223-0.556,2.603-0.89,3.936-1.205
		c0.243-0.057,0.481-0.115,0.712-0.172l-3.836-6.021c-0.371,0.321-0.73,0.66-1.083,1.005c-2.116,2.095-3.779,4.535-4.938,7.255
		c-1.205,2.819-1.814,5.809-1.814,8.892c0,3.076,0.609,6.066,1.814,8.892c1.159,2.721,2.823,5.159,4.938,7.255
		c2.115,2.096,4.578,3.743,7.326,4.892c2.845,1.193,5.865,1.796,8.977,1.796c3.107,0,6.125-0.603,8.978-1.796
		c2.746-1.148,5.211-2.796,7.325-4.892c2.115-2.096,3.779-4.534,4.938-7.255c1.206-2.818,1.814-5.811,1.814-8.892
		C75.396,49.514,74.789,46.523,73.583,43.699z M44.639,42.431c-2.022,1.566-7.447,1.566-9.117,3.731
		c2.139,2.738,14.351,7.76,15.921,6.917c1.57-0.845,1.367-13.479,0.22-17.227C48.279,37.299,47.003,40.594,44.639,42.431z
		 M89.059,37.185c-2.012-4.713-4.893-8.949-8.566-12.583c-3.668-3.633-7.946-6.485-12.705-8.484
		c-4.926-2.065-10.16-3.11-15.556-3.11c-5.396,0-10.629,1.045-15.557,3.11c-1.651,0.695-3.245,1.487-4.775,2.382l1.177,1.849
		c1.432-0.832,2.915-1.573,4.457-2.221c4.654-1.952,9.598-2.939,14.698-2.939s10.044,0.988,14.697,2.939
		c4.498,1.882,8.538,4.581,12.004,8.013c3.467,3.432,6.191,7.433,8.092,11.887c1.97,4.61,2.966,9.506,2.966,14.557
		c0,5.053-0.996,9.948-2.966,14.559c-1.9,4.453-4.625,8.454-8.092,11.887c-3.466,3.433-7.506,6.13-12.004,8.014
		c-4.653,1.95-9.597,2.938-14.697,2.938s-10.044-0.988-14.698-2.938c-4.497-1.884-8.538-4.581-12.003-8.014
		c-3.466-3.433-6.19-7.434-8.091-11.887c-1.97-4.61-2.967-9.506-2.967-14.559c0-5.051,0.997-9.947,2.967-14.557
		c1.901-4.454,4.625-8.455,8.091-11.887c1.159-1.148,2.376-2.21,3.657-3.186l-1.182-1.848c-1.415,1.068-2.759,2.239-4.034,3.495
		c-3.668,3.634-6.549,7.871-8.566,12.583c-2.086,4.878-3.142,10.062-3.142,15.406c0,5.344,1.055,10.526,3.142,15.406
		c2.011,4.713,4.892,8.949,8.566,12.582c3.668,3.634,7.946,6.486,12.704,8.484c4.927,2.065,10.161,3.11,15.557,3.11
		c5.396,0,10.63-1.045,15.556-3.11c4.759-1.991,9.037-4.845,12.705-8.484c3.668-3.633,6.55-7.869,8.566-12.582
		c2.086-4.88,3.141-10.063,3.141-15.406C92.199,47.246,91.139,42.063,89.059,37.185z"/>
</g>
</svg>
