<?xml version="1.0" encoding="utf-8"?>
<!-- Generator: Adobe Illustrator 15.1.0, SVG Export Plug-In . SVG Version: 6.00 Build 0)  -->
<!DOCTYPE svg PUBLIC "-//W3C//DTD SVG 1.1//EN" "http://www.w3.org/Graphics/SVG/1.1/DTD/svg11.dtd">
<svg version="1.1" id="Layer_1" xmlns="http://www.w3.org/2000/svg" xmlns:xlink="http://www.w3.org/1999/xlink" x="0px" y="0px"
	 width="104px" height="103px" viewBox="0 0 104 103" enable-background="new 0 0 104 103" xml:space="preserve">
<g>
	
		<linearGradient id="SVGID_1_" gradientUnits="userSpaceOnUse" x1="-968.4292" y1="1072.1631" x2="-968.4292" y2="1071.0801" gradientTransform="matrix(95.522 0 0 -95.15 92558.3438 102016.2969)">
		<stop  offset="0" style="stop-color:#D4EB31"/>
		<stop  offset="1" style="stop-color:#5AB20C"/>
	</linearGradient>
	<ellipse fill="url(#SVGID_1_)" cx="52" cy="51.5" rx="52" ry="51.5"/>
	<g transform="translate(14.16 16.4)">
		<path fill="#FFFFFF" d="M12.992,61.293c0.047-1.831,1.072-3.691,3.229-5.837c1.773-1.769,4.121-3.531,6.393-5.235
			c4.422-3.324,9.001-6.763,8.537-9.645c-0.313-1.963-4.746-3.455-8.653-4.77c-4.016-1.354-8.172-2.756-9.888-5.08
			c-0.921-1.251-1.374-2.756-1.339-4.472c0.029-1.515,0.424-3.18,1.2-5.085c0.615-1.515,1.467-3.163,2.597-5.005
			c-6.375,4.914-17.99,17.92-17.99,17.92s1.443,17.927,15.921,29.218C12.969,62.665,12.975,61.999,12.992,61.293z M60.357,30.256
			c-3.137,0.207-9.239,7.807-14.102,11.216c2.504,4.667,10.125,19.144,12.815,27.1c14.372-6.624,19.368-19.896,19.368-19.896
			S70.591,33.242,60.357,30.256z M18.475,14.494c-1.976,2.893-3.333,5.292-4.19,7.394c-1.38,3.387-1.408,5.9-0.098,7.68
			c1.35,1.831,5.204,3.128,8.931,4.385c4.869,1.642,9.464,3.192,9.969,6.314c0.301,1.878-0.591,3.863-2.724,6.073
			c-1.756,1.818-4.201,3.656-6.566,5.436c-2.214,1.665-4.504,3.386-6.184,5.056c-1.756,1.747-2.62,3.222-2.655,4.507
			c-0.035,1.32-0.005,2.458,0.063,3.438c4.863,3.301,11.024,5.855,18.832,6.935c9.562,1.32,17.265,0.092,23.404-2.358
			C47.901,43.373,29.644,19.551,18.475,14.494z"/>
		<path fill="#FFFFFF" d="M14.714,5.33c0.758,0.55,0.712,1.896-0.103,3.008s-2.09,1.567-2.848,1.018
			c-0.758-0.549-0.712-1.896,0.103-3.008C12.681,5.237,13.956,4.782,14.714,5.33z"/>
		<path fill="#FFFFFF" d="M34.41,12.035c0.844,0.611,0.791,2.112-0.119,3.351c-0.909,1.24-2.329,1.749-3.172,1.138
			s-0.79-2.111,0.12-3.352C32.148,11.933,33.568,11.424,34.41,12.035z"/>
		<path fill="#FFFFFF" d="M27.031-0.299c0.758,0.549,0.711,1.896-0.104,3.007c-0.815,1.112-2.09,1.567-2.848,1.018
			s-0.712-1.896,0.103-3.007C24.998-0.392,26.273-0.848,27.031-0.299z"/>
		<path fill="#FFFFFF" d="M38.613-0.829c1.158,0.84,1.18,2.773,0.048,4.317c-1.133,1.544-2.991,2.116-4.149,1.276
			c-1.159-0.84-1.18-2.773-0.048-4.318C35.597-1.097,37.454-1.669,38.613-0.829z"/>
		<path fill="#FFFFFF" d="M46.913,7.488c0.921,0.667,0.809,2.38-0.251,3.824c-1.059,1.445-2.665,2.075-3.586,1.407
			c-0.92-0.667-0.808-2.379,0.252-3.824C44.387,7.451,45.992,6.821,46.913,7.488z"/>
		<path fill="#FFFFFF" d="M55.947,2.745c0.543,0.393,0.322,1.613-0.492,2.725s-1.916,1.693-2.459,1.3
			c-0.544-0.395-0.323-1.614,0.492-2.726C54.303,2.933,55.404,2.35,55.947,2.745z"/>
		<path fill="#FFFFFF" d="M68.7,10.788c0.544,0.395,0.324,1.614-0.491,2.726c-0.816,1.112-1.917,1.693-2.459,1.3
			c-0.544-0.394-0.324-1.614,0.491-2.725C67.057,10.977,68.158,10.395,68.7,10.788z"/>
		<path fill="#FFFFFF" d="M55.387,18.98c0.666,0.482,0.544,1.774-0.271,2.886c-0.814,1.111-2.015,1.622-2.679,1.14
			c-0.665-0.481-0.543-1.773,0.272-2.885S54.724,18.499,55.387,18.98z"/>
		<path fill="#FFFFFF" d="M49.758,30.575c0.527,0.382,0.332,1.542-0.436,2.59c-0.769,1.048-1.819,1.587-2.347,1.205
			c-0.528-0.382-0.332-1.542,0.436-2.589S49.231,30.193,49.758,30.575z"/>
	</g>
</g>
</svg>
