<?xml version="1.0" encoding="utf-8"?>
<!-- Generator: Adobe Illustrator 15.1.0, SVG Export Plug-In . SVG Version: 6.00 Build 0)  -->
<!DOCTYPE svg PUBLIC "-//W3C//DTD SVG 1.1//EN" "http://www.w3.org/Graphics/SVG/1.1/DTD/svg11.dtd">
<svg version="1.1" id="Layer_1" xmlns="http://www.w3.org/2000/svg" xmlns:xlink="http://www.w3.org/1999/xlink" x="0px" y="0px"
	 width="104px" height="103px" viewBox="0 0 104 103" enable-background="new 0 0 104 103" xml:space="preserve">
<g>
	
		<linearGradient id="SVGID_1_" gradientUnits="userSpaceOnUse" x1="-968.4292" y1="1072.1631" x2="-968.4292" y2="1071.0801" gradientTransform="matrix(95.522 0 0 -95.15 92558.3438 102016.2969)">
		<stop  offset="0" style="stop-color:#D4EB31"/>
		<stop  offset="1" style="stop-color:#5AB20C"/>
	</linearGradient>
	<ellipse fill="url(#SVGID_1_)" cx="52" cy="51.493" rx="52" ry="51.507"/>
	<path fill="#FFFFFF" d="M66.756,43.479c-1.146,1.476-4.584,5.868-5.396,6.792c2.566-0.557,3.304,2.715,3.304,2.715
		s-0.447,0.328-0.812,0.154c-0.423-2.065-2.029-2.68-2.319-1.888c0.506,2.176-0.968,4.725-0.968,4.725s-0.364,0-0.538-0.385
		c1.43-2.698,0.637-4.34,0.712-4.839c0.621-0.506,4.816-6.929,5.304-7.676C88.275,1.289,16.929,9.119,18.048,49.903
		c1.043,37.982,34.78,42.288,46.379,33.442c1.951-1.487-0.697-3.618-0.697-3.618s-0.231-2.928,0.569-8.031
		C82.004,65.259,76.915,45.012,66.756,43.479z M61.823,79.887c-5.448,3.331-20.691,0.345-21.966-2.41
		c-1.275-2.755-0.58-10.908,2.434-11.481c3.014-0.574,12.404,5.511,19.822,6.085C62.113,72.08,62.235,76.678,61.823,79.887z"/>
</g>
</svg>
