<?xml version="1.0" encoding="utf-8"?>
<!-- Generator: Adobe Illustrator 15.1.0, SVG Export Plug-In . SVG Version: 6.00 Build 0)  -->
<!DOCTYPE svg PUBLIC "-//W3C//DTD SVG 1.1//EN" "http://www.w3.org/Graphics/SVG/1.1/DTD/svg11.dtd">
<svg version="1.1" id="Layer_1" xmlns="http://www.w3.org/2000/svg" xmlns:xlink="http://www.w3.org/1999/xlink" x="0px" y="0px"
	 width="104px" height="103px" viewBox="0 0 104 103" enable-background="new 0 0 104 103" xml:space="preserve">
<g>
	
		<linearGradient id="SVGID_1_" gradientUnits="userSpaceOnUse" x1="-968.4292" y1="1072.1631" x2="-968.4292" y2="1071.0801" gradientTransform="matrix(95.522 0 0 -95.15 92558.3438 102016.2969)">
		<stop  offset="0" style="stop-color:#D4EB31"/>
		<stop  offset="1" style="stop-color:#5AB20C"/>
	</linearGradient>
	<ellipse fill="url(#SVGID_1_)" cx="52" cy="51.5" rx="52" ry="51.5"/>
	<ellipse fill="#FFFFFF" cx="30.12" cy="72.658" rx="5.563" ry="5.511"/>
	<ellipse fill="#FFFFFF" cx="47.45" cy="74.15" rx="5.563" ry="5.511"/>
	<ellipse fill="#FFFFFF" cx="65.186" cy="73.237" rx="5.563" ry="5.511"/>
	<ellipse fill="#FFFFFF" cx="81.066" cy="71.035" rx="5.563" ry="5.511"/>
	<path fill="#FFFFFF" d="M30.12,65.511c3.379,0,6.219,2.31,7.001,5.419c1.281-0.028,2.602-0.062,3.941-0.103
		c1.211-2.273,3.617-3.824,6.387-3.824c2.573,0,4.839,1.345,6.114,3.358c1.722-0.074,3.436-0.155,5.129-0.24
		c1.172-2.381,3.641-4.03,6.492-4.03c2.556,0,4.804,1.327,6.09,3.319c0.974-0.064,1.914-0.127,2.812-0.191
		c0.813-3.063,3.634-5.331,6.979-5.331c2.341,0,4.421,1.107,5.743,2.824c0.916-1.304,1.884-3.135,2.562-6.458
		c-8.496,0.964-22.458,1.544-39.359,1.606c-1.002,0.006-2.006,0.006-3.002,0.006c-13.51,0-26.238-0.344-33.471-0.895
		c1.13,4.942,2.898,8.443,4.178,9.275c0.545,0.356,2.493,0.574,5.402,0.688C23.896,67.825,26.741,65.511,30.12,65.511z
		 M89.667,58.492c0.556-5.396-2.915-13.508-14.53-13.834c-0.191,2.199-0.852,5.97-3.102,6.205c-1.333,0.138-0.353-3.329,0.673-6.199
		c-2.173,0.035-4.069,0.092-5.755,0.121c-0.186,2.095-0.731,4.575-2.278,4.828c-1.117,0.183-0.493-2.285,0.412-4.805
		c-1.352,0-2.551-0.035-3.651-0.138c-0.795,1.584-1.872,3.002-3.13,2.824c-0.893-0.126-0.313-1.55,0.707-3.22
		c-0.847-0.207-1.64-0.488-2.422-0.862c-1.356,1.728-3.421,3.846-4.968,3.134c-0.876-0.402,0.307-1.757,1.959-3.174
		c-3.443,1.785-8.12,4.041-9.343,3.776c-2-0.43-2.869-2.927-2.869-5.08c0-1.579,6.294-2.967,9.667-3.6
		c-0.493-1.17-0.823-2.307-1.038-3.409c-3.449,0.264-8.827,0.643-9.065,0.465c-0.347-0.259-4.52-4.219-0.87-6.113
		c2.272-1.177,6.764-0.689,9.836-0.155c0.927-6.268,4.607-10.47,1.373-11.354c-2.927-0.803-6.549,3.789-7.36,4.707
		c-2.667-0.086-4.956-1.923-17.793-1.148C12.415,32.632,11.22,48.589,13.174,59.214C28.387,60.432,71.125,60.7,89.667,58.492z"/>
</g>
</svg>
