<?xml version="1.0" encoding="utf-8"?>
<!-- Generator: Adobe Illustrator 15.1.0, SVG Export Plug-In . SVG Version: 6.00 Build 0)  -->
<!DOCTYPE svg PUBLIC "-//W3C//DTD SVG 1.1//EN" "http://www.w3.org/Graphics/SVG/1.1/DTD/svg11.dtd">
<svg version="1.1" id="Layer_1" xmlns="http://www.w3.org/2000/svg" xmlns:xlink="http://www.w3.org/1999/xlink" x="0px" y="0px"
	 width="104px" height="103px" viewBox="0 0 104 103" enable-background="new 0 0 104 103" xml:space="preserve">
<g>
	
		<linearGradient id="SVGID_1_" gradientUnits="userSpaceOnUse" x1="-968.4292" y1="1072.1631" x2="-968.4292" y2="1071.0801" gradientTransform="matrix(95.522 0 0 -95.15 92558.3438 102016.2969)">
		<stop  offset="0" style="stop-color:#D4EB31"/>
		<stop  offset="1" style="stop-color:#5AB20C"/>
	</linearGradient>
	<ellipse fill="url(#SVGID_1_)" cx="52" cy="51.5" rx="52" ry="51.5"/>
	<path fill="#FFFFFF" d="M91.783,49.961c-2.731,2.359-5.988,5.028-9.426,6.91c-3.76,2.063-7.186,2.918-10.484,2.601
		c-2.271-0.217-4.521-1.01-6.688-2.362c-2.29-1.431-4.561-3.531-6.764-6.247c1.749-0.953,3.163-2.468,4.017-4.333
		c0.921-2.015,1.171-4.363,0.688-6.602c-0.504-2.365-1.803-4.518-3.691-6.165c4.84-1.073,20.877-10.464,20.98-15.522
		c-12.402-5.969-46.708,0.523-56.914,11.021c-5.97,6.143-2.551,10.333-1.16,10.677c-0.063,0.976-2.086,2.583-1.158,3.501
		c0.816,0.809,2.672,0.711,4.004,0.029c-3.721,6.09-6.033,13.828-6.393,21.56l-0.018,0.361l0.227,0.286
		c6.451,8.181,13.91,13.703,22.157,16.407c3.721,1.224,7.592,1.848,11.493,1.872h0.215c3.599,0,7.233-0.519,10.803-1.528
		c7.576-2.151,14.757-6.567,20.228-12.421c5.431-5.815,8.805-12.64,9.501-19.207l0.26-2.468L91.783,49.961z M33.018,26.989
		c1.235-0.786,3.75-1.739,5.506-1.09c2.203,3.174-5.697,7.365-6.706,5.895C31.204,30.468,33.673,29.377,33.018,26.989z
		 M22.743,42.315c0.811-1.682,2.243-3.313,1.813-5.551c1.391-0.689,3.206-1.222,5.68-1.148
		C32.438,38.792,24.052,43.039,22.743,42.315z M82.463,68.681c-5.229,5.604-12.091,9.815-19.323,11.869
		c-3.46,0.983-6.985,1.472-10.462,1.453c-3.698-0.022-7.361-0.62-10.891-1.773c-7.777-2.548-14.837-7.756-20.998-15.471
		c0.203-3.696,0.898-7.536,2.011-11.13c1.252-4.023,2.973-7.64,5.118-10.739c2.342-3.387,5.118-6.033,8.247-7.875
		c3.449-2.026,7.315-3.054,11.499-3.054h0.006c3.976,0,7.228,0.884,9.667,2.628c2.58,1.843,3.53,4.145,3.872,5.747
		c0.394,1.837,0.197,3.749-0.557,5.39c-0.771,1.688-2.052,2.962-3.697,3.686c-2.852,1.251-5.28,1.36-6.839,0.292
		c-1.501-1.027-2.202-3.111-2.041-6.032l-1.964-0.11c-0.261,4.598,1.426,6.75,2.886,7.75c1.895,1.297,4.55,1.412,7.564,0.355
		c2.434,3.088,4.983,5.472,7.58,7.095c2.429,1.516,4.967,2.412,7.552,2.653c3.703,0.35,7.506-0.574,11.627-2.836
		c2.759-1.516,5.384-3.484,7.72-5.419C89.881,58.509,86.896,63.934,82.463,68.681z M65.632,36.208
		c0.121-1.01,0.944-2.715,2.434-3.099c2.323-0.597,2.979,1.303,1.548,2.296C68.778,35.979,67.678,35.405,65.632,36.208z
		 M62.959,37.563c1.454-0.947,4.852,0.556,5.783,1.768c1.462,1.888,0.65,5.063-2.334,3.73C64.82,42.35,64.508,38.332,62.959,37.563z
		"/>
</g>
</svg>
