<?xml version="1.0" encoding="utf-8"?>
<!-- Generator: Adobe Illustrator 15.1.0, SVG Export Plug-In . SVG Version: 6.00 Build 0)  -->
<!DOCTYPE svg PUBLIC "-//W3C//DTD SVG 1.1//EN" "http://www.w3.org/Graphics/SVG/1.1/DTD/svg11.dtd">
<svg version="1.1" id="Layer_1" xmlns="http://www.w3.org/2000/svg" xmlns:xlink="http://www.w3.org/1999/xlink" x="0px" y="0px"
	 width="104px" height="103px" viewBox="0 0 104 103" enable-background="new 0 0 104 103" xml:space="preserve">
<g>
	
		<linearGradient id="SVGID_1_" gradientUnits="userSpaceOnUse" x1="-968.4297" y1="1072.1631" x2="-968.4297" y2="1071.0801" gradientTransform="matrix(95.522 0 0 -95.15 92558.3438 102016.2969)">
		<stop  offset="0" style="stop-color:#E087E2"/>
		<stop  offset="1" style="stop-color:#892390"/>
	</linearGradient>
	<ellipse fill="url(#SVGID_1_)" cx="51.995" cy="51.5" rx="52.005" ry="51.5"/>
	<path fill="#FFFFFF" d="M48.61,42.229h2.771v-0.804h-2.428C48.848,41.707,48.732,41.977,48.61,42.229z M59.63,41.483h-2.767v1.899
		l2.767,0.012V41.483z M74.237,25.795c-5.044-11.635-33.22-12.841-41.219-2.509c-1.565,10.39,0.719,30.893,20.867,30.893
		C73.918,54.18,79.911,38.9,74.237,25.795z M54.331,41.426h-2.022v0.804h1.908v0.918h-1.914c-0.018,1.217-0.063,2.262-0.174,2.515
		c-0.156,0.361-0.597,0.534-1.478,0.574c-0.139,0.006-0.278,0.006-0.399,0.006c-0.325,0-0.575-0.018-0.586-0.018l0.059-0.919
		c0.632,0.04,1.315,0,1.564-0.081c0.047-0.304,0.076-1.113,0.087-2.083H48.28c0.84,0.684,1.56,1.63,1.594,1.677l-0.742,0.551
		c-0.005-0.012-0.707-0.93-1.467-1.538c-0.62,0.838-1.344,1.481-2.156,1.9l-0.429-0.815c0.8-0.414,1.438-1.045,1.947-1.774h-1.849
		v-0.918h2.406c0.139-0.265,0.26-0.534,0.376-0.804h-2.973v-0.918h3.315c0.053-0.167,0.105-0.333,0.151-0.5h-2.267v-0.919h2.504
		c0.035-0.16,0.07-0.309,0.099-0.458h-3.176v-0.919h3.333c0.087-0.608,0.104-0.999,0.11-1.016l0.927,0.041
		c0,0.034-0.017,0.401-0.093,0.975h3.843v0.919h-3.988c-0.029,0.149-0.058,0.298-0.093,0.458h3.485v0.919h-3.722
		c-0.036,0.126-0.07,0.252-0.11,0.385l-0.035,0.114h5.06V41.426z M60.558,44.319l-3.694-0.023v0.942h-0.926V40.57h4.62V44.319z
		 M55.259,39.934v-0.919h6.376v0.919H55.259z M63.519,44.25c-0.011,0.391-0.028,0.7-0.046,0.913
		c-0.028,0.299-0.059,0.608-0.341,0.741c-0.228,0.104-0.992,0.16-2.279,0.178l-0.011-0.919c0.613-0.006,1.339-0.035,1.71-0.069
		c0.093-0.941,0.08-4.294,0.039-6.836h-7.332v-0.919h8.242l0.007,0.454c0,0.018,0.034,1.917,0.034,3.812
		C63.549,42.706,63.542,43.601,63.519,44.25z M38.143,27.093c6.955-4.22,24.112-5.178,30.257,1.71
		C66.354,35.215,38.513,33.636,38.143,27.093z"/>
	<path fill="#FFFFFF" d="M11.942,50.61C46.836,65.88,86.6,66.563,91.353,63.813c2.782-1.838,3.594-6.201,2.087-7.349
		c-11.592,3.56-59.355,0.517-81.498-7.577C10.319,49.003,11.942,50.61,11.942,50.61z M11.183,52.086
		c28.837,24.729,60.556,35.48,65.912,34.229c3.205-0.947,4.409-4.007,3.31-5.539c-13.743-1.579-49.45-16.504-68.717-29.763
		C10.104,50.651,11.183,52.086,11.183,52.086z"/>
</g>
</svg>
