<?xml version="1.0" encoding="utf-8"?>
<!-- Generator: Adobe Illustrator 15.1.0, SVG Export Plug-In . SVG Version: 6.00 Build 0)  -->
<!DOCTYPE svg PUBLIC "-//W3C//DTD SVG 1.1//EN" "http://www.w3.org/Graphics/SVG/1.1/DTD/svg11.dtd">
<svg version="1.1" id="Layer_1" xmlns="http://www.w3.org/2000/svg" xmlns:xlink="http://www.w3.org/1999/xlink" x="0px" y="0px"
	 width="104px" height="103px" viewBox="0 0 104 103" enable-background="new 0 0 104 103" xml:space="preserve">
<g>
	
		<linearGradient id="SVGID_1_" gradientUnits="userSpaceOnUse" x1="-968.4292" y1="1072.1631" x2="-968.4292" y2="1071.0801" gradientTransform="matrix(95.522 0 0 -95.15 92558.3438 102016.2969)">
		<stop  offset="0" style="stop-color:#D4EB31"/>
		<stop  offset="1" style="stop-color:#5AB20C"/>
	</linearGradient>
	<ellipse fill="url(#SVGID_1_)" cx="52" cy="51.5" rx="52" ry="51.5"/>
	<path fill="#FFFFFF" d="M83.095,23.081c-0.655-1.475-4.069-6.062-8.706-9.156c-4.301-2.87-9.813-4.316-11.331-4.374
		c-9.517-1.739-18.882,0.924-24.331,4.942c-11.117,8.203-14.095,24.436-11.69,32.914c2.834,9.994,6.445,8.496,4.752,21.285
		c-2.365,3.317-9.795,14.19-9.795,14.19l7.083,4.787c0,0,7.523-10.809,9.79-14.195c11.417-6.211,11.319-2.337,21.75-3.353
		c8.851-0.861,23.033-9.511,26.709-22.748C89.121,40.869,88.212,31.237,83.095,23.081z M35.783,54.743l2.88-4.162l6.834,4.638
		l-3.768,5.441C39.44,59.021,37.435,57.016,35.783,54.743z M30.804,39.417c0-1.82,0.186-3.599,0.545-5.315l3.553,2.416l-3.947,5.707
		C30.856,41.294,30.804,40.364,30.804,39.417z M70.314,36.18l-6.718-4.563l4.579-6.619l6.717,4.563L70.314,36.18z M76.087,30.376
		l6.845,4.65l-4.579,6.618l-6.845-4.649L76.087,30.376z M56.178,39.796l-4.439,6.412l-6.833-4.638l4.439-6.412L56.178,39.796z
		 M50.162,33.969l4.585-6.624l6.833,4.638l-4.585,6.624L50.162,33.969z M57.373,40.605l6.717,4.563l-4.438,6.412l-6.719-4.563
		L57.373,40.605z M58.189,39.422l4.585-6.624l6.718,4.563l-4.585,6.625L58.189,39.422z M67.806,23.006l-6.835-4.638l3.043-4.397
		c2.777,0.712,5.374,1.859,7.721,3.358L67.806,23.006z M66.982,24.188l-4.579,6.618l-6.833-4.638l4.584-6.619L66.982,24.188z
		 M54.37,25.354l-6.792-4.615l4.578-6.618l6.793,4.615L54.37,25.354z M46.383,19.929l-3.634-2.468
		c2.342-1.533,4.944-2.705,7.726-3.439L46.383,19.929z M46.76,21.926l6.793,4.615l-4.584,6.625l-6.792-4.615L46.76,21.926z
		 M48.151,34.342l-4.439,6.412l-6.793-4.614l4.44-6.412L48.151,34.342z M35.725,35.33l-4.017-2.726
		c0.702-2.595,1.797-5.034,3.211-7.244l5.246,3.564L35.725,35.33z M36.096,37.328l6.793,4.615l-4.603,6.646l-6.792-4.615
		L36.096,37.328z M39.48,49.399l4.603-6.647l6.833,4.638l-4.602,6.647L39.48,49.399z M52.115,48.199l6.717,4.564l-4.602,6.646
		l-6.717-4.563L52.115,48.199z M60.027,53.572l6.845,4.648l-4.602,6.647l-6.846-4.649L60.027,53.572z M68.065,59.037l3.651,2.48
		c-2.336,1.491-4.921,2.628-7.68,3.34L68.065,59.037z M67.688,57.039l-6.845-4.649l4.439-6.412l6.846,4.65L67.688,57.039z
		 M66.102,44.795l4.584-6.624l6.845,4.649l-4.585,6.625L66.102,44.795z M78.726,43.636l4.183,2.842
		c-0.746,2.669-1.912,5.16-3.413,7.415l-5.35-3.633L78.726,43.636z M79.548,42.448l4.162-6.016c0.109,0.976,0.167,1.969,0.167,2.979
		c0,1.912-0.209,3.777-0.598,5.573L79.548,42.448z M83.192,33.459l-6.288-4.271l2.758-3.983
		C81.291,27.696,82.497,30.479,83.192,33.459z M78.789,23.936l-3.079,4.443l-6.717-4.563l3.93-5.678
		C75.172,19.757,77.154,21.714,78.789,23.936z M57.344,13.133c1.762,0,3.482,0.172,5.152,0.494l-2.719,3.926l-6.138-4.167
		C54.852,13.219,56.085,13.133,57.344,13.133z M41.48,18.339l4.086,2.772l-4.585,6.625l-5.256-3.57
		C37.33,21.943,39.272,19.975,41.48,18.339z M31.586,45.777l5.877,3.996l-2.556,3.69C33.412,51.126,32.282,48.538,31.586,45.777z
		 M36.554,69.156c-0.754-0.631-2.028-7.416-1.217-7.52c0.463-0.058,2.261,2.525,3.884,3.789c1.622,1.263,4.984,1.837,4.984,2.296
		C44.204,68.182,37.308,69.788,36.554,69.156z M42.917,61.481l3.767-5.447l6.718,4.563l-2.921,4.214
		C47.769,64.095,45.224,62.957,42.917,61.481z M52,65.168l2.603-3.754l6.022,4.087c-1.078,0.131-2.175,0.2-3.281,0.2
		C55.513,65.694,53.727,65.511,52,65.168z M72.992,60.644l-4.109-2.79l4.439-6.411l5.339,3.628
		C77.066,57.193,75.154,59.077,72.992,60.644z"/>
	<path fill="#FFFFFF" d="M57.65,90.487c-1.67-0.534-3.111-0.993-3.951-2.009c-0.494-0.592-0.743-1.528-0.709-2.624
		c0.035-1.021,0.309-2.079,0.777-2.968c0.841-1.607,2.191-2.475,3.703-2.365c2.324,0.161,3.611,1.252,4.643,2.125
		c0.568,0.481,1.061,0.9,1.658,1.143c0.655,0.264,1.634,0.315,2.678,0.257c-0.823-3.34-3.859-5.82-7.489-5.82
		c-4.26,0-7.708,3.415-7.708,7.635c0,4.218,3.448,7.635,7.708,7.635c1.247,0,2.429-0.294,3.466-0.815
		C60.989,91.555,59.244,90.998,57.65,90.487z M63.244,85.068c-0.8-0.322-1.432-0.855-2.035-1.373
		c-1.015-0.854-1.965-1.664-3.836-1.796c-0.551-0.039-1.588,0.121-2.371,1.624c-0.8,1.533-0.776,3.422-0.226,4.081
		c0.579,0.701,1.843,1.103,3.303,1.573c1.773,0.568,3.879,1.24,5.589,2.732c1.823-1.395,3.001-3.587,3.001-6.045
		c0-0.148-0.006-0.297-0.012-0.446C65.186,85.504,64.044,85.389,63.244,85.068z"/>
</g>
</svg>
