<?xml version="1.0" encoding="utf-8"?>
<!-- Generator: Adobe Illustrator 15.1.0, SVG Export Plug-In . SVG Version: 6.00 Build 0)  -->
<!DOCTYPE svg PUBLIC "-//W3C//DTD SVG 1.1//EN" "http://www.w3.org/Graphics/SVG/1.1/DTD/svg11.dtd">
<svg version="1.1" id="Layer_1" xmlns="http://www.w3.org/2000/svg" xmlns:xlink="http://www.w3.org/1999/xlink" x="0px" y="0px"
	 width="104px" height="103px" viewBox="0 0 104 103" enable-background="new 0 0 104 103" xml:space="preserve">
<g>
	
		<linearGradient id="SVGID_1_" gradientUnits="userSpaceOnUse" x1="-968.4292" y1="1072.1631" x2="-968.4292" y2="1071.0801" gradientTransform="matrix(95.522 0 0 -95.15 92558.3438 102016.2969)">
		<stop  offset="0" style="stop-color:#FF62A7"/>
		<stop  offset="1" style="stop-color:#FF334B"/>
	</linearGradient>
	<ellipse fill="url(#SVGID_1_)" cx="52" cy="51.5" rx="52" ry="51.5"/>
	<g transform="translate(12.35 20.521)">
		<path fill="#FFFFFF" d="M66.838-2.452C53.188-1.677,34.41,6.503,29.976,9.775c1.652,30.394,19.908,52.005,42.077,47.184
			C93.522,39.481,75.27,4.436,66.838-2.452z M67.035,10.745c1.368-0.918,4.868-0.918,6.897,2.21
			c-6.695-3.014-7.478,2.096-8.168,5.769C64.427,17.862,64.6,12.381,67.035,10.745z M42.343,24.429
			c-0.289-4.558,1.884-7.721,4.87-8.375c3.39-0.746,7.39,2.239,8.026,5.596C47.792,16.456,45.214,19.355,42.343,24.429z
			 M70.808,43.876c-7.1,3.008-17.968-3.191-19.271-7.755c15.562,0.172,20.344-5.086,25.907-9.988
			C78.4,30.095,77.902,40.87,70.808,43.876z"/>
		<path fill="#FFFFFF" d="M29.281,9.258c1.095-0.809,3.066-1.917,5.622-3.14c-7.419-3.673-17.028-6.487-22.314-4.787
			C2.028,11.032-13.51,41.138,6.821,57.687c14.652-0.477,22.627-6.773,28.91-22.174C32.109,28.097,29.819,19.143,29.281,9.258z
			 M11.105,15.435c1.211,1.039,1.756,4,0.678,5.166c-0.521-2.354-1.583-7.272-6.375-3.995C6.776,14.516,9.673,14.207,11.105,15.435z
			 M17.799,47.917c-5.013-5.138-8.143-9.361-17.138-9.396c2.359-3.834,7.569-7.934,12.878-4.651
			C18.552,36.976,19.683,44.548,17.799,47.917z M19.3,23.465c0.904-2.761,3.332-4.426,6.004-3.766
			c2.203,0.54,4.672,2.871,4.84,6.889C27.449,22.397,25.362,19.183,19.3,23.465z"/>
	</g>
</g>
</svg>
