<?xml version="1.0" encoding="utf-8"?>
<!-- Generator: Adobe Illustrator 15.1.0, SVG Export Plug-In . SVG Version: 6.00 Build 0)  -->
<!DOCTYPE svg PUBLIC "-//W3C//DTD SVG 1.1//EN" "http://www.w3.org/Graphics/SVG/1.1/DTD/svg11.dtd">
<svg version="1.1" id="Layer_1" xmlns="http://www.w3.org/2000/svg" xmlns:xlink="http://www.w3.org/1999/xlink" x="0px" y="0px"
	 width="104px" height="103px" viewBox="0 0 104 103" enable-background="new 0 0 104 103" xml:space="preserve">
<g>
	
		<linearGradient id="SVGID_1_" gradientUnits="userSpaceOnUse" x1="-968.4292" y1="1072.1641" x2="-968.4292" y2="1071.0811" gradientTransform="matrix(95.522 0 0 -95.15 92558.3438 102016.3594)">
		<stop  offset="0" style="stop-color:#09D9F7"/>
		<stop  offset="1" style="stop-color:#026BE0"/>
	</linearGradient>
	<ellipse fill="url(#SVGID_1_)" cx="52" cy="51.5" rx="52" ry="51.5"/>
	<g transform="translate(19.697 14.582)">
		<path fill="#FFFFFF" d="M67.115,36.241c-1.388-0.988-5.798-1.9-11.297-2.6l0.337-4.282c0,0,0.463,0.057,0.753,0
			c0.335-0.792,0.365-2.687-0.29-3.617c-4.04-2.335-11.17-2.755-15.36-1.435c-1.257,1.51-0.926,3.674-0.926,3.674h0.811
			l-0.481,4.443c-7.094-0.27-13.388-0.052-15.573,0.896c0,0-6.085,5.596-5.738,17.524c0.348,11.929,8.868,17.438,8.868,17.438
			s28.336,4.213,34.839-2.525C69.49,58.891,71.774,43.995,67.115,36.241z M45.229,28.326l7.002,0.66l-0.359,4.208
			c-2.324-0.23-4.747-0.426-7.146-0.569L45.229,28.326z M59.806,60.47c-2.302,3.289-21.254,2.945-20.286-0.401
			c1.478-2.825,7.303-5.941,9.1-4.42c0.376-2.555-0.801-7.738-1.971-8.41c-2.521-1.537-6.955,3.434-8.113,4.03
			c-1.032-4.18,3.87-6.818,3.87-6.818s-3.79,1.859-4.996,1.262c-1.043-0.517,2.174-3.571,4.783-4.479
			c2.562-0.888,3.853,2.056,4.057,1.609c-0.278-2.412,1.449-3.204,2.55-3.33c-0.047,1.447-0.145,2.555,0.579,3.214
			c1.624-0.563,8.347-1.405,7.882,3.215c-1.882-0.573-4.461-0.86-4.521,0c1.478,0.89,1.293,4.339,0.175,5.482
			c-0.579-2.784-1.971-4.392-2.55-3.76c0.289,1.837-0.215,6.526,1.043,8.915C55.517,54.425,60.038,58.042,59.806,60.47z"/>
		<path fill="none" stroke="#FFFFFF" stroke-width="1.802" d="M5.383,12.798c-7.976,4.85-12.114,34.641-1.333,44.629
			c9.302,1.98,25.125,1.55,28.689-1.895c3.564-3.445,5.854-39.922-0.145-41.903C26.595,11.65,10.222,11.449,5.383,12.798z
			 M8.628,57.915c-4.405-7.203-5.419-28.758,4.666-45.806"/>
		<polygon fill="#FFFFFF" points="-1.949,36.872 4.919,37.797 8.049,57.915 3.522,56.912 -1.19,47.813 		"/>
		<path fill="#FFFFFF" d="M45.316,4.446c-2.938-1.211-11.231-2.112-15.782-2.227c-0.005-0.023-0.005-0.046-0.011-0.069
			c0.434-0.115,0.956,0,0.956,0s0.84-1.894-0.377-3.53c-2.985-2.038-10.375-2.21-13.853-0.058c-0.782,1.463-0.463,3.416-0.463,3.416
			L16.8,2.15c-0.608,4.248-1.692,18.943-1.176,23.42c-0.186-0.012-0.481-0.018-0.51,0.126c-0.03,0.144,0.799,1.337,1.518,1.848
			c2.104,0.075,12.444-0.401,12.867-0.706c0.041-0.298-0.104-0.832-0.232-0.976c-0.104-0.201-0.347-0.143-0.347-0.143
			s0.614-7.704,0.811-14.557c3.438,0.137,9.668,0.58,14.125,1.67C45.199,11.938,46.32,6.668,45.316,4.446z M25.726,13.745
			c0,2.297-0.812,11.825-0.812,11.825H19.64c0,0,0-6.946,0.29-12.17c0.29-5.223,1.101-11.365,1.101-11.365h4.695
			c0,0,0,0.144,0,0.402c-1.46,0.241-3.124,0.935-3.518,3.708c-0.394,2.807,1.605,4.162,3.518,4.684
			C25.726,12.086,25.726,13.154,25.726,13.745z M27.871,9.871c-1.264,0-2.208-0.522-2.783-1.32
			c-0.406-0.529-0.643-1.188-0.643-1.906c-0.018-0.425,0.023-0.677,0.104-0.803c0.186-0.701,0.608-1.309,1.177-1.734
			c0,0.919,0,2.061,0,3.243c0.203,0.615,0.695,1.343,2.173,1.343c1.188,0,1.658-0.907,1.884-1.595
			c-0.006-1.051-0.023-2.027-0.069-2.882c0.637,0.533,1.061,1.303,1.129,2.175v0.006C31.099,7.345,30.073,9.871,27.871,9.871z
			 M41.201,9.917c-0.679-0.419-0.157-0.993-0.365-1.435c-0.377-0.235-2.244-0.424-2.568-0.017c-0.29,0.361,1.097,2.227,0.231,2.525
			c-0.713,0.247-1.93-2.066-2.144-2.525c-0.215-0.459-4.197-0.534-3.941-1.033c0.365-0.729,3.153-0.402,3.884-0.614
			c0.597-0.173,1.015-2.079,2.468-2.084c0.505-0.006-0.753,1.682-0.579,2.084c0.174,0.401,1.872,0.786,2.592,0.671
			c0.578-0.212,0.561-1.452,1.101-1.303C42.227,6.398,41.856,10.146,41.201,9.917z"/>
	</g>
</g>
</svg>
