<?xml version="1.0" encoding="utf-8"?>
<!-- Generator: Adobe Illustrator 15.1.0, SVG Export Plug-In . SVG Version: 6.00 Build 0)  -->
<!DOCTYPE svg PUBLIC "-//W3C//DTD SVG 1.1//EN" "http://www.w3.org/Graphics/SVG/1.1/DTD/svg11.dtd">
<svg version="1.1" id="Layer_1" xmlns="http://www.w3.org/2000/svg" xmlns:xlink="http://www.w3.org/1999/xlink" x="0px" y="0px"
	 width="104px" height="103px" viewBox="0 0 104 103" enable-background="new 0 0 104 103" xml:space="preserve">
<g>
	
		<linearGradient id="SVGID_1_" gradientUnits="userSpaceOnUse" x1="-968.4292" y1="1072.1631" x2="-968.4292" y2="1071.0801" gradientTransform="matrix(95.522 0 0 -95.15 92558.3438 102016.2969)">
		<stop  offset="0" style="stop-color:#D4EB31"/>
		<stop  offset="1" style="stop-color:#5AB20C"/>
	</linearGradient>
	<ellipse fill="url(#SVGID_1_)" cx="52" cy="51.5" rx="52" ry="51.5"/>
	<path fill="#FFFFFF" d="M94.008,48.745c-0.968-2.267-2.353-4.299-4.114-6.044c-1.764-1.745-3.819-3.117-6.104-4.075
		c-2.371-0.993-4.887-1.493-7.478-1.493c-0.476,0-0.949,0.018-1.42,0.052c-0.551-2.934-2.503-13.479-2.057-13.8
		c0.689-0.23,9.731,4.076,9.731,4.076c0.578-0.919,0.174-1.837-0.204-2.44c-0.376-0.602-8.78-5.281-10.46-5.194
		c-1.683,0.085-2.492,1.234-2.116,3.071c0.192,0.93,0.782,4.907,1.321,8.61c-4.028-1.923-8.102-3.042-12.136-3.33
		c-4.337-0.304-8.607,0.344-12.693,1.934c-0.672,0.259-1.333,0.546-1.994,0.862l-1.304-6.837c2.562-0.947,5.129-1.813,6.266-2.147
		c-0.232-0.833-1.328-1.613-1.884-1.636c-2.318,0.029-10.143,2.153-11.012,3.214c-0.417,0.804-0.493,2.669,0,3.445
		c0.481-0.374,1.75-0.959,3.333-1.602l1.396,7.313c-2.597,1.607-5.042,3.611-7.239,5.941c-2.318-0.947-4.775-1.429-7.308-1.429
		c-2.59,0-5.106,0.504-7.477,1.492c-2.29,0.959-4.341,2.331-6.103,4.076c-1.763,1.745-3.148,3.782-4.115,6.044
		c-1.003,2.348-1.513,4.839-1.513,7.405s0.51,5.058,1.513,7.405c0.967,2.268,2.353,4.299,4.115,6.043
		c1.761,1.746,3.819,3.118,6.103,4.076c2.371,0.992,4.886,1.493,7.477,1.493c2.591,0,5.106-0.506,7.477-1.493
		c2.289-0.958,4.34-2.33,6.103-4.076c1.761-1.744,3.147-3.782,4.115-6.043c0.243-0.564,0.452-1.137,0.637-1.717l1.669,0.074
		c0.284,0.04,0.574,0.063,0.875,0.063c3.384,0,6.125-2.716,6.125-6.068c0-2.209-1.193-4.022-2.979-4.999
		c1.924-3.14,3.971-5.568,6.357-7.6c3.89-3.306,8.786-5.55,14.931-6.842c0.059,0.408,0.109,0.77,0.15,1.057
		c-1.078,0.247-2.128,0.585-3.153,1.011c-2.289,0.958-4.341,2.33-6.104,4.075c-1.761,1.745-3.146,3.782-4.114,6.044
		c-1.002,2.348-1.506,4.839-1.506,7.404c0,2.566,0.509,5.058,1.506,7.405c0.968,2.267,2.354,4.3,4.114,6.045
		c1.763,1.744,3.821,3.116,6.104,4.075c2.371,0.993,4.886,1.492,7.478,1.492c2.59,0,5.105-0.504,7.476-1.492
		c2.289-0.959,4.342-2.331,6.104-4.075c1.762-1.745,3.147-3.783,4.115-6.045c1.002-2.348,1.507-4.839,1.507-7.405
		C95.521,53.595,95.011,51.092,94.008,48.745z M41.782,36.375l2.324,12.192c-0.962-2.158-2.301-4.098-3.993-5.774
		c-0.945-0.936-1.971-1.756-3.073-2.474C38.524,38.832,40.113,37.511,41.782,36.375z M37.655,45.232
		c1.53,1.515,2.707,3.289,3.489,5.223c-3.755,0.149-8.369,0.338-11.365,0.465c1.258-2.83,2.927-5.534,4.927-7.991
		C35.76,43.567,36.75,44.336,37.655,45.232z M37.655,67.256c-2.967,2.94-6.92,4.563-11.122,4.563c-4.202,0-8.149-1.618-11.123-4.563
		c-2.967-2.938-4.607-6.853-4.607-11.016c0-4.161,1.634-8.069,4.607-11.015c2.968-2.939,6.921-4.563,11.123-4.563
		c1.698,0,3.35,0.264,4.921,0.775c-2.307,2.962-4.179,6.24-5.512,9.649c-2.487,0.339-4.399,2.452-4.399,5.006
		c0,2.789,2.284,5.05,5.101,5.05h0.07l14.53,0.633C40.466,63.808,39.254,65.672,37.655,67.256z M54.648,40.783
		c-2.62,2.228-4.846,4.845-6.92,8.19L44.963,34.48c0.853-0.437,1.716-0.827,2.591-1.171c3.599-1.401,7.361-1.975,11.174-1.705
		c3.095,0.218,6.23,0.999,9.36,2.313C62.745,35.398,58.317,37.666,54.648,40.783z M87.436,67.164
		c-2.967,2.938-6.92,4.564-11.123,4.564c-4.201,0-8.148-1.619-11.121-4.564c-2.968-2.938-4.608-6.854-4.608-11.015
		s1.635-8.07,4.608-11.015c2.063-2.043,4.602-3.45,7.366-4.116l1.628,10.51c-1.785,0.786-3.031,2.56-3.031,4.621
		c0,2.79,2.284,5.052,5.101,5.052c2.817,0,5.101-2.262,5.101-5.052c0-2.538-1.89-4.638-4.353-5L75.368,40.6
		c0.313-0.018,0.626-0.029,0.944-0.029c4.203,0,8.149,1.619,11.123,4.564c2.973,2.945,4.607,6.854,4.607,11.015
		S90.403,64.22,87.436,67.164z"/>
</g>
</svg>
