<?xml version="1.0" encoding="utf-8"?>
<!-- Generator: Adobe Illustrator 15.1.0, SVG Export Plug-In . SVG Version: 6.00 Build 0)  -->
<!DOCTYPE svg PUBLIC "-//W3C//DTD SVG 1.1//EN" "http://www.w3.org/Graphics/SVG/1.1/DTD/svg11.dtd">
<svg version="1.1" id="Layer_1" xmlns="http://www.w3.org/2000/svg" xmlns:xlink="http://www.w3.org/1999/xlink" x="0px" y="0px"
	 width="104px" height="103px" viewBox="0 0 104 103" enable-background="new 0 0 104 103" xml:space="preserve">
<g>
	
		<linearGradient id="SVGID_1_" gradientUnits="userSpaceOnUse" x1="-968.4292" y1="1072.1631" x2="-968.4292" y2="1071.0801" gradientTransform="matrix(95.522 0 0 -95.15 92558.3438 102016.2969)">
		<stop  offset="0" style="stop-color:#FFE800"/>
		<stop  offset="1" style="stop-color:#FFA400"/>
	</linearGradient>
	<ellipse fill="url(#SVGID_1_)" cx="52" cy="51.5" rx="52" ry="51.5"/>
	<g transform="translate(19.324 16.968)">
		<path fill="#FFFFFF" d="M12.883,67.365l40.867,0.053c0,0-7.911,6.428-20.604,6.428C20.447,73.845,12.883,67.365,12.883,67.365z"/>
		<polygon fill="#FFFFFF" points="30.184,45.714 35.4,45.714 35.4,68.685 30.184,68.685 		"/>
		<path fill="#FFFFFF" d="M24.185,20.33l-7.65-16.875c0,0-9.418,6.682-12.577,11.71c-0.435-0.293-3.362-2.813-3.362-2.813
			S6.508,3.62,18.447-2.745c3.825,8.18,10.432,23.075,10.432,23.075H24.185z"/>
		<path fill="#FFFFFF" d="M63.655,19.469l-6.312,0.005c0.017-0.252,0.023-0.499,0.023-0.751c0-7.417-6.323-13.432-14.124-13.432
			c-7.803,0-14.126,6.015-14.126,13.432c0,0.264,0.012,0.528,0.023,0.792L3.128,19.55c0,0-4.973,7.347-5.628,15.211
			c7.408,6.423,18.86,13.65,35.181,13.65c21.578,0,32.504-10.425,36.347-13.707C68.321,26.628,63.655,19.469,63.655,19.469z
			 M31.986,19.378c0.481-0.654,1.2-1.131,2.046-1.436c1.408-0.505,5.385,0.815,6.875,1.436H31.986z M42.517,18.092
			c-0.175,0.121-5.824-0.873-7.278-2.48c-1.682-1.86-1.148-4.196,1.326-5.941c2.475-1.746,4.521-0.936,5.761,0.849
			C43.38,12.03,42.697,17.971,42.517,18.092z M44.209,18.23c-0.161-0.144-0.411-5.821,0.857-7.578
			c1.467-2.026,3.884-2.021,6.145-0.011c2.26,2.009,1.906,4.167,0.418,5.751C50.37,17.736,44.371,18.373,44.209,18.23z
			 M53.773,24.767c-1.361,2.687-3.558,2.917-5.495,1.912c-1.633-0.85-3.83-6.417-3.738-6.607c0.1-0.189,5.565-1.923,7.604-1.171
			C54.503,19.768,55.136,22.081,53.773,24.767z"/>
	</g>
</g>
</svg>
