<?xml version="1.0" encoding="utf-8"?>
<!-- Generator: Adobe Illustrator 15.1.0, SVG Export Plug-In . SVG Version: 6.00 Build 0)  -->
<!DOCTYPE svg PUBLIC "-//W3C//DTD SVG 1.1//EN" "http://www.w3.org/Graphics/SVG/1.1/DTD/svg11.dtd">
<svg version="1.1" id="Layer_1" xmlns="http://www.w3.org/2000/svg" xmlns:xlink="http://www.w3.org/1999/xlink" x="0px" y="0px"
	 width="104px" height="103px" viewBox="0 0 104 103" enable-background="new 0 0 104 103" xml:space="preserve">
<g>
	
		<linearGradient id="SVGID_1_" gradientUnits="userSpaceOnUse" x1="-968.4292" y1="1072.1631" x2="-968.4292" y2="1071.0801" gradientTransform="matrix(95.522 0 0 -95.15 92558.3438 102016.2969)">
		<stop  offset="0" style="stop-color:#D4EB31"/>
		<stop  offset="1" style="stop-color:#5AB20C"/>
	</linearGradient>
	<ellipse fill="url(#SVGID_1_)" cx="52" cy="51.5" rx="52" ry="51.5"/>
	<path fill="#FFFFFF" d="M63.668,86.889c1.581-2.199,2.966-4.656,4.08-7.267c1.83-4.295,2.92-8.87,3.244-13.611
		c0.349-5.039-0.197-10.028-1.622-14.821c-1.478-4.976-3.879-9.637-7.135-13.862c-0.963,0.873-1.872,1.803-2.725,2.79
		c-2.683,3.111-4.724,6.722-6.073,10.728c2.395,3.575,4.063,7.451,4.961,11.527c0.893,4.063,1.009,8.23,0.342,12.386
		c-0.811,5.052-2.758,9.833-5.575,13.852C56.815,88.512,60.34,87.921,63.668,86.889z M17.445,34.464
		c-1.542,3.243-2.631,6.733-3.194,10.4c2.313,5.896,7.06,11.251,13.464,15.056c4.063,2.417,8.606,4.11,13.499,5.029
		c5.071,0.953,10.386,1.045,15.81,0.271c-0.115-0.827-0.261-1.647-0.44-2.464c-0.87-3.948-2.503-7.696-4.862-11.153
		c-1.536,0.196-3.061,0.299-4.579,0.299c-2.863,0-5.68-0.35-8.427-1.05c-4.068-1.039-7.876-2.813-11.319-5.27
		C23.224,42.597,19.805,38.74,17.445,34.464z M27.895,75.62c7.563,4.644,17.074,6.228,27.536,4.598
		c0.667-1.854,1.165-3.783,1.479-5.751c0.399-2.475,0.498-4.96,0.313-7.417c-2.493,0.351-4.968,0.528-7.408,0.528
		c-3.043,0-6.034-0.275-8.949-0.82c-5.106-0.959-9.853-2.728-14.107-5.258c-5.686-3.382-10.143-7.945-12.884-13.048
		c-0.041,0.718-0.063,1.441-0.063,2.165c0,3.514,0.48,6.911,1.385,10.144c0.968,2.312,2.186,4.493,3.652,6.508
		C21.288,70.621,24.331,73.433,27.895,75.62z M43.701,18.81c-6.642,2.904-15.486,8.903-20.095,21.003
		c1.46,1.567,3.095,3.008,4.88,4.277c1.716,1.229,3.53,2.272,5.425,3.134c1.982-5.321,4.845-10.08,8.52-14.155
		c3.518-3.904,7.703-7.106,12.45-9.534c4.434-2.268,9.156-3.76,14.037-4.438c1.385-0.189,2.771-0.315,4.144-0.368
		c-1.877-1.205-3.865-2.256-5.951-3.128c-3.211-0.448-6.597-0.522-9.945-0.218C52.44,15.82,47.908,16.973,43.701,18.81z
		 M69.173,20.917c-4.678,0.648-9.198,2.078-13.445,4.248c-4.54,2.319-8.55,5.39-11.917,9.121c-3.541,3.926-6.294,8.513-8.196,13.65
		c1.159,0.448,2.348,0.827,3.565,1.136c4.086,1.045,8.352,1.269,12.681,0.661c1.426-4.024,3.524-7.658,6.241-10.815
		c2.725-3.163,6.007-5.774,9.75-7.76c4.563-2.417,9.586-3.777,14.531-3.984c-1.96-2.474-4.221-4.695-6.73-6.618
		C73.525,20.492,71.346,20.612,69.173,20.917z M81.489,72.406c1.78-4.289,2.8-8.869,3.031-13.605
		c0.249-5.039-0.417-10.027-1.977-14.814c-1.605-4.931-4.133-9.553-7.518-13.754c-2.155,0.62-4.276,1.475-6.294,2.543
		c-1.813,0.964-3.513,2.079-5.083,3.341c3.431,4.431,5.958,9.322,7.505,14.545c1.484,5,2.053,10.206,1.693,15.465
		c-0.493,7.151-2.701,14.027-6.241,19.71c4.352-1.75,8.31-4.271,11.695-7.387C79.524,76.584,80.603,74.547,81.489,72.406z
		 M22.233,38.246c1.958-4.798,4.729-9.035,8.248-12.605c3.5-3.559,7.696-6.417,12.472-8.507c5.281-2.307,11.105-3.576,16.89-3.754
		c-2.476-0.499-5.036-0.758-7.662-0.758c-14.548,0-27.2,8.014-33.703,19.832C19.485,34.486,20.749,36.433,22.233,38.246z
		 M54.648,82.188c-2.394,0.326-4.741,0.487-7.024,0.487c-7.726,0-14.773-1.854-20.708-5.499c-2.341-1.439-4.474-3.135-6.37-5.057
		c6.688,9.631,17.747,16.061,30.341,16.474C52.377,86.653,53.64,84.495,54.648,82.188z M83.726,28.982
		c-2.23,0-4.504,0.252-6.74,0.751c3.27,4.202,5.733,8.799,7.326,13.69c1.629,5,2.323,10.206,2.063,15.47
		c-0.236,4.868-1.297,9.604-3.048,13.931c4.551-6.244,7.229-13.914,7.229-22.203C90.555,42.58,88.033,35.124,83.726,28.982z"/>
</g>
</svg>
