<?xml version="1.0" encoding="utf-8"?>
<!-- Generator: Adobe Illustrator 15.1.0, SVG Export Plug-In . SVG Version: 6.00 Build 0)  -->
<!DOCTYPE svg PUBLIC "-//W3C//DTD SVG 1.1//EN" "http://www.w3.org/Graphics/SVG/1.1/DTD/svg11.dtd">
<svg version="1.1" id="Layer_1" xmlns="http://www.w3.org/2000/svg" xmlns:xlink="http://www.w3.org/1999/xlink" x="0px" y="0px"
	 width="104px" height="103px" viewBox="0 0 104 103" enable-background="new 0 0 104 103" xml:space="preserve">
<g>
	
		<linearGradient id="SVGID_1_" gradientUnits="userSpaceOnUse" x1="-968.4292" y1="1072.1641" x2="-968.4292" y2="1071.0811" gradientTransform="matrix(95.522 0 0 -95.15 92558.3438 102016.3594)">
		<stop  offset="0" style="stop-color:#09D9F7"/>
		<stop  offset="1" style="stop-color:#026BE0"/>
	</linearGradient>
	<ellipse fill="url(#SVGID_1_)" cx="52" cy="51.5" rx="52" ry="51.5"/>
	<path fill="#FFFFFF" d="M66.148,76.464c0-12.742-0.349-42.654-0.349-42.654s-8.113-1.274-9.156-2.647
		c-1.045-1.372-3.194-5.246-2.841-6.538c0.163-0.597,5.251-4.029,6.166-4.133c0.98-0.115,6.18,2.755,6.18,2.755l0.342-3.358
		l4.758,0.374l-0.231,3.731c0,0,11.477-0.058,12.52,0.115s6.138,3.972,5.94,4.828c-0.196,0.855-4.377,5.333-6.463,5.333
		L70.67,34.498c0.342,31.6,0.155,37.655,0.404,41.966C69.272,76.545,66.148,76.464,66.148,76.464z M29.061,40.565
		c-1.015,0.068-2,0.16-2.944,0.275c-0.481,0.666-2.562,3.656-2.777,5.631l-1.153-0.12c0.191-1.739,1.524-4.001,2.382-5.298
		c-1.391,0.212-2.672,0.477-3.802,0.798c-4.086,3.702-7.037,29.104,0.806,33.063c0.197,0.087,0.73,0.201,1.519,0.322l-0.446-1.544
		l1.113-0.315l0.585,2.043c1.095,0.149,2.457,0.31,3.987,0.47C24.963,67.297,22.047,56.615,29.061,40.565z M21.434,50.438
		l1.089,0.391c-0.006,0.022-0.759,2.106-0.927,3.65l-1.153-0.12C20.627,52.671,21.398,50.53,21.434,50.438z M20.448,58.291
		l1.147,0.172c-0.005,0.023-0.33,2.164-0.005,3.852l-1.136,0.213C20.088,60.65,20.436,58.389,20.448,58.291z M21.404,69.736
		c-0.174-1.188-0.476-3.162-0.476-3.18l1.147-0.173c0.006,0.019,0.308,1.999,0.481,3.191L21.404,69.736z M59.623,45.72
		c-2.197-1.733-5.988-3.048-10.451-3.938c0.348-1.894,0.377-4.667-1.773-6.44c-3.518-2.91-12.942-2.91-14.489-0.993
		c-1.113,1.372-0.765,4.449-0.481,6.067c-0.394,0.007-0.782,0.018-1.165,0.035c-3.535,7.772-4.978,14.89-4.411,21.726
		c0.441,5.32,2.052,9.872,3.68,13.933c9.019,0.866,21.909,1.635,24.649,0.625C58.753,74.794,66.016,55.106,59.623,45.72z
		 M35.929,36.45c0.887-0.764,7.494,0.229,8.966,1.188c0.806,0.522,0.823,2.164,0.672,3.536c-3.129-0.442-6.451-0.695-9.697-0.758
		C35.604,38.884,35.401,36.909,35.929,36.45z"/>
</g>
</svg>
